OpenSans-CondensedRegular.ufo
<glyph name="exclam" format="2">
  <advance width="471.8125"/>
  <unicode hex="0021"/>
  <outline>
    <contour>
      <point x="294.25" y="405.0" type="line"/>
      <point x="328.296875" y="1462.0" type="line"/>
      <point x="142.171875" y="1462.0" type="line"/>
      <point x="177.5625" y="405.0" type="line"/>
    </contour>
    <contour>
      <point x="132.75" y="107.3125" type="curve" smooth="yes"/>
      <point x="132.75" y="26.015625"/>
      <point x="168.6875" y="-17.34375"/>
      <point x="237.296875" y="-17.34375" type="curve" smooth="yes"/>
      <point x="297.453125" y="-17.34375"/>
      <point x="341.0625" y="22.015625"/>
      <point x="341.0625" y="107.3125" type="curve" smooth="yes"/>
      <point x="341.0625" y="194.5"/>
      <point x="301.234375" y="231.859375"/>
      <point x="237.296875" y="231.859375" type="curve" smooth="yes"/>
      <point x="166.90625" y="231.859375"/>
      <point x="132.75" y="188.171875"/>
    </contour>
  </outline>
</glyph>
<glyph name="quotedbl" format="2">
  <advance width="757"/>
  <unicode hex="0022"/>
  <outline>
    <contour>
      <point x="299" y="1462" type="line"/>
      <point x="121" y="1462" type="line"/>
      <point x="153" y="934" type="line"/>
      <point x="269" y="934" type="line"/>
    </contour>
    <contour>
      <point x="638" y="1462" type="line"/>
      <point x="460" y="1462" type="line"/>
      <point x="492" y="934" type="line"/>
      <point x="608" y="934" type="line"/>
    </contour>
  </outline>
</glyph>
<glyph name="numbersign" format="2">
  <advance width="934"/>
  <unicode hex="0023"/>
  <outline>
    <contour>
      <point x="714" y="927" type="line"/>
      <point x="898" y="927" type="line"/>
      <point x="898" y="1049" type="line"/>
      <point x="727" y="1049" type="line"/>
      <point x="778" y="1462" type="line"/>
      <point x="662" y="1462" type="line"/>
      <point x="610" y="1049" type="line"/>
      <point x="401" y="1049" type="line"/>
      <point x="452" y="1462" type="line"/>
      <point x="332" y="1462" type="line"/>
      <point x="283" y="1049" type="line"/>
      <point x="86" y="1049" type="line"/>
      <point x="86" y="927" type="line"/>
      <point x="267" y="927" type="line"/>
      <point x="225" y="573" type="line"/>
      <point x="39" y="573" type="line"/>
      <point x="39" y="448" type="line"/>
      <point x="210" y="448" type="line"/>
      <point x="157" y="0" type="line"/>
      <point x="274" y="0" type="line"/>
      <point x="327" y="448" type="line"/>
      <point x="537" y="448" type="line"/>
      <point x="481" y="0" type="line"/>
      <point x="601" y="0" type="line"/>
      <point x="658" y="448" type="line"/>
      <point x="851" y="448" type="line"/>
      <point x="851" y="573" type="line"/>
      <point x="672" y="573" type="line"/>
    </contour>
    <contour>
      <point x="343" y="573" type="line"/>
      <point x="386" y="927" type="line"/>
      <point x="596" y="927" type="line"/>
      <point x="552" y="573" type="line"/>
    </contour>
  </outline>
</glyph>
<glyph name="dollar" format="2">
  <advance width="871.125"/>
  <unicode hex="0024"/>
  <outline>
    <contour>
      <point x="386.046875" y="-119.0" type="line"/>
      <point x="480.578125" y="-119.0" type="line"/>
      <point x="480.578125" y="107.34374999999999" type="line"/>
      <point x="679.765625" y="138.140625"/>
      <point x="792.875" y="267.359375"/>
      <point x="792.875" y="447.34375" type="curve" smooth="yes"/>
      <point x="792.875" y="623.125"/>
      <point x="689.546875" y="710.21875"/>
      <point x="480.578125" y="798.296875" type="curve"/>
      <point x="480.578125" y="1259.625" type="line"/>
      <point x="571.46875" y="1254.28125"/>
      <point x="645.234375" y="1235.296875"/>
      <point x="717.34375" y="1197.640625" type="curve"/>
      <point x="761.9375" y="1321.671875" type="line"/>
      <point x="676.59375" y="1364.890625"/>
      <point x="585.03125" y="1387.21875"/>
      <point x="480.578125" y="1392.78125" type="curve"/>
      <point x="480.578125" y="1556.0" type="line"/>
      <point x="386.046875" y="1556.0" type="line"/>
      <point x="386.046875" y="1389.0" type="line"/>
      <point x="203.359375" y="1371.65625"/>
      <point x="79.921875" y="1242.4375"/>
      <point x="79.921875" y="1053.015625" type="curve" smooth="yes"/>
      <point x="79.921875" y="870.703125"/>
      <point x="169.3125" y="778.484375"/>
      <point x="386.046875" y="690.265625" type="curve"/>
      <point x="386.046875" y="229.59375" type="line"/>
      <point x="271.5625" y="233.15625"/>
      <point x="157.921875" y="270.15625"/>
      <point x="82.25" y="316.0625" type="curve"/>
      <point x="82.25" y="167.109375" type="line"/>
      <point x="157.484375" y="128.765625"/>
      <point x="264.6875" y="102.21874999999999"/>
      <point x="386.046875" y="99.10937499999999" type="curve"/>
    </contour>
    <contour>
      <point x="480.578125" y="236.9375" type="curve"/>
      <point x="480.578125" y="651.234375" type="line"/>
      <point x="604.0" y="597.09375"/>
      <point x="657.046875" y="540.015625"/>
      <point x="657.046875" y="437.328125" type="curve" smooth="yes"/>
      <point x="657.046875" y="334.578125"/>
      <point x="595.484375" y="257.734375"/>
    </contour>
    <contour>
      <point x="386.046875" y="839.21875" type="line"/>
      <point x="263.546875" y="894.953125"/>
      <point x="216.96875" y="943.125"/>
      <point x="216.96875" y="1056.359375" type="curve" smooth="yes"/>
      <point x="216.96875" y="1164.671875"/>
      <point x="280.21875" y="1241.953125"/>
      <point x="386.046875" y="1257.625" type="curve"/>
    </contour>
  </outline>
</glyph>
<glyph name="percent" format="2">
  <advance width="1339.328125"/>
  <unicode hex="0025"/>
  <outline>
    <contour>
      <point x="315.71875" y="1483.0" type="curve" smooth="yes"/>
      <point x="162.90625" y="1483.0"/>
      <point x="83.3125" y="1321.0"/>
      <point x="83.3125" y="1026.21875" type="curve" smooth="yes"/>
      <point x="83.3125" y="733.90625"/>
      <point x="165.125" y="565.0"/>
      <point x="315.9375" y="565.0" type="curve" smooth="yes"/>
      <point x="465.640625" y="565.0"/>
      <point x="551.34375" y="732.125"/>
      <point x="551.34375" y="1026.0" type="curve" smooth="yes"/>
      <point x="551.34375" y="1320.96875"/>
      <point x="465.421875" y="1483.0"/>
    </contour>
    <contour>
      <point x="314.15625" y="1368.75" type="curve" smooth="yes"/>
      <point x="385.21875" y="1368.75"/>
      <point x="421.96875" y="1255.921875"/>
      <point x="421.96875" y="1026.0" type="curve" smooth="yes"/>
      <point x="421.96875" y="794.296875"/>
      <point x="388.78125" y="681.6875"/>
      <point x="315.9375" y="681.6875" type="curve" smooth="yes"/>
      <point x="240.640625" y="681.6875"/>
      <point x="210.6875" y="795.640625"/>
      <point x="210.6875" y="1026.0" type="curve" smooth="yes"/>
      <point x="210.6875" y="1255.125"/>
      <point x="240.859375" y="1368.75"/>
    </contour>
    <contour>
      <point x="984.484375" y="1462.0" type="line"/>
      <point x="858.671875" y="1462.0" type="line"/>
      <point x="350.5" y="0.0" type="line"/>
      <point x="476.3125" y="0.0" type="line"/>
    </contour>
    <contour>
      <point x="1022.609375" y="899.0" type="curve" smooth="yes"/>
      <point x="872.453125" y="899.0"/>
      <point x="789.984375" y="743.765625"/>
      <point x="789.984375" y="442.21875" type="curve" smooth="yes"/>
      <point x="789.984375" y="149.296875"/>
      <point x="873.765625" y="-18.0"/>
      <point x="1022.828125" y="-18.0" type="curve" smooth="yes"/>
      <point x="1171.4375" y="-18.0"/>
      <point x="1258.015625" y="142.375"/>
      <point x="1258.015625" y="442.0" type="curve" smooth="yes"/>
      <point x="1258.015625" y="737.078125"/>
      <point x="1171.875" y="899.0"/>
    </contour>
    <contour>
      <point x="1020.828125" y="784.75" type="curve" smooth="yes"/>
      <point x="1091.890625" y="784.75"/>
      <point x="1126.859375" y="664.90625"/>
      <point x="1126.859375" y="441.78125" type="curve" smooth="yes"/>
      <point x="1126.859375" y="216.953125"/>
      <point x="1097.890625" y="97.57812499999999"/>
      <point x="1022.828125" y="97.57812499999999" type="curve" smooth="yes"/>
      <point x="946.984375" y="97.57812499999999"/>
      <point x="917.359375" y="212.296875"/>
      <point x="917.359375" y="441.78125" type="curve" smooth="yes"/>
      <point x="917.359375" y="671.796875"/>
      <point x="947.421875" y="784.75"/>
    </contour>
  </outline>
</glyph>
<glyph name="ampersand" format="2">
  <advance width="956.328125"/>
  <unicode hex="0026"/>
  <outline>
    <contour>
      <point x="415.4375" y="1483.0" type="curve" smooth="yes"/>
      <point x="264.03125" y="1483.0"/>
      <point x="169.09375" y="1369.3125"/>
      <point x="169.09375" y="1184.1875" type="curve" smooth="yes"/>
      <point x="169.09375" y="1034.734375"/>
      <point x="205.40625" y="934.4375"/>
      <point x="288.09375" y="795.21875" type="curve"/>
      <point x="129.21875" y="672.21875"/>
      <point x="59.765625" y="544.125"/>
      <point x="59.765625" y="369.140625" type="curve" smooth="yes"/>
      <point x="59.765625" y="145.03125"/>
      <point x="159.3125" y="-20.0"/>
      <point x="363.828125" y="-20.0" type="curve" smooth="yes"/>
      <point x="504.171875" y="-20.0"/>
      <point x="598.609375" y="45.046875"/>
      <point x="685.546875" y="154.703125" type="curve"/>
      <point x="775.296875" y="0.0" type="line"/>
      <point x="960.21875" y="0.0" type="line"/>
      <point x="783.6875" y="270.28125" type="line"/>
      <point x="851.046875" y="385.421875"/>
      <point x="897.171875" y="554.546875"/>
      <point x="904.96875" y="688.234375" type="curve"/>
      <point x="748.3125" y="688.234375" type="line"/>
      <point x="745.296875" y="579.46875"/>
      <point x="724.328125" y="482.109375"/>
      <point x="688.671875" y="409.234375" type="curve"/>
      <point x="474.671875" y="772.4375" type="line"/>
      <point x="597.453125" y="884.484375"/>
      <point x="656.546875" y="1009.015625"/>
      <point x="656.546875" y="1177.53125" type="curve" smooth="yes"/>
      <point x="656.546875" y="1372.296875"/>
      <point x="568.078125" y="1483.0"/>
    </contour>
    <contour>
      <point x="359.96875" y="689.65625" type="curve"/>
      <point x="604.0" y="278.515625" type="line"/>
      <point x="541.0" y="173.328125"/>
      <point x="472.59375" y="121.84374999999999"/>
      <point x="385.203125" y="121.84374999999999" type="curve" smooth="yes"/>
      <point x="282.71875" y="121.84374999999999"/>
      <point x="216.75" y="217.234375"/>
      <point x="216.75" y="374.484375" type="curve" smooth="yes"/>
      <point x="216.75" y="509.78125"/>
      <point x="254.84375" y="596.921875"/>
    </contour>
    <contour>
      <point x="411.875" y="1357.40625" type="curve" smooth="yes"/>
      <point x="478.15625" y="1357.40625"/>
      <point x="514.03125" y="1297.359375"/>
      <point x="514.03125" y="1181.09375" type="curve" smooth="yes"/>
      <point x="514.03125" y="1059.140625"/>
      <point x="483.9375" y="955.09375"/>
      <point x="402.125" y="880.0" type="curve"/>
      <point x="349.359375" y="961.390625"/>
      <point x="316.734375" y="1082.15625"/>
      <point x="316.734375" y="1180.625" type="curve" smooth="yes"/>
      <point x="316.734375" y="1294.015625"/>
      <point x="352.15625" y="1357.40625"/>
    </contour>
  </outline>
</glyph>
<glyph name="quotesingle" format="2">
  <advance width="415.5"/>
  <unicode hex="0027"/>
  <outline>
    <contour>
      <point x="298.75" y="1462.0" type="line"/>
      <point x="120.53125" y="1462.0" type="line"/>
      <point x="153.015625" y="934.0" type="line"/>
      <point x="269.265625" y="934.0" type="line"/>
    </contour>
  </outline>
</glyph>
<glyph name="parenleft" format="2">
  <advance width="589.765625"/>
  <unicode hex="0028"/>
  <outline>
    <contour>
      <point x="100.4375" y="567.21875" type="curve" smooth="yes"/>
      <point x="100.4375" y="221.71875"/>
      <point x="201.84375" y="-92.515625"/>
      <point x="391.65625" y="-324.0" type="curve"/>
      <point x="526.46875" y="-324.0" type="line"/>
      <point x="353.796875" y="-74.265625"/>
      <point x="256.1875" y="244.859375"/>
      <point x="256.1875" y="569.0" type="curve" smooth="yes"/>
      <point x="256.1875" y="895.953125"/>
      <point x="348.8125" y="1208.515625"/>
      <point x="528.25" y="1473.578125" type="curve"/>
      <point x="391.875" y="1473.578125" type="line"/>
      <point x="205.0" y="1235.90625"/>
      <point x="100.4375" y="912.5625"/>
    </contour>
  </outline>
</glyph>
<glyph name="parenright" format="2">
  <advance width="590"/>
  <unicode hex="0029"/>
  <outline>
    <contour>
      <point x="489" y="568" type="curve" smooth="yes"/>
      <point x="489" y="907"/>
      <point x="385" y="1237"/>
      <point x="198" y="1474" type="curve"/>
      <point x="62" y="1474" type="line"/>
      <point x="238" y="1212"/>
      <point x="334" y="902"/>
      <point x="334" y="570" type="curve" smooth="yes"/>
      <point x="334" y="251"/>
      <point x="236" y="-73"/>
      <point x="63" y="-324" type="curve"/>
      <point x="198" y="-324" type="line"/>
      <point x="386" y="-94"/>
      <point x="489" y="229"/>
    </contour>
  </outline>
</glyph>
<glyph name="asterisk" format="2">
  <advance width="800"/>
  <unicode hex="002A"/>
  <outline>
    <contour>
      <point x="481" y="1559" type="line"/>
      <point x="323" y="1559" type="line"/>
      <point x="348" y="1293" type="line"/>
      <point x="106" y="1366" type="line"/>
      <point x="76" y="1220" type="line"/>
      <point x="314" y="1197" type="line"/>
      <point x="146" y="972" type="line"/>
      <point x="272" y="894" type="line"/>
      <point x="402" y="1139" type="line"/>
      <point x="526" y="894" type="line"/>
      <point x="656" y="972" type="line"/>
      <point x="483" y="1197" type="line"/>
      <point x="724" y="1222" type="line"/>
      <point x="696" y="1369" type="line"/>
      <point x="452" y="1293" type="line"/>
    </contour>
  </outline>
</glyph>
<glyph name="plus" format="2">
  <advance width="874"/>
  <unicode hex="002B"/>
  <outline>
    <contour>
      <point x="502" y="788" type="line"/>
      <point x="502" y="1203" type="line"/>
      <point x="371" y="1203" type="line"/>
      <point x="371" y="788" type="line"/>
      <point x="61" y="788" type="line"/>
      <point x="61" y="657" type="line"/>
      <point x="371" y="657" type="line"/>
      <point x="371" y="245" type="line"/>
      <point x="502" y="245" type="line"/>
      <point x="502" y="657" type="line"/>
      <point x="809" y="657" type="line"/>
      <point x="809" y="788" type="line"/>
    </contour>
  </outline>
</glyph>
<glyph name="comma" format="2">
  <advance width="452"/>
  <unicode hex="002C"/>
  <outline>
    <contour>
      <point x="331" y="230" type="line"/>
      <point x="168" y="230" type="line"/>
      <point x="154" y="83"/>
      <point x="119" y="-101"/>
      <point x="74" y="-269" type="curve"/>
      <point x="192" y="-269" type="line"/>
      <point x="257" y="-123"/>
      <point x="305" y="41"/>
      <point x="344" y="208" type="curve"/>
    </contour>
  </outline>
</glyph>
<glyph name="hyphen" format="2">
  <advance width="558.59375"/>
  <unicode hex="002D"/>
  <outline>
    <contour>
      <point x="54.78125" y="475.671875" type="line"/>
      <point x="503.703125" y="475.671875" type="line"/>
      <point x="503.703125" y="629.640625" type="line"/>
      <point x="54.78125" y="629.640625" type="line"/>
    </contour>
  </outline>
</glyph>
<glyph name="period" format="2">
  <advance width="453"/>
  <unicode hex="002E"/>
  <outline>
    <contour>
      <point x="122" y="107" type="curve" smooth="yes"/>
      <point x="122" y="26"/>
      <point x="160" y="-17"/>
      <point x="226" y="-17" type="curve" smooth="yes"/>
      <point x="289" y="-17"/>
      <point x="331" y="22"/>
      <point x="331" y="107" type="curve" smooth="yes"/>
      <point x="331" y="195"/>
      <point x="291" y="232"/>
      <point x="226" y="232" type="curve" smooth="yes"/>
      <point x="158" y="232"/>
      <point x="122" y="188"/>
    </contour>
  </outline>
</glyph>
<glyph name="slash" format="2">
  <advance width="750"/>
  <unicode hex="002F"/>
  <outline>
    <contour>
      <point x="722" y="1467" type="line"/>
      <point x="578" y="1467" type="line"/>
      <point x="40" y="-5" type="line"/>
      <point x="187" y="-5" type="line"/>
    </contour>
  </outline>
</glyph>
<glyph name="zero" format="2">
  <advance width="871.125"/>
  <unicode hex="0030"/>
  <outline>
    <contour>
      <point x="784.03125" y="731.21875" type="curve" smooth="yes"/>
      <point x="784.03125" y="1227.5625"/>
      <point x="673.734375" y="1483.0"/>
      <point x="435.15625" y="1483.0" type="curve" smooth="yes"/>
      <point x="198.921875" y="1483.0"/>
      <point x="85.3125" y="1230.109375"/>
      <point x="85.3125" y="730.5625" type="curve" smooth="yes"/>
      <point x="85.3125" y="160.31250000000003"/>
      <point x="213.390625" y="-19.125"/>
      <point x="435.15625" y="-19.125" type="curve" smooth="yes"/>
      <point x="684.421875" y="-19.125"/>
      <point x="784.03125" y="261.609375"/>
    </contour>
    <contour>
      <point x="246.40625" y="731.21875" type="curve" smooth="yes"/>
      <point x="246.40625" y="1134.3125"/>
      <point x="299.59375" y="1338.484375"/>
      <point x="435.15625" y="1338.484375" type="curve" smooth="yes"/>
      <point x="568.390625" y="1338.484375"/>
      <point x="624.71875" y="1128.765625"/>
      <point x="624.71875" y="731.0" type="curve" smooth="yes"/>
      <point x="624.71875" y="331.5625"/>
      <point x="568.609375" y="124.5"/>
      <point x="435.375" y="124.5" type="curve" smooth="yes"/>
      <point x="300.03125" y="124.5"/>
      <point x="246.40625" y="329.125"/>
    </contour>
  </outline>
</glyph>
<glyph name="one" format="2">
  <advance width="871"/>
  <unicode hex="0031"/>
  <outline>
    <contour>
      <point x="590" y="0" type="line"/>
      <point x="590" y="1462" type="line"/>
      <point x="454" y="1462" type="line"/>
      <point x="130" y="1148" type="line"/>
      <point x="220" y="1050" type="line"/>
      <point x="350" y="1176" type="line" smooth="yes"/>
      <point x="394" y="1219"/>
      <point x="422" y="1250"/>
      <point x="440" y="1275" type="curve"/>
      <point x="436" y="1182"/>
      <point x="432" y="1092"/>
      <point x="432" y="1004" type="curve" smooth="yes"/>
      <point x="432" y="0" type="line"/>
    </contour>
  </outline>
</glyph>
<glyph name="two" format="2">
  <advance width="871.125"/>
  <unicode hex="0032"/>
  <outline>
    <contour>
      <point x="774.234375" y="0.0" type="line"/>
      <point x="774.234375" y="142.734375" type="line"/>
      <point x="255.53125" y="142.734375" type="line"/>
      <point x="255.53125" y="150.296875" type="line"/>
      <point x="498.8125" y="494.640625" type="line" smooth="yes"/>
      <point x="663.859375" y="722.6875"/>
      <point x="745.46875" y="879.609375"/>
      <point x="745.46875" y="1114.6875" type="curve" smooth="yes"/>
      <point x="745.46875" y="1335.296875"/>
      <point x="616.21875" y="1483.0"/>
      <point x="399.9375" y="1483.0" type="curve" smooth="yes"/>
      <point x="273.78125" y="1483.0"/>
      <point x="181.5625" y="1444.0"/>
      <point x="81.828125" y="1351.359375" type="curve"/>
      <point x="163.484375" y="1240.671875" type="line"/>
      <point x="235.953125" y="1310.609375"/>
      <point x="301.25" y="1340.265625"/>
      <point x="387.46875" y="1340.265625" type="curve" smooth="yes"/>
      <point x="514.65625" y="1340.265625"/>
      <point x="586.265625" y="1251.28125"/>
      <point x="586.265625" y="1109.125" type="curve" smooth="yes"/>
      <point x="586.265625" y="916.53125"/>
      <point x="529.125" y="791.765625"/>
      <point x="358.953125" y="543.125" type="curve" smooth="yes"/>
      <point x="69.53125" y="117.375" type="line"/>
      <point x="69.53125" y="0.0" type="line"/>
    </contour>
  </outline>
</glyph>
<glyph name="three" format="2">
  <advance width="871"/>
  <unicode hex="0033"/>
  <outline>
    <contour>
      <point x="748" y="1127" type="curve" smooth="yes"/>
      <point x="748" y="1347"/>
      <point x="619" y="1483"/>
      <point x="408" y="1483" type="curve" smooth="yes"/>
      <point x="276" y="1483"/>
      <point x="174" y="1444"/>
      <point x="72" y="1350" type="curve"/>
      <point x="149" y="1240" type="line"/>
      <point x="225" y="1308"/>
      <point x="291" y="1344"/>
      <point x="388" y="1344" type="curve" smooth="yes"/>
      <point x="517" y="1344"/>
      <point x="591" y="1259"/>
      <point x="591" y="1111" type="curve" smooth="yes"/>
      <point x="591" y="939"/>
      <point x="484" y="824"/>
      <point x="312" y="824" type="curve" smooth="yes"/>
      <point x="231" y="824" type="line"/>
      <point x="231" y="686" type="line"/>
      <point x="306" y="686" type="line" smooth="yes"/>
      <point x="504" y="686"/>
      <point x="607" y="590"/>
      <point x="607" y="406" type="curve" smooth="yes"/>
      <point x="607" y="235"/>
      <point x="528" y="118"/>
      <point x="360" y="118" type="curve" smooth="yes"/>
      <point x="262" y="118"/>
      <point x="164" y="146"/>
      <point x="79" y="197" type="curve"/>
      <point x="79" y="39" type="line"/>
      <point x="166" y="-2"/>
      <point x="258" y="-20"/>
      <point x="375" y="-20" type="curve" smooth="yes"/>
      <point x="628" y="-20"/>
      <point x="772" y="149"/>
      <point x="772" y="398" type="curve" smooth="yes"/>
      <point x="772" y="594"/>
      <point x="677" y="723"/>
      <point x="507" y="760" type="curve"/>
      <point x="507" y="768" type="line"/>
      <point x="662" y="823"/>
      <point x="748" y="951"/>
    </contour>
  </outline>
</glyph>
<glyph name="four" format="2">
  <advance width="871"/>
  <unicode hex="0034"/>
  <outline>
    <contour>
      <point x="843" y="322" type="line"/>
      <point x="843" y="457" type="line"/>
      <point x="688" y="457" type="line"/>
      <point x="688" y="1474" type="line"/>
      <point x="519" y="1474" type="line"/>
      <point x="34" y="452" type="line"/>
      <point x="34" y="322" type="line"/>
      <point x="532" y="322" type="line"/>
      <point x="532" y="0" type="line"/>
      <point x="688" y="0" type="line"/>
      <point x="688" y="322" type="line"/>
    </contour>
    <contour>
      <point x="532" y="457" type="line"/>
      <point x="175" y="457" type="line"/>
      <point x="461" y="1086" type="line" smooth="yes"/>
      <point x="485" y="1142"/>
      <point x="510" y="1202"/>
      <point x="532" y="1266" type="curve"/>
      <point x="539" y="1266" type="line"/>
      <point x="537" y="1210"/>
      <point x="532" y="1108"/>
      <point x="532" y="1047" type="curve" smooth="yes"/>
    </contour>
  </outline>
</glyph>
<glyph name="five" format="2">
  <advance width="871.125"/>
  <unicode hex="0035"/>
  <outline>
    <contour>
      <point x="425.546875" y="895.828125" type="curve" smooth="yes"/>
      <point x="372.71875" y="895.828125"/>
      <point x="315.421875" y="888.515625"/>
      <point x="258.84375" y="876.078125" type="curve"/>
      <point x="289.375" y="1318.375" type="line"/>
      <point x="701.5625" y="1318.375" type="line"/>
      <point x="701.5625" y="1462.0" type="line"/>
      <point x="156.65625" y="1462.0" type="line"/>
      <point x="113.0" y="787.859375" type="line"/>
      <point x="176.171875" y="726.578125" type="line"/>
      <point x="240.640625" y="747.125"/>
      <point x="306.15625" y="761.109375"/>
      <point x="372.5625" y="761.109375" type="curve" smooth="yes"/>
      <point x="530.78125" y="761.109375"/>
      <point x="619.25" y="657.296875"/>
      <point x="619.25" y="463.90625" type="curve" smooth="yes"/>
      <point x="619.25" y="276.21875"/>
      <point x="533.609375" y="118.49999999999999"/>
      <point x="353.375" y="118.49999999999999" type="curve" smooth="yes"/>
      <point x="264.5" y="118.49999999999999"/>
      <point x="175.15625" y="149.71875"/>
      <point x="99.78125" y="198.859375" type="curve"/>
      <point x="99.78125" y="40.78125" type="line"/>
      <point x="166.46875" y="0.6562500000000013"/>
      <point x="254.25" y="-19.78125"/>
      <point x="364.953125" y="-19.78125" type="curve" smooth="yes"/>
      <point x="636.296875" y="-19.78125"/>
      <point x="780.234375" y="179.09375"/>
      <point x="780.234375" y="469.25" type="curve" smooth="yes"/>
      <point x="780.234375" y="722.046875"/>
      <point x="649.171875" y="895.828125"/>
    </contour>
  </outline>
</glyph>
<glyph name="six" format="2">
  <advance width="871"/>
  <unicode hex="0036"/>
  <outline>
    <contour>
      <point x="91" y="622" type="curve" smooth="yes"/>
      <point x="91" y="206"/>
      <point x="216" y="-21"/>
      <point x="449" y="-21" type="curve" smooth="yes"/>
      <point x="673" y="-21"/>
      <point x="786" y="185"/>
      <point x="786" y="461" type="curve" smooth="yes"/>
      <point x="786" y="720"/>
      <point x="688" y="922"/>
      <point x="485" y="922" type="curve" smooth="yes"/>
      <point x="372" y="922"/>
      <point x="292" y="852"/>
      <point x="251" y="753" type="curve"/>
      <point x="243" y="753" type="line"/>
      <point x="254" y="1142"/>
      <point x="365" y="1341"/>
      <point x="566" y="1341" type="curve" smooth="yes"/>
      <point x="620" y="1341"/>
      <point x="669" y="1333"/>
      <point x="712" y="1319" type="curve"/>
      <point x="712" y="1460" type="line"/>
      <point x="670" y="1474"/>
      <point x="618" y="1482"/>
      <point x="561" y="1482" type="curve" smooth="yes"/>
      <point x="231" y="1482"/>
      <point x="91" y="1176"/>
    </contour>
    <contour>
      <point x="447" y="121" type="curve" smooth="yes"/>
      <point x="300" y="121"/>
      <point x="253" y="352"/>
      <point x="253" y="518" type="curve" smooth="yes"/>
      <point x="253" y="659"/>
      <point x="320" y="781"/>
      <point x="448" y="781" type="curve" smooth="yes"/>
      <point x="569" y="781"/>
      <point x="629" y="668"/>
      <point x="629" y="458" type="curve" smooth="yes"/>
      <point x="629" y="232"/>
      <point x="561" y="121"/>
    </contour>
  </outline>
</glyph>
<glyph name="seven" format="2">
  <advance width="871.125"/>
  <unicode hex="0037"/>
  <outline>
    <contour>
      <point x="192.296875" y="0.0" type="line"/>
      <point x="357.734375" y="0.0" type="line"/>
      <point x="793.515625" y="1343.96875" type="line"/>
      <point x="793.515625" y="1462.0" type="line"/>
      <point x="65.953125" y="1462.0" type="line"/>
      <point x="65.953125" y="1316.59375" type="line"/>
      <point x="634.3125" y="1316.59375" type="line"/>
    </contour>
  </outline>
</glyph>
<glyph name="eight" format="2">
  <advance width="871.125"/>
  <unicode hex="0038"/>
  <outline>
    <contour>
      <point x="438.28125" y="1482.78125" type="curve" smooth="yes"/>
      <point x="236.359375" y="1482.78125"/>
      <point x="104.546875" y="1347.453125"/>
      <point x="104.546875" y="1141.40625" type="curve" smooth="yes"/>
      <point x="104.546875" y="992.34375"/>
      <point x="174.265625" y="870.21875"/>
      <point x="313.921875" y="763.53125" type="curve"/>
      <point x="151.34375" y="660.171875"/>
      <point x="70.4375" y="535.390625"/>
      <point x="70.4375" y="358.6875" type="curve" smooth="yes"/>
      <point x="70.4375" y="131.0"/>
      <point x="206.78125" y="-20.0"/>
      <point x="443.75" y="-20.0" type="curve" smooth="yes"/>
      <point x="661.875" y="-20.0"/>
      <point x="802.25" y="139.4375"/>
      <point x="802.25" y="368.921875" type="curve" smooth="yes"/>
      <point x="802.25" y="549.0"/>
      <point x="693.953125" y="660.640625"/>
      <point x="539.296875" y="765.09375" type="curve"/>
      <point x="691.984375" y="856.65625"/>
      <point x="769.46875" y="978.265625"/>
      <point x="769.46875" y="1142.75" type="curve" smooth="yes"/>
      <point x="769.46875" y="1349.78125"/>
      <point x="645.890625" y="1482.78125"/>
    </contour>
    <contour>
      <point x="226.078125" y="358.46875" type="curve" smooth="yes"/>
      <point x="226.078125" y="507.140625"/>
      <point x="282.953125" y="601.4375"/>
      <point x="421.265625" y="691.0" type="curve"/>
      <point x="460.953125" y="663.09375" type="line" smooth="yes"/>
      <point x="590.625" y="571.921875"/>
      <point x="644.828125" y="476.09375"/>
      <point x="644.828125" y="368.484375" type="curve" smooth="yes"/>
      <point x="644.828125" y="219.203125"/>
      <point x="573.21875" y="112.93749999999999"/>
      <point x="435.953125" y="112.93749999999999" type="curve" smooth="yes"/>
      <point x="301.890625" y="112.93749999999999"/>
      <point x="226.078125" y="215.234375"/>
    </contour>
    <contour>
      <point x="434.71875" y="1348.953125" type="curve" smooth="yes"/>
      <point x="547.875" y="1348.953125"/>
      <point x="613.828125" y="1267.328125"/>
      <point x="613.828125" y="1130.953125" type="curve" smooth="yes"/>
      <point x="613.828125" y="1007.515625"/>
      <point x="558.8125" y="922.171875"/>
      <point x="433.953125" y="841.515625" type="curve"/>
      <point x="317.90625" y="921.046875"/>
      <point x="258.40625" y="1004.0"/>
      <point x="258.40625" y="1131.390625" type="curve" smooth="yes"/>
      <point x="258.40625" y="1266.890625"/>
      <point x="327.03125" y="1348.953125"/>
    </contour>
  </outline>
</glyph>
<glyph name="nine" format="2">
  <advance width="871"/>
  <unicode hex="0039"/>
  <outline>
    <contour>
      <point x="771" y="851" type="curve" smooth="yes"/>
      <point x="771" y="1258"/>
      <point x="649" y="1483"/>
      <point x="423" y="1483" type="curve" smooth="yes"/>
      <point x="189" y="1483"/>
      <point x="77" y="1276"/>
      <point x="77" y="1000" type="curve" smooth="yes"/>
      <point x="77" y="741"/>
      <point x="172" y="540"/>
      <point x="379" y="540" type="curve" smooth="yes"/>
      <point x="491" y="540"/>
      <point x="570" y="609"/>
      <point x="612" y="708" type="curve"/>
      <point x="619" y="708" type="line"/>
      <point x="610" y="393"/>
      <point x="525" y="120"/>
      <point x="295" y="120" type="curve" smooth="yes"/>
      <point x="234" y="120"/>
      <point x="184" y="129"/>
      <point x="141" y="145" type="curve"/>
      <point x="141" y="1" type="line"/>
      <point x="180" y="-10"/>
      <point x="249" y="-20"/>
      <point x="298" y="-20" type="curve" smooth="yes"/>
      <point x="622" y="-20"/>
      <point x="771" y="292"/>
    </contour>
    <contour>
      <point x="422" y="1340" type="curve" smooth="yes"/>
      <point x="578" y="1340"/>
      <point x="611" y="1098"/>
      <point x="611" y="957" type="curve" smooth="yes"/>
      <point x="611" y="813"/>
      <point x="548" y="680"/>
      <point x="417" y="680" type="curve" smooth="yes"/>
      <point x="295" y="680"/>
      <point x="236" y="794"/>
      <point x="236" y="1004" type="curve" smooth="yes"/>
      <point x="236" y="1229"/>
      <point x="299" y="1340"/>
    </contour>
  </outline>
</glyph>
<glyph name="colon" format="2">
  <advance width="456"/>
  <unicode hex="003A"/>
  <outline>
    <contour>
      <point x="124" y="108" type="curve" smooth="yes"/>
      <point x="124" y="27"/>
      <point x="159" y="-17"/>
      <point x="228" y="-17" type="curve" smooth="yes"/>
      <point x="290" y="-17"/>
      <point x="332" y="23"/>
      <point x="332" y="108" type="curve" smooth="yes"/>
      <point x="332" y="194"/>
      <point x="293" y="232"/>
      <point x="228" y="232" type="curve" smooth="yes"/>
      <point x="158" y="232"/>
      <point x="124" y="188"/>
    </contour>
    <contour>
      <point x="124" y="979" type="curve" smooth="yes"/>
      <point x="124" y="897"/>
      <point x="160" y="853"/>
      <point x="228" y="853" type="curve" smooth="yes"/>
      <point x="289" y="853"/>
      <point x="332" y="894"/>
      <point x="332" y="980" type="curve" smooth="yes"/>
      <point x="332" y="1062"/>
      <point x="296" y="1104"/>
      <point x="228" y="1104" type="curve" smooth="yes"/>
      <point x="158" y="1104"/>
      <point x="124" y="1061"/>
    </contour>
  </outline>
</glyph>
<glyph name="semicolon" format="2">
  <advance width="455.515625"/>
  <unicode hex="003B"/>
  <outline>
    <contour>
      <point x="330.84375" y="230.15625" type="line"/>
      <point x="169.53125" y="230.15625" type="line"/>
      <point x="153.09375" y="81.515625"/>
      <point x="122.0625" y="-93.796875"/>
      <point x="74.4375" y="-269.34375" type="curve"/>
      <point x="192.25" y="-269.34375" type="line"/>
      <point x="256.59375" y="-122.5625"/>
      <point x="306.9375" y="40.53125"/>
      <point x="344.1875" y="207.609375" type="curve"/>
    </contour>
    <contour>
      <point x="125.1875" y="979.703125" type="curve" smooth="yes"/>
      <point x="125.1875" y="896.625"/>
      <point x="161.125" y="853.15625"/>
      <point x="228.84375" y="853.15625" type="curve" smooth="yes"/>
      <point x="289.78125" y="853.15625"/>
      <point x="333.5" y="894.40625"/>
      <point x="333.5" y="979.703125" type="curve" smooth="yes"/>
      <point x="333.5" y="1061.4375"/>
      <point x="297.125" y="1104.25"/>
      <point x="228.84375" y="1104.25" type="curve" smooth="yes"/>
      <point x="159.34375" y="1104.25"/>
      <point x="125.1875" y="1060.5625"/>
    </contour>
  </outline>
</glyph>
<glyph name="less" format="2">
  <advance width="874.0"/>
  <unicode hex="003C"/>
  <outline>
    <contour>
      <point x="812.109375" y="273.609375" type="line"/>
      <point x="812.109375" y="422.34375" type="line"/>
      <point x="233.890625" y="729.515625" type="line"/>
      <point x="812.109375" y="1030.671875" type="line"/>
      <point x="812.109375" y="1179.515625" type="line"/>
      <point x="59.0" y="777.34375" type="line"/>
      <point x="59.0" y="685.140625" type="line"/>
    </contour>
  </outline>
</glyph>
<glyph name="equal" format="2">
  <advance width="874.0"/>
  <unicode hex="003D"/>
  <outline>
    <contour>
      <point x="60.78125" y="874.921875" type="line"/>
      <point x="808.546875" y="874.921875" type="line"/>
      <point x="808.546875" y="1005.515625" type="line"/>
      <point x="60.78125" y="1005.515625" type="line"/>
    </contour>
    <contour>
      <point x="60.78125" y="436.703125" type="line"/>
      <point x="808.546875" y="436.703125" type="line"/>
      <point x="808.546875" y="566.296875" type="line"/>
      <point x="60.78125" y="566.296875" type="line"/>
    </contour>
  </outline>
</glyph>
<glyph name="greater" format="2">
  <advance width="874.0"/>
  <unicode hex="003E"/>
  <outline>
    <contour>
      <point x="60.78125" y="422.34375" type="line"/>
      <point x="60.78125" y="273.609375" type="line"/>
      <point x="813.890625" y="685.140625" type="line"/>
      <point x="813.890625" y="777.34375" type="line"/>
      <point x="60.78125" y="1179.515625" type="line"/>
      <point x="60.78125" y="1030.671875" type="line"/>
      <point x="640.328125" y="729.296875" type="line"/>
    </contour>
  </outline>
</glyph>
<glyph name="question" format="2">
  <advance width="639"/>
  <unicode hex="003F"/>
  <outline>
    <contour>
      <point x="198" y="405" type="line"/>
      <point x="322" y="405" type="line"/>
      <point x="322" y="446" type="line" smooth="yes"/>
      <point x="322" y="559"/>
      <point x="344" y="624"/>
      <point x="428" y="734" type="curve" smooth="yes"/>
      <point x="541" y="884"/>
      <point x="595" y="970"/>
      <point x="595" y="1148" type="curve" smooth="yes"/>
      <point x="595" y="1364"/>
      <point x="486" y="1483"/>
      <point x="290" y="1483" type="curve" smooth="yes"/>
      <point x="196" y="1483"/>
      <point x="108" y="1452"/>
      <point x="26" y="1392" type="curve"/>
      <point x="85" y="1270" type="line"/>
      <point x="151" y="1317"/>
      <point x="208" y="1342"/>
      <point x="283" y="1342" type="curve" smooth="yes"/>
      <point x="382" y="1342"/>
      <point x="441" y="1273"/>
      <point x="441" y="1136" type="curve" smooth="yes"/>
      <point x="441" y="1011"/>
      <point x="402" y="928"/>
      <point x="306" y="802" type="curve" smooth="yes"/>
      <point x="222" y="693"/>
      <point x="198" y="605"/>
      <point x="198" y="463" type="curve" smooth="yes"/>
    </contour>
    <contour>
      <point x="159" y="107" type="curve" smooth="yes"/>
      <point x="159" y="26"/>
      <point x="196" y="-17"/>
      <point x="262" y="-17" type="curve" smooth="yes"/>
      <point x="325" y="-17"/>
      <point x="367" y="22"/>
      <point x="367" y="108" type="curve" smooth="yes"/>
      <point x="367" y="195"/>
      <point x="327" y="232"/>
      <point x="262" y="232" type="curve" smooth="yes"/>
      <point x="195" y="232"/>
      <point x="159" y="188"/>
    </contour>
  </outline>
</glyph>
<glyph name="at" format="2">
  <advance width="1322"/>
  <unicode hex="0040"/>
  <outline>
    <contour>
      <point x="1229" y="736" type="curve" smooth="yes"/>
      <point x="1229" y="1147"/>
      <point x="1032" y="1474"/>
      <point x="696" y="1474" type="curve" smooth="yes"/>
      <point x="340" y="1478"/>
      <point x="99" y="1132"/>
      <point x="99" y="589" type="curve" smooth="yes"/>
      <point x="99" y="103"/>
      <point x="292" y="-174"/>
      <point x="645" y="-174" type="curve" smooth="yes"/>
      <point x="759" y="-174"/>
      <point x="845" y="-152"/>
      <point x="927" y="-107" type="curve"/>
      <point x="927" y="14" type="line"/>
      <point x="854" y="-30"/>
      <point x="749" y="-62"/>
      <point x="648" y="-62" type="curve" smooth="yes"/>
      <point x="355" y="-62"/>
      <point x="226" y="231"/>
      <point x="226" y="602" type="curve" smooth="yes"/>
      <point x="226" y="965"/>
      <point x="360" y="1363"/>
      <point x="695" y="1363" type="curve" smooth="yes"/>
      <point x="942" y="1365"/>
      <point x="1101" y="1111"/>
      <point x="1101" y="740" type="curve" smooth="yes"/>
      <point x="1101" y="467"/>
      <point x="1057" y="348"/>
      <point x="973" y="348" type="curve" smooth="yes"/>
      <point x="915" y="348"/>
      <point x="881" y="393"/>
      <point x="881" y="499" type="curve" smooth="yes"/>
      <point x="881" y="524"/>
      <point x="884" y="574"/>
      <point x="886" y="615" type="curve" smooth="yes"/>
      <point x="902" y="1036" type="line"/>
      <point x="843" y="1060"/>
      <point x="774" y="1072"/>
      <point x="708" y="1072" type="curve" smooth="yes"/>
      <point x="516" y="1072"/>
      <point x="409" y="905"/>
      <point x="409" y="601" type="curve" smooth="yes"/>
      <point x="409" y="365"/>
      <point x="487" y="231"/>
      <point x="624" y="231" type="curve" smooth="yes"/>
      <point x="709" y="231"/>
      <point x="765" y="291"/>
      <point x="795" y="421" type="curve"/>
      <point x="805" y="421" type="line"/>
      <point x="815" y="301"/>
      <point x="868" y="231"/>
      <point x="976" y="231" type="curve" smooth="yes"/>
      <point x="1137" y="231"/>
      <point x="1229" y="411"/>
    </contour>
    <contour>
      <point x="539" y="597" type="curve" smooth="yes"/>
      <point x="539" y="838"/>
      <point x="600" y="967"/>
      <point x="699" y="967" type="curve" smooth="yes"/>
      <point x="726" y="967"/>
      <point x="748" y="965"/>
      <point x="766" y="957" type="curve"/>
      <point x="752" y="686" type="line" smooth="yes"/>
      <point x="739" y="448"/>
      <point x="706" y="348"/>
      <point x="642" y="348" type="curve" smooth="yes"/>
      <point x="575" y="348"/>
      <point x="539" y="432"/>
    </contour>
  </outline>
</glyph>
<glyph name="A" format="2">
  <advance width="905.59375"/>
  <unicode hex="0041"/>
  <anchor x="444.0" y="0.0" name="bottom"/>
  <anchor x="451.125" y="1462.0" name="top"/>
  <anchor x="791.5625" y="1462.0" name="topright"/>
  <outline>
    <contour>
      <point x="736.8125" y="0.0" type="line"/>
      <point x="905.59375" y="0.0" type="line"/>
      <point x="546.234375" y="1462.0" type="line"/>
      <point x="353.34375" y="1462.0" type="line"/>
      <point x="0.0" y="0.0" type="line"/>
      <point x="169.671875" y="0.0" type="line"/>
      <point x="280.28125" y="469.90625" type="line"/>
      <point x="627.421875" y="469.90625" type="line"/>
    </contour>
    <contour>
      <point x="596.609375" y="617.203125" type="line"/>
      <point x="304.75" y="617.203125" type="line"/>
      <point x="413.90625" y="1114.953125" type="line" smooth="yes"/>
      <point x="430.015625" y="1185.84375"/>
      <point x="442.6875" y="1256.234375"/>
      <point x="449.34375" y="1319.6875" type="curve"/>
      <point x="457.78125" y="1256.234375"/>
      <point x="469.671875" y="1187.40625"/>
      <point x="484.78125" y="1113.171875" type="curve" smooth="yes"/>
    </contour>
  </outline>
</glyph>
<glyph name="B" format="2">
  <advance width="966.5"/>
  <unicode hex="0042"/>
  <anchor x="498.78125" y="0.0" name="bottom"/>
  <anchor x="497.0" y="1462.0" name="top"/>
  <anchor x="925.5" y="1462.0" name="topright"/>
  <outline>
    <contour>
      <point x="151.09375" y="1462.0" type="line"/>
      <point x="151.09375" y="0.0" type="line"/>
      <point x="516.890625" y="0.0" type="line" smooth="yes"/>
      <point x="754.8125" y="0.0"/>
      <point x="886.5" y="164.6875"/>
      <point x="886.5" y="418.140625" type="curve" smooth="yes"/>
      <point x="886.5" y="614.25"/>
      <point x="810.71875" y="727.21875"/>
      <point x="646.5" y="766.4375" type="curve"/>
      <point x="646.5" y="773.78125" type="line"/>
      <point x="783.953125" y="804.34375"/>
      <point x="857.28125" y="923.75"/>
      <point x="857.28125" y="1111.75" type="curve" smooth="yes"/>
      <point x="857.28125" y="1346.4375"/>
      <point x="723.671875" y="1462.0"/>
      <point x="469.828125" y="1462.0" type="curve" smooth="yes"/>
    </contour>
    <contour>
      <point x="310.078125" y="831.515625" type="line"/>
      <point x="310.078125" y="1325.5" type="line"/>
      <point x="464.984375" y="1325.5" type="line" smooth="yes"/>
      <point x="618.734375" y="1325.5"/>
      <point x="694.515625" y="1245.96875"/>
      <point x="694.515625" y="1097.5" type="curve" smooth="yes"/>
      <point x="694.515625" y="919.921875"/>
      <point x="625.796875" y="831.515625"/>
      <point x="468.296875" y="831.515625" type="curve" smooth="yes"/>
    </contour>
    <contour>
      <point x="310.078125" y="695.796875" type="line"/>
      <point x="479.640625" y="695.796875" type="line"/>
      <point x="631.140625" y="695.796875"/>
      <point x="721.84375" y="604.671875"/>
      <point x="721.84375" y="425.59375" type="curve" smooth="yes"/>
      <point x="721.84375" y="233.6875"/>
      <point x="645.25" y="139.171875"/>
      <point x="499.21875" y="139.171875" type="curve" smooth="yes"/>
      <point x="310.078125" y="139.171875" type="line"/>
    </contour>
  </outline>
</glyph>
<glyph name="C" format="2">
  <advance width="906.109375"/>
  <unicode hex="0043"/>
  <anchor x="544.921875" y="0.0" name="bottom"/>
  <anchor x="565.03125" y="1462.0" name="top"/>
  <anchor x="865.109375" y="1462.0" name="topright"/>
  <outline>
    <contour>
      <point x="596.46875" y="1340.265625" type="curve" smooth="yes"/>
      <point x="670.171875" y="1340.265625"/>
      <point x="737.5" y="1317.46875"/>
      <point x="799.828125" y="1278.25" type="curve"/>
      <point x="857.109375" y="1412.53125" type="line"/>
      <point x="774.640625" y="1460.4375"/>
      <point x="686.9375" y="1484.78125"/>
      <point x="591.125" y="1484.78125" type="curve" smooth="yes"/>
      <point x="259.59375" y="1484.78125"/>
      <point x="102.984375" y="1146.046875"/>
      <point x="102.984375" y="733.0" type="curve" smooth="yes"/>
      <point x="102.984375" y="260.875"/>
      <point x="290.3125" y="-20.0"/>
      <point x="588.4375" y="-20.0" type="curve" smooth="yes"/>
      <point x="680.6875" y="-20.0"/>
      <point x="760.46875" y="-1.5624999999999991"/>
      <point x="823.9375" y="34.78125" type="curve"/>
      <point x="823.9375" y="178.84375" type="line"/>
      <point x="761.5625" y="147.609375"/>
      <point x="689.34375" y="123.625"/>
      <point x="606.25" y="123.625" type="curve" smooth="yes"/>
      <point x="399.46875" y="123.625"/>
      <point x="268.421875" y="355.078125"/>
      <point x="268.421875" y="731.0" type="curve" smooth="yes"/>
      <point x="268.421875" y="1052.71875"/>
      <point x="362.71875" y="1340.265625"/>
    </contour>
  </outline>
</glyph>
<glyph name="D" format="2">
  <advance width="1047"/>
  <unicode hex="0044"/>
  <anchor x="488" y="0" name="bottom"/>
  <anchor x="529" y="736" name="center"/>
  <anchor x="514" y="1462" name="top"/>
  <anchor x="1006" y="1462" name="topright"/>
  <outline>
    <contour>
      <point x="945" y="749" type="curve" smooth="yes"/>
      <point x="945" y="1215"/>
      <point x="775" y="1462"/>
      <point x="450" y="1462" type="curve" smooth="yes"/>
      <point x="151" y="1462" type="line"/>
      <point x="151" y="0" type="line"/>
      <point x="438" y="0" type="line" smooth="yes"/>
      <point x="773" y="0"/>
      <point x="945" y="256"/>
    </contour>
    <contour>
      <point x="779" y="741" type="curve" smooth="yes"/>
      <point x="779" y="345"/>
      <point x="673" y="143"/>
      <point x="432" y="143" type="curve" smooth="yes"/>
      <point x="310" y="143" type="line"/>
      <point x="310" y="1320" type="line"/>
      <point x="444" y="1320" type="line" smooth="yes"/>
      <point x="669" y="1320"/>
      <point x="779" y="1123"/>
    </contour>
  </outline>
</glyph>
<glyph name="E" format="2">
  <advance width="818"/>
  <unicode hex="0045"/>
  <anchor x="449" y="0" name="bottom"/>
  <anchor x="442" y="1462" name="top"/>
  <anchor x="777" y="1462" name="topright"/>
  <outline>
    <contour>
      <point x="726" y="0" type="line"/>
      <point x="726" y="145" type="line"/>
      <point x="310" y="145" type="line"/>
      <point x="310" y="692" type="line"/>
      <point x="701" y="692" type="line"/>
      <point x="701" y="835" type="line"/>
      <point x="310" y="835" type="line"/>
      <point x="310" y="1320" type="line"/>
      <point x="726" y="1320" type="line"/>
      <point x="726" y="1462" type="line"/>
      <point x="151" y="1462" type="line"/>
      <point x="151" y="0" type="line"/>
    </contour>
  </outline>
</glyph>
<glyph name="F" format="2">
  <advance width="771.765625"/>
  <unicode hex="0046"/>
  <anchor x="385.828125" y="0.0" name="bottom"/>
  <anchor x="447.828125" y="1462.0" name="top"/>
  <anchor x="730.765625" y="1462.0" name="topright"/>
  <outline>
    <contour>
      <point x="310.078125" y="0.0" type="line"/>
      <point x="310.078125" y="630.359375" type="line"/>
      <point x="701.75" y="630.359375" type="line"/>
      <point x="701.75" y="773.984375" type="line"/>
      <point x="310.078125" y="773.984375" type="line"/>
      <point x="310.078125" y="1320.15625" type="line"/>
      <point x="725.859375" y="1320.15625" type="line"/>
      <point x="725.859375" y="1462.0" type="line"/>
      <point x="151.09375" y="1462.0" type="line"/>
      <point x="151.09375" y="0.0" type="line"/>
    </contour>
  </outline>
</glyph>
<glyph name="G" format="2">
  <advance width="1110"/>
  <unicode hex="0047"/>
  <anchor x="629" y="0" name="bottom"/>
  <anchor x="627" y="1462" name="top"/>
  <anchor x="1069" y="1462" name="topright"/>
  <outline>
    <contour>
      <point x="629" y="766" type="line"/>
      <point x="629" y="623" type="line"/>
      <point x="845" y="623" type="line"/>
      <point x="845" y="157" type="line"/>
      <point x="785" y="135"/>
      <point x="714" y="124"/>
      <point x="637" y="124" type="curve" smooth="yes"/>
      <point x="376" y="124"/>
      <point x="270" y="385"/>
      <point x="270" y="730" type="curve" smooth="yes"/>
      <point x="270" y="1122"/>
      <point x="403" y="1340"/>
      <point x="657" y="1340" type="curve" smooth="yes"/>
      <point x="747" y="1340"/>
      <point x="835" y="1312"/>
      <point x="926" y="1254" type="curve"/>
      <point x="983" y="1389" type="line"/>
      <point x="885" y="1451"/>
      <point x="774" y="1483"/>
      <point x="654" y="1483" type="curve" smooth="yes"/>
      <point x="283" y="1483"/>
      <point x="103" y="1172"/>
      <point x="103" y="734" type="curve" smooth="yes"/>
      <point x="103" y="302"/>
      <point x="265" y="-20"/>
      <point x="624" y="-20" type="curve" smooth="yes"/>
      <point x="753" y="-20"/>
      <point x="881" y="4"/>
      <point x="1000" y="51" type="curve"/>
      <point x="1000" y="766" type="line"/>
    </contour>
  </outline>
</glyph>
<glyph name="H" format="2">
  <advance width="1081.390625"/>
  <unicode hex="0048"/>
  <anchor x="541.640625" y="0.0" name="bottom"/>
  <anchor x="541.640625" y="731.0" name="center"/>
  <anchor x="543.421875" y="1462.0" name="top"/>
  <anchor x="1040.390625" y="1462.0" name="topright"/>
  <outline>
    <contour>
      <point x="932.1875" y="0.0" type="line"/>
      <point x="932.1875" y="1462.0" type="line"/>
      <point x="773.09375" y="1462.0" type="line"/>
      <point x="773.09375" y="836.859375" type="line"/>
      <point x="310.078125" y="836.859375" type="line"/>
      <point x="310.078125" y="1462.0" type="line"/>
      <point x="151.09375" y="1462.0" type="line"/>
      <point x="151.09375" y="0.0" type="line"/>
      <point x="310.078125" y="0.0" type="line"/>
      <point x="310.078125" y="692.234375" type="line"/>
      <point x="773.09375" y="692.234375" type="line"/>
      <point x="773.09375" y="0.0" type="line"/>
    </contour>
  </outline>
</glyph>
<glyph name="I" format="2">
  <advance width="458.28125"/>
  <unicode hex="0049"/>
  <anchor x="232.09375" y="0.0" name="bottom"/>
  <anchor x="230.3125" y="1462.0" name="top"/>
  <anchor x="417.28125" y="1462.0" name="topright"/>
  <outline>
    <contour>
      <point x="151.09375" y="0.0" type="line"/>
      <point x="309.859375" y="0.0" type="line"/>
      <point x="309.859375" y="1462.0" type="line"/>
      <point x="151.09375" y="1462.0" type="line"/>
    </contour>
  </outline>
</glyph>
<glyph name="J" format="2">
  <advance width="450.46875"/>
  <unicode hex="004A"/>
  <anchor x="32.34375" y="-352.03125" name="bottom"/>
  <anchor x="225.71875" y="1462.0" name="top"/>
  <anchor x="409.46875" y="1462.0" name="topright"/>
  <outline>
    <contour>
      <point x="32.34375" y="-390.953125" type="curve" smooth="yes"/>
      <point x="210.296875" y="-390.953125"/>
      <point x="305.15625" y="-286.265625"/>
      <point x="305.15625" y="-8.453125000000007" type="curve" smooth="yes"/>
      <point x="305.15625" y="1462.0" type="line"/>
      <point x="146.171875" y="1462.0" type="line"/>
      <point x="146.171875" y="5.546874999999993" type="line" smooth="yes"/>
      <point x="146.171875" y="-176.046875"/>
      <point x="108.484375" y="-247.109375"/>
      <point x="15.421875000000007" y="-247.109375" type="curve" smooth="yes"/>
      <point x="-27.359374999999993" y="-247.109375"/>
      <point x="-66.359375" y="-238.0"/>
      <point x="-99.125" y="-226.0" type="curve"/>
      <point x="-99.125" y="-368.734375" type="line"/>
      <point x="-60.56249999999999" y="-384.734375"/>
      <point x="-15.999999999999993" y="-390.953125"/>
    </contour>
  </outline>
</glyph>
<glyph name="K" format="2">
  <advance width="900"/>
  <unicode hex="004B"/>
  <anchor x="504" y="0" name="bottom"/>
  <anchor x="499" y="1462" name="top"/>
  <anchor x="859" y="1462" name="topright"/>
  <outline>
    <contour>
      <point x="908" y="0" type="line"/>
      <point x="524" y="816" type="line"/>
      <point x="889" y="1462" type="line"/>
      <point x="716" y="1462" type="line"/>
      <point x="421" y="930" type="line" smooth="yes"/>
      <point x="364" y="829"/>
      <point x="326" y="759"/>
      <point x="310" y="720" type="curve"/>
      <point x="310" y="1462" type="line"/>
      <point x="151" y="1462" type="line"/>
      <point x="151" y="0" type="line"/>
      <point x="310" y="0" type="line"/>
      <point x="310" y="556" type="line"/>
      <point x="416" y="686" type="line"/>
      <point x="730" y="0" type="line"/>
    </contour>
  </outline>
</glyph>
<glyph name="L" format="2">
  <advance width="753"/>
  <unicode hex="004C"/>
  <anchor x="436" y="0" name="bottom"/>
  <anchor x="378" y="731" name="center"/>
  <anchor x="230" y="1462" name="top"/>
  <anchor x="514" y="1462" name="topright"/>
  <outline>
    <contour>
      <point x="151" y="0" type="line"/>
      <point x="718" y="0" type="line"/>
      <point x="718" y="145" type="line"/>
      <point x="310" y="145" type="line"/>
      <point x="310" y="1462" type="line"/>
      <point x="151" y="1462" type="line"/>
    </contour>
  </outline>
</glyph>
<glyph name="M" format="2">
  <advance width="1455.234375"/>
  <unicode hex="004D"/>
  <anchor x="727.671875" y="0.0" name="bottom"/>
  <anchor x="731.234375" y="1462.0" name="top"/>
  <anchor x="1415.125" y="1462.0" name="topright"/>
  <outline>
    <contour>
      <point x="653.71875" y="0.0" type="line"/>
      <point x="799.625" y="0.0" type="line"/>
      <point x="1154.734375" y="1242.203125" type="line"/>
      <point x="1162.296875" y="1242.203125" type="line"/>
      <point x="1156.953125" y="1108.296875"/>
      <point x="1153.390625" y="1015.203125"/>
      <point x="1153.390625" y="960.6875" type="curve" smooth="yes"/>
      <point x="1153.390625" y="0.0" type="line"/>
      <point x="1308.921875" y="0.0" type="line"/>
      <point x="1308.921875" y="1462.0" type="line"/>
      <point x="1080.859375" y="1462.0" type="line"/>
      <point x="731.453125" y="245.90624999999997" type="line"/>
      <point x="725.453125" y="245.90624999999997" type="line"/>
      <point x="376.046875" y="1462.0" type="line"/>
      <point x="151.09375" y="1462.0" type="line"/>
      <point x="151.09375" y="0.0" type="line"/>
      <point x="302.0625" y="0.0" type="line"/>
      <point x="302.0625" y="965.125" type="line" smooth="yes"/>
      <point x="302.0625" y="1014.296875"/>
      <point x="298.5" y="1106.734375"/>
      <point x="290.9375" y="1242.421875" type="curve"/>
      <point x="298.5" y="1242.421875" type="line"/>
    </contour>
  </outline>
</glyph>
<glyph name="N" format="2">
  <advance width="1150.453125"/>
  <unicode hex="004E"/>
  <anchor x="574.78125" y="0.0" name="bottom"/>
  <anchor x="574.78125" y="1462.0" name="top"/>
  <anchor x="1109.453125" y="1462.0" name="topright"/>
  <outline>
    <contour>
      <point x="1002.25" y="0.0" type="line"/>
      <point x="1002.25" y="1462.0" type="line"/>
      <point x="850.390625" y="1462.0" type="line"/>
      <point x="850.390625" y="562.484375" type="line" smooth="yes"/>
      <point x="850.390625" y="486.453125"/>
      <point x="854.171875" y="387.359375"/>
      <point x="859.515625" y="269.53125" type="curve"/>
      <point x="853.734375" y="269.53125" type="line"/>
      <point x="343.234375" y="1462.0" type="line"/>
      <point x="151.09375" y="1462.0" type="line"/>
      <point x="151.09375" y="0.0" type="line"/>
      <point x="302.0625" y="0.0" type="line"/>
      <point x="302.0625" y="921.609375" type="line" smooth="yes"/>
      <point x="302.0625" y="1009.0"/>
      <point x="298.5" y="1103.71875"/>
      <point x="291.15625" y="1210.375" type="curve"/>
      <point x="298.71875" y="1210.375" type="line"/>
      <point x="809.4375" y="0.0" type="line"/>
    </contour>
  </outline>
</glyph>
<glyph name="O" format="2">
  <advance width="1117.359375"/>
  <unicode hex="004F"/>
  <anchor x="558.734375" y="0.0" name="bottom"/>
  <anchor x="558.734375" y="731.0" name="center"/>
  <anchor x="558.734375" y="1462.0" name="top"/>
  <anchor x="1076.359375" y="1462.0" name="topright"/>
  <outline>
    <contour>
      <point x="1016.15625" y="733.0" type="curve" smooth="yes"/>
      <point x="1016.15625" y="1154.53125"/>
      <point x="889.34375" y="1483.0"/>
      <point x="560.734375" y="1483.0" type="curve" smooth="yes"/>
      <point x="258.0" y="1483.0"/>
      <point x="102.984375" y="1234.78125"/>
      <point x="102.984375" y="734.78125" type="curve" smooth="yes"/>
      <point x="102.984375" y="322.828125"/>
      <point x="223.9375" y="-20.0"/>
      <point x="560.734375" y="-20.0" type="curve" smooth="yes"/>
      <point x="892.078125" y="-20.0"/>
      <point x="1016.15625" y="313.953125"/>
    </contour>
    <contour>
      <point x="268.203125" y="733.0" type="curve" smooth="yes"/>
      <point x="268.203125" y="1129.6875"/>
      <point x="364.71875" y="1338.484375"/>
      <point x="560.734375" y="1338.484375" type="curve" smooth="yes"/>
      <point x="751.75" y="1338.484375"/>
      <point x="848.265625" y="1133.90625"/>
      <point x="848.265625" y="733.0" type="curve" smooth="yes"/>
      <point x="848.265625" y="327.65625"/>
      <point x="749.96875" y="125.40624999999999"/>
      <point x="558.953125" y="125.40624999999999" type="curve" smooth="yes"/>
      <point x="369.59375" y="125.40624999999999"/>
      <point x="268.203125" y="334.421875"/>
    </contour>
  </outline>
</glyph>
<glyph name="P" format="2">
  <advance width="896.28125"/>
  <unicode hex="0050"/>
  <anchor x="449.640625" y="0.0" name="bottom"/>
  <anchor x="463.890625" y="1462.0" name="top"/>
  <anchor x="855.28125" y="1462.0" name="topright"/>
  <outline>
    <contour>
      <point x="412.5625" y="1462.0" type="curve" smooth="yes"/>
      <point x="151.09375" y="1462.0" type="line"/>
      <point x="151.09375" y="0.0" type="line"/>
      <point x="310.078125" y="0.0" type="line"/>
      <point x="310.078125" y="575.34375" type="line"/>
      <point x="409.0" y="575.34375" type="line" smooth="yes"/>
      <point x="693.140625" y="575.34375"/>
      <point x="832.734375" y="733.078125"/>
      <point x="832.734375" y="1033.609375" type="curve" smooth="yes"/>
      <point x="832.734375" y="1326.828125"/>
      <point x="698.609375" y="1462.0"/>
    </contour>
    <contour>
      <point x="407.0" y="1321.9375" type="line" smooth="yes"/>
      <point x="586.90625" y="1321.9375"/>
      <point x="669.96875" y="1239.0625"/>
      <point x="669.96875" y="1032.046875" type="curve" smooth="yes"/>
      <point x="669.96875" y="806.703125"/>
      <point x="589.34375" y="716.296875"/>
      <point x="395.28125" y="716.296875" type="curve" smooth="yes"/>
      <point x="310.078125" y="716.296875" type="line"/>
      <point x="310.078125" y="1321.9375" type="line"/>
    </contour>
  </outline>
</glyph>
<glyph name="Q" format="2">
  <advance width="1117.359375"/>
  <unicode hex="0051"/>
  <anchor x="558.734375" y="-309.93749999999994" name="bottom"/>
  <anchor x="558.734375" y="1462.0" name="top"/>
  <anchor x="1076.359375" y="1462.0" name="topright"/>
  <outline>
    <contour>
      <point x="1016.15625" y="733.0" type="curve" smooth="yes"/>
      <point x="1016.15625" y="1232.0625"/>
      <point x="852.59375" y="1483.0"/>
      <point x="561.71875" y="1483.0" type="curve" smooth="yes"/>
      <point x="257.78125" y="1483.0"/>
      <point x="102.984375" y="1234.78125"/>
      <point x="102.984375" y="735.0" type="curve" smooth="yes"/>
      <point x="102.984375" y="328.140625"/>
      <point x="223.0" y="-20.0"/>
      <point x="551.390625" y="-20.0" type="curve" smooth="yes"/>
      <point x="564.15625" y="-20.0"/>
      <point x="583.265625" y="-18.21875"/>
      <point x="593.34375" y="-16.0" type="curve"/>
      <point x="773.15625" y="-348.0" type="line"/>
      <point x="962.1875" y="-348.0" type="line"/>
      <point x="743.203125" y="22.046874999999996" type="line"/>
      <point x="919.171875" y="111.09375"/>
      <point x="1016.15625" y="352.671875"/>
    </contour>
    <contour>
      <point x="268.203125" y="733.21875" type="curve" smooth="yes"/>
      <point x="268.203125" y="1129.46875"/>
      <point x="364.171875" y="1338.484375"/>
      <point x="561.71875" y="1338.484375" type="curve" smooth="yes"/>
      <point x="751.3125" y="1338.484375"/>
      <point x="848.265625" y="1134.5625"/>
      <point x="848.265625" y="733.0" type="curve" smooth="yes"/>
      <point x="848.265625" y="328.203125"/>
      <point x="750.1875" y="125.40624999999999"/>
      <point x="558.734375" y="125.40624999999999" type="curve" smooth="yes"/>
      <point x="369.375" y="125.40624999999999"/>
      <point x="268.203125" y="334.203125"/>
    </contour>
  </outline>
</glyph>
<glyph name="R" format="2">
  <advance width="931.203125"/>
  <unicode hex="0052"/>
  <anchor x="487.4375" y="0.0" name="bottom"/>
  <anchor x="470.109375" y="1462.0" name="top"/>
  <anchor x="890.203125" y="1462.0" name="topright"/>
  <outline>
    <contour>
      <point x="401.21875" y="1462.0" type="curve" smooth="yes"/>
      <point x="151.09375" y="1462.0" type="line"/>
      <point x="151.09375" y="0.0" type="line"/>
      <point x="310.078125" y="0.0" type="line"/>
      <point x="310.078125" y="617.140625" type="line"/>
      <point x="462.515625" y="617.140625" type="line"/>
      <point x="726.78125" y="0.0" type="line"/>
      <point x="903.5625" y="0.0" type="line"/>
      <point x="607.25" y="656.859375" type="line"/>
      <point x="766.328125" y="725.6875"/>
      <point x="834.734375" y="856.6875"/>
      <point x="834.734375" y="1053.625" type="curve" smooth="yes"/>
      <point x="834.734375" y="1329.703125"/>
      <point x="696.859375" y="1462.0"/>
    </contour>
    <contour>
      <point x="402.34375" y="1318.375" type="line" smooth="yes"/>
      <point x="588.65625" y="1318.375"/>
      <point x="672.1875" y="1238.40625"/>
      <point x="672.1875" y="1046.046875" type="curve" smooth="yes"/>
      <point x="672.1875" y="847.953125"/>
      <point x="582.359375" y="751.296875"/>
      <point x="423.734375" y="751.296875" type="curve" smooth="yes"/>
      <point x="310.078125" y="751.296875" type="line"/>
      <point x="310.078125" y="1318.375" type="line"/>
    </contour>
  </outline>
</glyph>
<glyph name="S" format="2">
  <advance width="840.640625"/>
  <unicode hex="0053"/>
  <anchor x="399.0" y="0.0" name="bottom"/>
  <anchor x="437.296875" y="1462.0" name="top"/>
  <anchor x="799.640625" y="1462.0" name="topright"/>
  <outline>
    <contour>
      <point x="761.546875" y="398.59375" type="curve" smooth="yes"/>
      <point x="761.546875" y="592.40625"/>
      <point x="669.25" y="706.515625"/>
      <point x="478.796875" y="806.515625" type="curve" smooth="yes"/>
      <point x="311.859375" y="896.765625"/>
      <point x="249.96875" y="951.515625"/>
      <point x="249.96875" y="1107.09375" type="curve" smooth="yes"/>
      <point x="249.96875" y="1239.75"/>
      <point x="329.03125" y="1333.140625"/>
      <point x="463.25" y="1333.140625" type="curve" smooth="yes"/>
      <point x="535.171875" y="1333.140625"/>
      <point x="614.71875" y="1311.453125"/>
      <point x="696.5" y="1266.890625" type="curve"/>
      <point x="748.78125" y="1412.53125" type="line"/>
      <point x="675.078125" y="1450.65625"/>
      <point x="571.28125" y="1483.0"/>
      <point x="459.6875" y="1483.0" type="curve" smooth="yes"/>
      <point x="241.78125" y="1484.78125"/>
      <point x="85.3125" y="1328.609375"/>
      <point x="88.875" y="1099.96875" type="curve" smooth="yes"/>
      <point x="88.875" y="867.859375"/>
      <point x="198.9375" y="777.828125"/>
      <point x="370.96875" y="684.921875" type="curve" smooth="yes"/>
      <point x="540.28125" y="596.046875"/>
      <point x="600.453125" y="531.140625"/>
      <point x="600.453125" y="384.34375" type="curve" smooth="yes"/>
      <point x="600.453125" y="242.8125"/>
      <point x="518.703125" y="129.1875"/>
      <point x="374.265625" y="129.1875" type="curve" smooth="yes"/>
      <point x="282.703125" y="129.1875"/>
      <point x="168.6875" y="155.859375"/>
      <point x="78.875" y="206.671875" type="curve"/>
      <point x="78.875" y="41.6875" type="line"/>
      <point x="164.21875" y="-0.4375000000000018"/>
      <point x="265.09375" y="-20.0"/>
      <point x="379.609375" y="-20.0" type="curve" smooth="yes"/>
      <point x="610.5" y="-20.0"/>
      <point x="761.546875" y="150.390625"/>
    </contour>
  </outline>
</glyph>
<glyph name="T" format="2">
  <advance width="770"/>
  <unicode hex="0054"/>
  <anchor x="386" y="0" name="bottom"/>
  <anchor x="386" y="731" name="center"/>
  <anchor x="386" y="1462" name="top"/>
  <anchor x="729" y="1462" name="topright"/>
  <outline>
    <contour>
      <point x="463" y="0" type="line"/>
      <point x="463" y="1318" type="line"/>
      <point x="749" y="1318" type="line"/>
      <point x="749" y="1462" type="line"/>
      <point x="19" y="1462" type="line"/>
      <point x="19" y="1318" type="line"/>
      <point x="304" y="1318" type="line"/>
      <point x="304" y="0" type="line"/>
    </contour>
  </outline>
</glyph>
<glyph name="U" format="2">
  <advance width="1060.90625"/>
  <unicode hex="0055"/>
  <anchor x="534.515625" y="0.0" name="bottom"/>
  <anchor x="530.953125" y="1462.0" name="top"/>
  <anchor x="1019.90625" y="1462.0" name="topright"/>
  <outline>
    <contour>
      <point x="922.8125" y="1462.0" type="line"/>
      <point x="762.046875" y="1462.0" type="line"/>
      <point x="762.046875" y="456.5625" type="line" smooth="yes"/>
      <point x="762.046875" y="216.28125"/>
      <point x="682.6875" y="125.40624999999999"/>
      <point x="532.734375" y="125.40624999999999" type="curve" smooth="yes"/>
      <point x="382.25" y="125.40624999999999"/>
      <point x="297.1875" y="219.8125"/>
      <point x="297.1875" y="454.78125" type="curve" smooth="yes"/>
      <point x="297.1875" y="1462.0" type="line"/>
      <point x="138.09375" y="1462.0" type="line"/>
      <point x="138.09375" y="455.578125" type="line" smooth="yes"/>
      <point x="138.09375" y="129.90625"/>
      <point x="275.5625" y="-20.0"/>
      <point x="532.734375" y="-20.0" type="curve" smooth="yes"/>
      <point x="785.515625" y="-20.0"/>
      <point x="922.8125" y="122.515625"/>
      <point x="922.8125" y="457.359375" type="curve" smooth="yes"/>
    </contour>
  </outline>
</glyph>
<glyph name="V" format="2">
  <advance width="886"/>
  <unicode hex="0056"/>
  <anchor x="441" y="0" name="bottom"/>
  <anchor x="448" y="1462" name="top"/>
  <anchor x="845" y="1462" name="topright"/>
  <outline>
    <contour>
      <point x="886" y="1462" type="line"/>
      <point x="720" y="1462" type="line"/>
      <point x="491" y="455" type="line" smooth="yes"/>
      <point x="470" y="365"/>
      <point x="453" y="267"/>
      <point x="441" y="181" type="curve"/>
      <point x="429" y="267"/>
      <point x="412" y="367"/>
      <point x="393" y="452" type="curve" smooth="yes"/>
      <point x="166" y="1462" type="line"/>
      <point x="0" y="1462" type="line"/>
      <point x="349" y="0" type="line"/>
      <point x="533" y="0" type="line"/>
    </contour>
  </outline>
</glyph>
<glyph name="W" format="2">
  <advance width="1457"/>
  <unicode hex="0057"/>
  <anchor x="729" y="0" name="bottom"/>
  <anchor x="729" y="1462" name="top"/>
  <anchor x="1416" y="1462" name="topright"/>
  <outline>
    <contour>
      <point x="1449" y="1462" type="line"/>
      <point x="1288" y="1462" type="line"/>
      <point x="1101" y="537" type="line" smooth="yes"/>
      <point x="1081" y="435"/>
      <point x="1060" y="312"/>
      <point x="1044" y="183" type="curve"/>
      <point x="1027" y="320"/>
      <point x="1009" y="430"/>
      <point x="988" y="535" type="curve" smooth="yes"/>
      <point x="804" y="1462" type="line"/>
      <point x="654" y="1462" type="line"/>
      <point x="467" y="533" type="line" smooth="yes"/>
      <point x="449" y="432"/>
      <point x="426" y="299"/>
      <point x="410" y="184" type="curve"/>
      <point x="402" y="266"/>
      <point x="380" y="394"/>
      <point x="353" y="537" type="curve" smooth="yes"/>
      <point x="169" y="1462" type="line"/>
      <point x="8" y="1462" type="line"/>
      <point x="312" y="0" type="line"/>
      <point x="500" y="0" type="line"/>
      <point x="688" y="958" type="line" smooth="yes"/>
      <point x="707" y="1048"/>
      <point x="717" y="1144"/>
      <point x="728" y="1234" type="curve"/>
      <point x="745" y="1099"/>
      <point x="758" y="1007"/>
      <point x="767" y="956" type="curve" smooth="yes"/>
      <point x="958" y="0" type="line"/>
      <point x="1148" y="0" type="line"/>
    </contour>
  </outline>
</glyph>
<glyph name="X" format="2">
  <advance width="804"/>
  <unicode hex="0058"/>
  <anchor x="402" y="0" name="bottom"/>
  <anchor x="413" y="1462" name="top"/>
  <anchor x="763" y="1462" name="topright"/>
  <outline>
    <contour>
      <point x="791" y="0" type="line"/>
      <point x="504" y="753" type="line"/>
      <point x="778" y="1462" type="line"/>
      <point x="611" y="1462" type="line"/>
      <point x="413" y="905" type="line"/>
      <point x="218" y="1462" type="line"/>
      <point x="53" y="1462" type="line"/>
      <point x="324" y="764" type="line"/>
      <point x="15" y="0" type="line"/>
      <point x="180" y="0" type="line"/>
      <point x="411" y="610" type="line"/>
      <point x="620" y="0" type="line"/>
    </contour>
  </outline>
</glyph>
<glyph name="Y" format="2">
  <advance width="786"/>
  <unicode hex="0059"/>
  <anchor x="393" y="0" name="bottom"/>
  <anchor x="393" y="1462" name="top"/>
  <anchor x="745" y="1462" name="topright"/>
  <outline>
    <contour>
      <point x="394" y="760" type="line"/>
      <point x="166" y="1462" type="line"/>
      <point x="0" y="1462" type="line"/>
      <point x="313" y="565" type="line"/>
      <point x="313" y="0" type="line"/>
      <point x="472" y="0" type="line"/>
      <point x="472" y="569" type="line"/>
      <point x="786" y="1462" type="line"/>
      <point x="619" y="1462" type="line"/>
    </contour>
  </outline>
</glyph>
<glyph name="Z" format="2">
  <advance width="731"/>
  <unicode hex="005A"/>
  <anchor x="377" y="0" name="bottom"/>
  <anchor x="367" y="1462" name="top"/>
  <anchor x="690" y="1462" name="topright"/>
  <outline>
    <contour>
      <point x="690" y="0" type="line"/>
      <point x="690" y="145" type="line"/>
      <point x="223" y="145" type="line"/>
      <point x="677" y="1336" type="line"/>
      <point x="677" y="1462" type="line"/>
      <point x="63" y="1462" type="line"/>
      <point x="63" y="1318" type="line"/>
      <point x="506" y="1318" type="line"/>
      <point x="53" y="124" type="line"/>
      <point x="53" y="0" type="line"/>
    </contour>
  </outline>
</glyph>
<glyph name="bracketleft" format="2">
  <advance width="637.6875"/>
  <unicode hex="005B"/>
  <outline>
    <contour>
      <point x="572.59375" y="-329.34375" type="line"/>
      <point x="572.59375" y="-199.1875" type="line"/>
      <point x="296.03125" y="-199.1875" type="line"/>
      <point x="296.03125" y="1343.53125" type="line"/>
      <point x="572.59375" y="1343.53125" type="line"/>
      <point x="572.59375" y="1473.578125" type="line"/>
      <point x="149.734375" y="1473.578125" type="line"/>
      <point x="149.734375" y="-329.34375" type="line"/>
    </contour>
  </outline>
</glyph>
<glyph name="backslash" format="2">
  <advance width="750"/>
  <unicode hex="005C"/>
  <outline>
    <contour>
      <point x="183" y="1467" type="line"/>
      <point x="39" y="1467" type="line"/>
      <point x="573" y="-5" type="line"/>
      <point x="720" y="-5" type="line"/>
    </contour>
  </outline>
</glyph>
<glyph name="bracketright" format="2">
  <advance width="637.6875"/>
  <unicode hex="005D"/>
  <outline>
    <contour>
      <point x="64.203125" y="-199.1875" type="line"/>
      <point x="64.203125" y="-329.34375" type="line"/>
      <point x="487.953125" y="-329.34375" type="line"/>
      <point x="487.953125" y="1473.578125" type="line"/>
      <point x="64.203125" y="1473.578125" type="line"/>
      <point x="64.203125" y="1343.53125" type="line"/>
      <point x="341.546875" y="1343.53125" type="line"/>
      <point x="341.546875" y="-199.1875" type="line"/>
    </contour>
  </outline>
</glyph>
<glyph name="asciicircum" format="2">
  <advance width="894.5"/>
  <unicode hex="005E"/>
  <outline>
    <contour>
      <point x="31.65625" y="688.96875" type="line"/>
      <point x="180.15625" y="688.96875" type="line"/>
      <point x="449.171875" y="1263.1875" type="line"/>
      <point x="714.34375" y="688.96875" type="line"/>
      <point x="865.734375" y="688.96875" type="line"/>
      <point x="495.65625" y="1460.0" type="line"/>
      <point x="402.125" y="1460.0" type="line"/>
    </contour>
  </outline>
</glyph>
<glyph name="underscore" format="2">
  <advance width="884.9375"/>
  <unicode hex="005F"/>
  <outline>
    <contour>
      <point x="888.9375" y="-292.546875" type="line"/>
      <point x="888.9375" y="-171.75" type="line"/>
      <point x="-4.0" y="-171.75" type="line"/>
      <point x="-4.0" y="-292.546875" type="line"/>
    </contour>
  </outline>
</glyph>
<glyph name="grave" format="2">
  <advance width="535.8125"/>
  <unicode hex="0060"/>
  <outline>
    <contour>
      <point x="266.125" y="1568.34375" type="curve"/>
      <point x="82.0" y="1568.34375" type="line"/>
      <point x="82.0" y="1549.78125" type="line"/>
      <point x="136.640625" y="1460.03125"/>
      <point x="273.34375" y="1311.875"/>
      <point x="354.90625" y="1241.0" type="curve"/>
      <point x="453.8125" y="1241.0" type="line"/>
      <point x="453.8125" y="1264.0" type="line"/>
      <point x="394.296875" y="1341.078125"/>
      <point x="312.296875" y="1472.265625"/>
    </contour>
  </outline>
</glyph>
<glyph name="a" format="2">
  <advance width="840.84375"/>
  <unicode hex="0061"/>
  <anchor x="418.125" y="0.0" name="bottom"/>
  <anchor x="431.109375" y="1097.703125" name="top"/>
  <anchor x="766.890625" y="1097.703125" name="topright"/>
  <outline>
    <contour>
      <point x="427.90625" y="1117.8125" type="curve" smooth="yes"/>
      <point x="327.734375" y="1117.8125"/>
      <point x="233.484375" y="1091.921875"/>
      <point x="149.671875" y="1039.34375" type="curve"/>
      <point x="199.390625" y="923.09375" type="line"/>
      <point x="277.171875" y="968.984375"/>
      <point x="344.171875" y="990.21875"/>
      <point x="404.75" y="990.21875" type="curve" smooth="yes"/>
      <point x="512.46875" y="990.21875"/>
      <point x="556.78125" y="912.4375"/>
      <point x="556.78125" y="735.90625" type="curve" smooth="yes"/>
      <point x="556.78125" y="661.296875" type="line"/>
      <point x="431.78125" y="653.421875" type="line" smooth="yes"/>
      <point x="201.4375" y="641.671875"/>
      <point x="70.875" y="519.078125"/>
      <point x="70.875" y="302.296875" type="curve" smooth="yes"/>
      <point x="70.875" y="131.25"/>
      <point x="145.546875" y="-20.0"/>
      <point x="315.765625" y="-20.0" type="curve" smooth="yes"/>
      <point x="435.140625" y="-20.0"/>
      <point x="512.734375" y="42.57812500000001"/>
      <point x="566.125" y="156.15625" type="curve"/>
      <point x="570.125" y="156.15625" type="line"/>
      <point x="592.609375" y="0.0" type="line"/>
      <point x="710.421875" y="0.0" type="line"/>
      <point x="710.421875" y="740.125" type="line" smooth="yes"/>
      <point x="710.421875" y="984.96875"/>
      <point x="631.1875" y="1117.8125"/>
    </contour>
    <contour>
      <point x="558.78125" y="548.28125" type="line"/>
      <point x="558.78125" y="435.859375" type="line" smooth="yes"/>
      <point x="558.78125" y="229.28125"/>
      <point x="487.765625" y="105.15624999999999"/>
      <point x="367.421875" y="105.15624999999999" type="curve" smooth="yes"/>
      <point x="279.59375" y="105.15624999999999"/>
      <point x="228.078125" y="168.890625"/>
      <point x="228.078125" y="305.859375" type="curve" smooth="yes"/>
      <point x="228.078125" y="453.796875"/>
      <point x="301.59375" y="530.984375"/>
      <point x="457.390625" y="541.40625" type="curve" smooth="yes"/>
    </contour>
  </outline>
</glyph>
<glyph name="b" format="2">
  <advance width="937.46875"/>
  <unicode hex="0062"/>
  <anchor x="498.125" y="0.0" name="bottom"/>
  <anchor x="494.09375" y="1556.0" name="top"/>
  <anchor x="827.015625" y="1556.0" name="topright"/>
  <outline>
    <contour>
      <point x="288.0625" y="1556.0" type="line"/>
      <point x="134.3125" y="1556.0" type="line"/>
      <point x="134.3125" y="0.0" type="line"/>
      <point x="259.25" y="0.0" type="line"/>
      <point x="280.9375" y="145.5625" type="line"/>
      <point x="290.28125" y="145.5625" type="line"/>
      <point x="349.09375" y="33.484375"/>
      <point x="428.875" y="-20.0"/>
      <point x="537.375" y="-20.0" type="curve" smooth="yes"/>
      <point x="740.8125" y="-20.0"/>
      <point x="852.59375" y="182.46875"/>
      <point x="852.59375" y="551.0" type="curve" smooth="yes"/>
      <point x="852.59375" y="920.796875"/>
      <point x="741.90625" y="1116.03125"/>
      <point x="533.125" y="1116.03125" type="curve" smooth="yes"/>
      <point x="427.3125" y="1116.03125"/>
      <point x="345.234375" y="1058.0"/>
      <point x="290.0625" y="943.28125" type="curve"/>
      <point x="282.5" y="943.28125" type="line"/>
      <point x="284.5" y="1002.328125"/>
      <point x="288.0625" y="1054.890625"/>
      <point x="288.0625" y="1098.109375" type="curve" smooth="yes"/>
    </contour>
    <contour>
      <point x="500.171875" y="981.3125" type="curve" smooth="yes"/>
      <point x="636.3125" y="981.3125"/>
      <point x="695.390625" y="836.25"/>
      <point x="695.390625" y="552.78125" type="curve" smooth="yes"/>
      <point x="695.390625" y="251.328125"/>
      <point x="630.5625" y="113.15624999999999"/>
      <point x="500.859375" y="113.15624999999999" type="curve" smooth="yes"/>
      <point x="360.21875" y="113.15624999999999"/>
      <point x="288.0625" y="244.8125"/>
      <point x="288.0625" y="521.953125" type="curve" smooth="yes"/>
      <point x="288.0625" y="569.046875" type="line" smooth="yes"/>
      <point x="288.0625" y="806.984375"/>
      <point x="332.203125" y="981.3125"/>
    </contour>
  </outline>
</glyph>
<glyph name="c" format="2">
  <advance width="703.34375"/>
  <unicode hex="0063"/>
  <anchor x="439.515625" y="0.0" name="bottom"/>
  <anchor x="425.78125" y="1097.703125" name="top"/>
  <anchor x="643.640625" y="1097.703125" name="topright"/>
  <outline>
    <contour>
      <point x="450.921875" y="-20.0" type="curve" smooth="yes"/>
      <point x="511.265625" y="-20.0"/>
      <point x="593.078125" y="-0.8750000000000018"/>
      <point x="648.765625" y="34.265625" type="curve"/>
      <point x="648.765625" y="163.96875" type="line"/>
      <point x="587.078125" y="132.0625"/>
      <point x="525.84375" y="114.71874999999999"/>
      <point x="467.609375" y="114.71874999999999" type="curve" smooth="yes"/>
      <point x="319.390625" y="114.71874999999999"/>
      <point x="246.1875" y="260.609375"/>
      <point x="246.1875" y="542.921875" type="curve" smooth="yes"/>
      <point x="246.1875" y="832.140625"/>
      <point x="323.0" y="981.3125"/>
      <point x="467.46875" y="981.3125" type="curve" smooth="yes"/>
      <point x="514.25" y="981.3125"/>
      <point x="562.59375" y="966.75"/>
      <point x="612.0625" y="941.1875" type="curve"/>
      <point x="660.5625" y="1068.34375" type="line"/>
      <point x="604.203125" y="1100.359375"/>
      <point x="539.171875" y="1117.8125"/>
      <point x="456.5625" y="1117.8125" type="curve" smooth="yes"/>
      <point x="209.625" y="1117.8125"/>
      <point x="88.875" y="902.78125"/>
      <point x="88.875" y="540.921875" type="curve" smooth="yes"/>
      <point x="88.875" y="170.40625"/>
      <point x="208.34375" y="-20.0"/>
    </contour>
  </outline>
</glyph>
<glyph name="d" format="2">
  <advance width="937.46875"/>
  <unicode hex="0064"/>
  <anchor x="461.203125" y="0.0" name="bottom"/>
  <anchor x="468.734375" y="548.125" name="center"/>
  <anchor x="394.78125" y="1556.0" name="top"/>
  <anchor x="861.734375" y="1556.0" name="topright"/>
  <outline>
    <contour>
      <point x="407.015625" y="-20.0" type="curve" smooth="yes"/>
      <point x="519.578125" y="-20.0"/>
      <point x="596.234375" y="42.765625"/>
      <point x="651.515625" y="147.53125" type="curve"/>
      <point x="660.859375" y="147.53125" type="line"/>
      <point x="682.21875" y="0.0" type="line"/>
      <point x="805.15625" y="0.0" type="line"/>
      <point x="805.15625" y="1556.0" type="line"/>
      <point x="651.515625" y="1556.0" type="line"/>
      <point x="651.515625" y="1099.9375" type="line" smooth="yes"/>
      <point x="651.515625" y="1056.71875"/>
      <point x="653.515625" y="1010.15625"/>
      <point x="657.296875" y="949.359375" type="curve"/>
      <point x="649.734375" y="949.359375" type="line"/>
      <point x="598.234375" y="1054.03125"/>
      <point x="508.453125" y="1117.8125"/>
      <point x="401.765625" y="1117.8125" type="curve" smooth="yes"/>
      <point x="200.09375" y="1117.8125"/>
      <point x="86.875" y="913.46875"/>
      <point x="86.875" y="546.265625" type="curve" smooth="yes"/>
      <point x="86.875" y="176.90625"/>
      <point x="197.0" y="-20.0"/>
    </contour>
    <contour>
      <point x="441.296875" y="111.15624999999999" type="curve" smooth="yes"/>
      <point x="304.9375" y="111.15624999999999"/>
      <point x="244.40625" y="260.203125"/>
      <point x="244.40625" y="546.265625" type="curve" smooth="yes"/>
      <point x="244.40625" y="827.921875"/>
      <point x="305.015625" y="981.3125"/>
      <point x="438.5" y="981.3125" type="curve" smooth="yes"/>
      <point x="584.578125" y="981.3125"/>
      <point x="651.515625" y="848.484375"/>
      <point x="651.515625" y="570.1875" type="curve" smooth="yes"/>
      <point x="651.515625" y="494.859375" type="line" smooth="yes"/>
      <point x="651.515625" y="240.859375"/>
      <point x="579.453125" y="111.15624999999999"/>
    </contour>
  </outline>
</glyph>
<glyph name="e" format="2">
  <advance width="847"/>
  <unicode hex="0065"/>
  <anchor x="464" y="0" name="bottom"/>
  <anchor x="429" y="1098" name="top"/>
  <anchor x="806" y="1098" name="topright"/>
  <outline>
    <contour>
      <point x="436" y="1116" type="curve" smooth="yes"/>
      <point x="207" y="1116"/>
      <point x="89" y="911"/>
      <point x="89" y="543" type="curve" smooth="yes"/>
      <point x="89" y="220"/>
      <point x="198" y="-20"/>
      <point x="473" y="-20" type="curve" smooth="yes"/>
      <point x="566" y="-20"/>
      <point x="648" y="2"/>
      <point x="724" y="49" type="curve"/>
      <point x="724" y="187" type="line"/>
      <point x="643" y="133"/>
      <point x="568" y="111"/>
      <point x="490" y="111" type="curve" smooth="yes"/>
      <point x="324" y="111"/>
      <point x="244" y="248"/>
      <point x="241" y="522" type="curve"/>
      <point x="764" y="522" type="line"/>
      <point x="764" y="631" type="line" smooth="yes"/>
      <point x="764" y="900"/>
      <point x="660" y="1116"/>
    </contour>
    <contour>
      <point x="436" y="990" type="curve" smooth="yes"/>
      <point x="564" y="990"/>
      <point x="620" y="831"/>
      <point x="620" y="645" type="curve"/>
      <point x="243" y="645" type="line"/>
      <point x="253" y="880"/>
      <point x="320" y="990"/>
    </contour>
  </outline>
</glyph>
<glyph name="g" format="2">
  <advance width="790.03125"/>
  <unicode hex="0067"/>
  <anchor x="361.96875" y="-492.4375" name="bottom"/>
  <anchor x="383.25" y="1098.59375" name="top"/>
  <anchor x="798.15625" y="1097.703125" name="topright"/>
  <outline>
    <contour>
      <point x="350.53125" y="-492.0" type="curve" smooth="yes"/>
      <point x="623.078125" y="-492.0"/>
      <point x="772.34375" y="-354.09375"/>
      <point x="772.34375" y="-113.828125" type="curve" smooth="yes"/>
      <point x="772.34375" y="78.96875"/>
      <point x="680.328125" y="173.421875"/>
      <point x="515.75" y="173.421875" type="curve"/>
      <point x="357.8125" y="173.421875" type="line"/>
      <point x="282.25" y="173.421875"/>
      <point x="240.703125" y="210.84375"/>
      <point x="240.703125" y="269.9375" type="curve" smooth="yes"/>
      <point x="240.703125" y="332.015625"/>
      <point x="272.578125" y="372.65625"/>
      <point x="309.21875" y="406.078125" type="curve"/>
      <point x="327.4375" y="400.078125"/>
      <point x="352.109375" y="397.078125"/>
      <point x="381.34375" y="397.078125" type="curve" smooth="yes"/>
      <point x="574.640625" y="397.078125"/>
      <point x="687.125" y="533.859375"/>
      <point x="687.125" y="759.328125" type="curve" smooth="yes"/>
      <point x="687.125" y="837.859375"/>
      <point x="670.46875" y="917.8125"/>
      <point x="633.15625" y="977.90625" type="curve"/>
      <point x="779.6875" y="995.59375" type="line"/>
      <point x="779.6875" y="1095.03125" type="line"/>
      <point x="508.265625" y="1095.03125" type="line"/>
      <point x="479.59375" y="1108.25"/>
      <point x="441.140625" y="1117.921875"/>
      <point x="381.671875" y="1117.921875" type="curve" smooth="yes"/>
      <point x="188.8125" y="1117.921875"/>
      <point x="75.0" y="975.59375"/>
      <point x="75.0" y="753.453125" type="curve" smooth="yes"/>
      <point x="75.0" y="607.796875"/>
      <point x="126.5625" y="489.453125"/>
      <point x="212.671875" y="438.0" type="curve"/>
      <point x="149.0" y="382.21875"/>
      <point x="112.4375" y="323.015625"/>
      <point x="112.4375" y="248.0" type="curve" smooth="yes"/>
      <point x="112.4375" y="174.328125"/>
      <point x="150.5625" y="118.65625"/>
      <point x="206.6875" y="92.65625" type="curve"/>
      <point x="92.78125" y="61.09375"/>
      <point x="14.328125" y="-37.90625"/>
      <point x="14.328125" y="-188.09375" type="curve" smooth="yes"/>
      <point x="14.328125" y="-380.21875"/>
      <point x="141.578125" y="-492.0"/>
    </contour>
    <contour>
      <point x="362.65625" y="-370.421875" type="curve" smooth="yes"/>
      <point x="237.921875" y="-370.421875"/>
      <point x="160.171875" y="-304.234375"/>
      <point x="160.171875" y="-173.75" type="curve" smooth="yes"/>
      <point x="160.171875" y="-24.171874999999996"/>
      <point x="232.453125" y="31.921875000000007"/>
      <point x="324.515625" y="31.921875000000007" type="curve"/>
      <point x="455.875" y="31.921875000000007" type="line"/>
      <point x="561.546875" y="31.921875000000007"/>
      <point x="625.71875" y="0.7187500000000044"/>
      <point x="625.71875" y="-128.984375" type="curve" smooth="yes"/>
      <point x="625.71875" y="-290.234375"/>
      <point x="537.296875" y="-370.421875"/>
    </contour>
    <contour>
      <point x="382.453125" y="511.3125" type="curve" smooth="yes"/>
      <point x="280.609375" y="511.3125"/>
      <point x="229.640625" y="597.609375"/>
      <point x="229.640625" y="751.5625" type="curve" smooth="yes"/>
      <point x="229.640625" y="911.734375"/>
      <point x="286.71875" y="1005.46875"/>
      <point x="380.453125" y="1005.46875" type="curve" smooth="yes"/>
      <point x="476.296875" y="1005.46875"/>
      <point x="533.375" y="923.390625"/>
      <point x="533.375" y="754.78125" type="curve" smooth="yes"/>
      <point x="533.375" y="595.390625"/>
      <point x="477.515625" y="511.3125"/>
    </contour>
  </outline>
</glyph>
<glyph name="h" format="2">
  <advance width="923"/>
  <unicode hex="0068"/>
  <anchor x="469" y="0" name="bottom"/>
  <anchor x="463" y="548" name="center"/>
  <anchor x="212" y="1556" name="top"/>
  <anchor x="832" y="1556" name="topright"/>
  <outline>
    <contour>
      <point x="288" y="1556" type="line"/>
      <point x="134" y="1556" type="line"/>
      <point x="134" y="0" type="line"/>
      <point x="288" y="0" type="line"/>
      <point x="288" y="575" type="line" smooth="yes"/>
      <point x="288" y="854"/>
      <point x="354" y="980"/>
      <point x="495" y="980" type="curve" smooth="yes"/>
      <point x="596" y="980"/>
      <point x="639" y="905"/>
      <point x="639" y="716" type="curve" smooth="yes"/>
      <point x="639" y="0" type="line"/>
      <point x="793" y="0" type="line"/>
      <point x="793" y="746" type="line" smooth="yes"/>
      <point x="793" y="989"/>
      <point x="711" y="1118"/>
      <point x="527" y="1118" type="curve" smooth="yes"/>
      <point x="418" y="1118"/>
      <point x="328" y="1050"/>
      <point x="288" y="943" type="curve"/>
      <point x="277" y="943" type="line"/>
      <point x="285" y="991"/>
      <point x="288" y="1045"/>
      <point x="288" y="1104" type="curve" smooth="yes"/>
    </contour>
  </outline>
</glyph>
<glyph name="i" format="2">
  <advance width="424.34375"/>
  <unicode hex="0069"/>
  <anchor x="214.953125" y="0.0" name="bottom"/>
  <anchor x="213.171875" y="1509.71875" name="top"/>
  <anchor x="383.453125" y="1509.71875" name="topright"/>
  <outline>
    <contour>
      <point x="289.375" y="1097.703125" type="line"/>
      <point x="135.734375" y="1097.703125" type="line"/>
      <point x="135.734375" y="0.0" type="line"/>
      <point x="289.375" y="0.0" type="line"/>
    </contour>
    <contour>
      <point x="215.390625" y="1509.71875" type="curve" smooth="yes"/>
      <point x="154.796875" y="1509.71875"/>
      <point x="122.3125" y="1470.046875"/>
      <point x="122.3125" y="1396.96875" type="curve" smooth="yes"/>
      <point x="122.3125" y="1327.015625"/>
      <point x="157.125" y="1285.109375"/>
      <point x="215.171875" y="1285.109375" type="curve" smooth="yes"/>
      <point x="274.0" y="1285.109375"/>
      <point x="304.796875" y="1326.578125"/>
      <point x="304.796875" y="1397.1875" type="curve" smooth="yes"/>
      <point x="304.796875" y="1467.59375"/>
      <point x="276.65625" y="1509.71875"/>
    </contour>
  </outline>
</glyph>
<glyph name="k" format="2">
  <advance width="800.265625"/>
  <unicode hex="006B"/>
  <anchor x="428.1875" y="0.0" name="bottom"/>
  <anchor x="212.078125" y="1556.0" name="top"/>
  <anchor x="788.65625" y="1556.0" name="topright"/>
  <outline>
    <contour>
      <point x="288.0625" y="1556.0" type="line"/>
      <point x="134.3125" y="1556.0" type="line"/>
      <point x="134.3125" y="0.0" type="line"/>
      <point x="288.0625" y="0.0" type="line"/>
      <point x="288.0625" y="407.453125" type="line"/>
      <point x="404.34375" y="551.75" type="line"/>
      <point x="627.171875" y="0.0" type="line"/>
      <point x="791.5" y="0.0" type="line"/>
      <point x="507.921875" y="675.78125" type="line"/>
      <point x="772.625" y="1097.703125" type="line"/>
      <point x="606.859375" y="1097.703125" type="line"/>
      <point x="355.515625" y="680.1875" type="line" smooth="yes"/>
      <point x="330.625" y="641.1875"/>
      <point x="308.71875" y="600.375"/>
      <point x="286.28125" y="555.375" type="curve"/>
      <point x="278.9375" y="555.375" type="line"/>
      <point x="284.5" y="629.5625"/>
      <point x="288.0625" y="701.78125"/>
      <point x="288.0625" y="779.078125" type="curve" smooth="yes"/>
    </contour>
  </outline>
</glyph>
<glyph name="l" format="2">
  <advance width="420"/>
  <unicode hex="006C"/>
  <anchor x="212" y="0" name="bottom"/>
  <anchor x="210" y="550" name="center"/>
  <anchor x="212" y="1556" name="top"/>
  <anchor x="331" y="1556" name="topright"/>
  <outline>
    <contour>
      <point x="288" y="0" type="line"/>
      <point x="288" y="1556" type="line"/>
      <point x="134" y="1556" type="line"/>
      <point x="134" y="0" type="line"/>
    </contour>
  </outline>
</glyph>
<glyph name="m" format="2">
  <advance width="1380.375"/>
  <unicode hex="006D"/>
  <anchor x="692.015625" y="0.0" name="bottom"/>
  <anchor x="712.0625" y="1097.703125" name="top"/>
  <anchor x="1306.421875" y="1097.703125" name="topright"/>
  <outline>
    <contour>
      <point x="995.671875" y="1117.8125" type="curve" smooth="yes"/>
      <point x="873.03125" y="1117.8125"/>
      <point x="802.234375" y="1058.546875"/>
      <point x="752.328125" y="937.328125" type="curve"/>
      <point x="740.984375" y="937.328125" type="line"/>
      <point x="717.1875" y="1041.3125"/>
      <point x="645.375" y="1117.8125"/>
      <point x="518.84375" y="1117.8125" type="curve" smooth="yes"/>
      <point x="404.03125" y="1117.8125"/>
      <point x="325.640625" y="1052.9375"/>
      <point x="284.0625" y="942.015625" type="curve"/>
      <point x="274.609375" y="942.015625" type="line"/>
      <point x="257.03125" y="1097.703125" type="line"/>
      <point x="134.3125" y="1097.703125" type="line"/>
      <point x="134.3125" y="0.0" type="line"/>
      <point x="288.0625" y="0.0" type="line"/>
      <point x="288.0625" y="587.578125" type="line" smooth="yes"/>
      <point x="288.0625" y="815.015625"/>
      <point x="325.21875" y="981.53125"/>
      <point x="473.421875" y="981.53125" type="curve" smooth="yes"/>
      <point x="567.640625" y="981.53125"/>
      <point x="616.03125" y="909.75"/>
      <point x="616.03125" y="714.53125" type="curve" smooth="yes"/>
      <point x="616.03125" y="0.0" type="line"/>
      <point x="767.890625" y="0.0" type="line"/>
      <point x="767.890625" y="616.0625" type="line" smooth="yes"/>
      <point x="767.890625" y="852.890625"/>
      <point x="821.375" y="981.53125"/>
      <point x="953.59375" y="981.53125" type="curve" smooth="yes"/>
      <point x="1046.25" y="981.53125"/>
      <point x="1096.421875" y="905.3125"/>
      <point x="1096.421875" y="713.015625" type="curve" smooth="yes"/>
      <point x="1096.421875" y="0.0" type="line"/>
      <point x="1250.0625" y="0.0" type="line"/>
      <point x="1250.0625" y="740.171875" type="line" smooth="yes"/>
      <point x="1250.0625" y="995.21875"/>
      <point x="1167.625" y="1117.8125"/>
    </contour>
  </outline>
</glyph>
<glyph name="n" format="2">
  <advance width="923.28125"/>
  <unicode hex="006E"/>
  <anchor x="463.421875" y="0.0" name="bottom"/>
  <anchor x="475.890625" y="1097.703125" name="top"/>
  <anchor x="849.328125" y="1097.703125" name="topright"/>
  <outline>
    <contour>
      <point x="528.6875" y="1117.8125" type="curve" smooth="yes"/>
      <point x="417.234375" y="1117.8125"/>
      <point x="328.765625" y="1049.375"/>
      <point x="283.84375" y="939.0625" type="curve"/>
      <point x="274.390625" y="939.0625" type="line"/>
      <point x="257.25" y="1097.703125" type="line"/>
      <point x="134.3125" y="1097.703125" type="line"/>
      <point x="134.3125" y="0.0" type="line"/>
      <point x="288.0625" y="0.0" type="line"/>
      <point x="288.0625" y="578.21875" type="line" smooth="yes"/>
      <point x="288.0625" y="860.234375"/>
      <point x="351.953125" y="981.53125"/>
      <point x="495.734375" y="981.53125" type="curve" smooth="yes"/>
      <point x="595.046875" y="981.53125"/>
      <point x="639.21875" y="893.75"/>
      <point x="639.21875" y="716.828125" type="curve" smooth="yes"/>
      <point x="639.21875" y="0.0" type="line"/>
      <point x="792.859375" y="0.0" type="line"/>
      <point x="792.859375" y="747.515625" type="line" smooth="yes"/>
      <point x="792.859375" y="999.0"/>
      <point x="701.734375" y="1117.8125"/>
    </contour>
  </outline>
</glyph>
<glyph name="o" format="2">
  <advance width="901.59375"/>
  <unicode hex="006F"/>
  <anchor x="452.296875" y="0.0" name="bottom"/>
  <anchor x="452.296875" y="549.90625" name="center"/>
  <anchor x="450.515625" y="1097.703125" name="top"/>
  <anchor x="860.59375" y="1097.703125" name="topright"/>
  <outline>
    <contour>
      <point x="814.71875" y="549.90625" type="curve" smooth="yes"/>
      <point x="814.71875" y="921.734375"/>
      <point x="685.078125" y="1117.8125"/>
      <point x="452.296875" y="1117.8125" type="curve" smooth="yes"/>
      <point x="202.34375" y="1117.8125"/>
      <point x="86.875" y="912.5625"/>
      <point x="86.875" y="550.34375" type="curve" smooth="yes"/>
      <point x="86.875" y="202.296875"/>
      <point x="208.5625" y="-20.0"/>
      <point x="449.171875" y="-20.0" type="curve" smooth="yes"/>
      <point x="700.03125" y="-20.0"/>
      <point x="814.71875" y="203.421875"/>
    </contour>
    <contour>
      <point x="244.078125" y="550.34375" type="curve" smooth="yes"/>
      <point x="244.078125" y="837.71875"/>
      <point x="305.15625" y="983.09375"/>
      <point x="452.296875" y="983.09375" type="curve" smooth="yes"/>
      <point x="595.75" y="983.09375"/>
      <point x="659.296875" y="836.40625"/>
      <point x="659.296875" y="550.125" type="curve" smooth="yes"/>
      <point x="659.296875" y="258.015625"/>
      <point x="594.21875" y="114.71874999999999"/>
      <point x="452.515625" y="114.71874999999999" type="curve" smooth="yes"/>
      <point x="307.59375" y="114.71874999999999"/>
      <point x="244.078125" y="263.328125"/>
    </contour>
  </outline>
</glyph>
<glyph name="p" format="2">
  <advance width="937.25"/>
  <unicode hex="0070"/>
  <anchor x="210.296875" y="-490.140625" name="bottom"/>
  <anchor x="505.25" y="1097.703125" name="top"/>
  <anchor x="896.25" y="1097.703125" name="topright"/>
  <outline>
    <contour>
      <point x="531.125" y="1117.8125" type="curve" smooth="yes"/>
      <point x="423.921875" y="1117.8125"/>
      <point x="343.453125" y="1057.84375"/>
      <point x="287.078125" y="936.546875" type="curve"/>
      <point x="277.734375" y="936.546875" type="line"/>
      <point x="258.8125" y="1097.703125" type="line"/>
      <point x="134.3125" y="1097.703125" type="line"/>
      <point x="134.3125" y="-490.140625" type="line"/>
      <point x="288.0625" y="-490.140625" type="line"/>
      <point x="288.0625" y="8.312500000000007" type="line" smooth="yes"/>
      <point x="288.0625" y="51.93750000000001"/>
      <point x="284.28125" y="101.484375"/>
      <point x="280.5" y="154.875" type="curve"/>
      <point x="288.28125" y="154.875" type="line"/>
      <point x="336.546875" y="48.4375"/>
      <point x="426.359375" y="-20.0"/>
      <point x="539.375" y="-20.0" type="curve" smooth="yes"/>
      <point x="738.953125" y="-20.0"/>
      <point x="852.375" y="184.28125"/>
      <point x="852.375" y="551.21875" type="curve" smooth="yes"/>
      <point x="852.375" y="929.125"/>
      <point x="741.03125" y="1117.8125"/>
    </contour>
    <contour>
      <point x="497.953125" y="984.875" type="curve" smooth="yes"/>
      <point x="639.21875" y="984.875"/>
      <point x="695.390625" y="837.71875"/>
      <point x="695.390625" y="549.4375" type="curve" smooth="yes"/>
      <point x="695.390625" y="249.28125"/>
      <point x="627.828125" y="114.71874999999999"/>
      <point x="499.515625" y="114.71874999999999" type="curve" smooth="yes"/>
      <point x="359.09375" y="114.71874999999999"/>
      <point x="288.0625" y="248.203125"/>
      <point x="288.0625" y="532.71875" type="curve" smooth="yes"/>
      <point x="288.0625" y="585.53125" type="line" smooth="yes"/>
      <point x="288.0625" y="853.78125"/>
      <point x="357.5625" y="984.875"/>
    </contour>
  </outline>
</glyph>
<glyph name="q" format="2">
  <advance width="937.03125"/>
  <unicode hex="0071"/>
  <anchor x="726.953125" y="-490.140625" name="bottom"/>
  <anchor x="468.515625" y="1097.703125" name="top"/>
  <anchor x="861.296875" y="1097.703125" name="topright"/>
  <outline>
    <contour>
      <point x="651.078125" y="-490.140625" type="line"/>
      <point x="804.71875" y="-490.140625" type="line"/>
      <point x="804.71875" y="1097.703125" type="line"/>
      <point x="676.4375" y="1097.703125" type="line"/>
      <point x="658.859375" y="945.25" type="line"/>
      <point x="649.515625" y="945.25" type="line"/>
      <point x="594.234375" y="1063.125"/>
      <point x="517.359375" y="1117.8125"/>
      <point x="408.875" y="1117.8125" type="curve" smooth="yes"/>
      <point x="206.78125" y="1117.8125"/>
      <point x="86.875" y="922.171875"/>
      <point x="86.875" y="543.359375" type="curve" smooth="yes"/>
      <point x="86.875" y="173.34375"/>
      <point x="201.4375" y="-20.0"/>
      <point x="401.546875" y="-20.0" type="curve" smooth="yes"/>
      <point x="512.484375" y="-20.0"/>
      <point x="594.265625" y="41.92187500000001"/>
      <point x="651.078125" y="161.765625" type="curve"/>
      <point x="658.859375" y="161.765625" type="line"/>
      <point x="653.078125" y="82.28125000000001"/>
      <point x="651.078125" y="17.187500000000014"/>
      <point x="651.078125" y="-26.281249999999993" type="curve" smooth="yes"/>
    </contour>
    <contour>
      <point x="444.296875" y="114.71874999999999" type="curve" smooth="yes"/>
      <point x="310.546875" y="114.71874999999999"/>
      <point x="244.078125" y="244.78125"/>
      <point x="244.078125" y="541.578125" type="curve" smooth="yes"/>
      <point x="244.078125" y="826.390625"/>
      <point x="305.015625" y="981.09375"/>
      <point x="439.15625" y="981.09375" type="curve" smooth="yes"/>
      <point x="584.140625" y="981.09375"/>
      <point x="651.078125" y="849.578125"/>
      <point x="651.078125" y="564.921875" type="curve" smooth="yes"/>
      <point x="651.078125" y="494.78125" type="line" smooth="yes"/>
      <point x="651.078125" y="246.640625"/>
      <point x="577.921875" y="114.71874999999999"/>
    </contour>
  </outline>
</glyph>
<glyph name="r" format="2">
  <advance width="613.59375"/>
  <unicode hex="0072"/>
  <anchor x="219.203125" y="0.0" name="bottom"/>
  <anchor x="349.9375" y="1097.703125" name="top"/>
  <anchor x="572.59375" y="1097.703125" name="topright"/>
  <outline>
    <contour>
      <point x="500.8125" y="1117.375" type="curve" smooth="yes"/>
      <point x="400.328125" y="1117.375"/>
      <point x="329.859375" y="1027.9375"/>
      <point x="284.71875" y="903.015625" type="curve"/>
      <point x="275.375" y="903.015625" type="line"/>
      <point x="253.6875" y="1097.703125" type="line"/>
      <point x="134.3125" y="1097.703125" type="line"/>
      <point x="134.3125" y="0.0" type="line"/>
      <point x="288.0625" y="0.0" type="line"/>
      <point x="288.0625" y="572.34375" type="line" smooth="yes"/>
      <point x="286.28125" y="786.90625"/>
      <point x="369.515625" y="958.28125"/>
      <point x="490.125" y="958.28125" type="curve" smooth="yes"/>
      <point x="520.015625" y="958.28125"/>
      <point x="547.34375" y="953.625"/>
      <point x="571.46875" y="943.84375" type="curve"/>
      <point x="594.59375" y="1102.390625" type="line"/>
      <point x="562.03125" y="1113.15625"/>
      <point x="531.375" y="1117.375"/>
    </contour>
  </outline>
</glyph>
<glyph name="s" format="2">
  <advance width="687.984375"/>
  <unicode hex="0073"/>
  <anchor x="323.453125" y="0.0" name="bottom"/>
  <anchor x="361.75" y="1097.703125" name="top"/>
  <anchor x="629.171875" y="1097.703125" name="topright"/>
  <outline>
    <contour>
      <point x="622.4375" y="290.296875" type="curve" smooth="yes"/>
      <point x="622.4375" y="459.390625"/>
      <point x="529.34375" y="537.09375"/>
      <point x="393.453125" y="622.875" type="curve" smooth="yes"/>
      <point x="264.234375" y="701.3125"/>
      <point x="216.71875" y="744.390625"/>
      <point x="216.71875" y="835.78125" type="curve" smooth="yes"/>
      <point x="216.71875" y="927.578125"/>
      <point x="278.21875" y="986.65625"/>
      <point x="374.703125" y="986.65625" type="curve" smooth="yes"/>
      <point x="441.59375" y="986.65625"/>
      <point x="506.25" y="962.3125"/>
      <point x="561.9375" y="923.96875" type="curve"/>
      <point x="620.0" y="1048.453125" type="line"/>
      <point x="546.515625" y="1094.140625"/>
      <point x="465.390625" y="1117.8125"/>
      <point x="373.140625" y="1117.8125" type="curve" smooth="yes"/>
      <point x="190.265625" y="1117.8125"/>
      <point x="69.3125" y="1003.265625"/>
      <point x="69.3125" y="831.546875" type="curve" smooth="yes"/>
      <point x="69.3125" y="663.53125"/>
      <point x="162.625" y="582.84375"/>
      <point x="299.734375" y="498.625" type="curve" smooth="yes"/>
      <point x="422.40625" y="427.96875"/>
      <point x="470.359375" y="377.625"/>
      <point x="470.359375" y="285.390625" type="curve" smooth="yes"/>
      <point x="470.359375" y="180.015625"/>
      <point x="411.9375" y="118.49999999999999"/>
      <point x="309.90625" y="118.49999999999999" type="curve" smooth="yes"/>
      <point x="220.34375" y="118.49999999999999"/>
      <point x="127.65625" y="152.953125"/>
      <point x="68.65625" y="201.296875" type="curve"/>
      <point x="68.65625" y="41.21875" type="line"/>
      <point x="128.125" y="6.656250000000002"/>
      <point x="213.46875" y="-20.0"/>
      <point x="315.25" y="-20.0" type="curve" smooth="yes"/>
      <point x="510.390625" y="-20.0"/>
      <point x="622.4375" y="91.5625"/>
    </contour>
  </outline>
</glyph>
<glyph name="t" format="2">
  <advance width="518.84375"/>
  <unicode hex="0074"/>
  <anchor x="320.3125" y="0.0" name="bottom"/>
  <anchor x="260.421875" y="548.125" name="center"/>
  <anchor x="236.34375" y="1347.453125" name="top"/>
  <anchor x="476.0625" y="1347.453125" name="topright"/>
  <outline>
    <contour>
      <point x="391.84375" y="116.28124999999999" type="curve" smooth="yes"/>
      <point x="312.515625" y="116.28124999999999"/>
      <point x="291.625" y="171.9375"/>
      <point x="291.625" y="285.125" type="curve" smooth="yes"/>
      <point x="291.625" y="968.546875" type="line"/>
      <point x="477.59375" y="968.546875" type="line"/>
      <point x="477.59375" y="1097.703125" type="line"/>
      <point x="291.625" y="1097.703125" type="line"/>
      <point x="291.625" y="1347.453125" type="line"/>
      <point x="186.28125" y="1347.453125" type="line"/>
      <point x="144.5625" y="1094.359375" type="line"/>
      <point x="35.875" y="1052.75" type="line"/>
      <point x="35.875" y="968.546875" type="line"/>
      <point x="137.875" y="968.546875" type="line"/>
      <point x="137.875" y="267.296875" type="line" smooth="yes"/>
      <point x="137.875" y="74.90625"/>
      <point x="199.828125" y="-20.0"/>
      <point x="342.640625" y="-20.0" type="curve" smooth="yes"/>
      <point x="402.125" y="-20.0"/>
      <point x="448.9375" y="-8.4375"/>
      <point x="490.078125" y="10.6875" type="curve"/>
      <point x="490.078125" y="136.5" type="line"/>
      <point x="458.5" y="124.49999999999999"/>
      <point x="425.0625" y="116.28124999999999"/>
    </contour>
  </outline>
</glyph>
<glyph name="u" format="2">
  <advance width="923"/>
  <unicode hex="0075"/>
  <anchor x="446" y="0" name="bottom"/>
  <anchor x="463" y="1098" name="top"/>
  <anchor x="842" y="1098" name="topright"/>
  <outline>
    <contour>
      <point x="789" y="1098" type="line"/>
      <point x="635" y="1098" type="line"/>
      <point x="635" y="509" type="line" smooth="yes"/>
      <point x="635" y="243"/>
      <point x="577" y="118"/>
      <point x="424" y="118" type="curve" smooth="yes"/>
      <point x="329" y="118"/>
      <point x="284" y="209"/>
      <point x="284" y="406" type="curve" smooth="yes"/>
      <point x="284" y="1098" type="line"/>
      <point x="130" y="1098" type="line"/>
      <point x="130" y="377" type="line" smooth="yes"/>
      <point x="130" y="132"/>
      <point x="203" y="-20"/>
      <point x="396" y="-20" type="curve" smooth="yes"/>
      <point x="509" y="-20"/>
      <point x="593" y="47"/>
      <point x="638" y="156" type="curve"/>
      <point x="649" y="156" type="line"/>
      <point x="666" y="0" type="line"/>
      <point x="789" y="0" type="line"/>
    </contour>
  </outline>
</glyph>
<glyph name="v" format="2">
  <advance width="741"/>
  <unicode hex="0076"/>
  <anchor x="370" y="0" name="bottom"/>
  <anchor x="372" y="1098" name="top"/>
  <anchor x="700" y="1098" name="topright"/>
  <outline>
    <contour>
      <point x="283" y="0" type="line"/>
      <point x="454" y="0" type="line"/>
      <point x="733" y="1098" type="line"/>
      <point x="575" y="1098" type="line"/>
      <point x="413" y="393" type="line" smooth="yes"/>
      <point x="392" y="304"/>
      <point x="378" y="229"/>
      <point x="372" y="177" type="curve"/>
      <point x="364" y="177" type="line"/>
      <point x="351" y="268"/>
      <point x="335" y="351"/>
      <point x="317" y="431" type="curve" smooth="yes"/>
      <point x="166" y="1098" type="line"/>
      <point x="8" y="1098" type="line"/>
    </contour>
  </outline>
</glyph>
<glyph name="w" format="2">
  <advance width="1218"/>
  <unicode hex="0077"/>
  <anchor x="606" y="0" name="bottom"/>
  <anchor x="608" y="1098" name="top"/>
  <anchor x="1177" y="1098" name="topright"/>
  <outline>
    <contour>
      <point x="781" y="0" type="line"/>
      <point x="958" y="0" type="line"/>
      <point x="1200" y="1098" type="line"/>
      <point x="1050" y="1098" type="line"/>
      <point x="910" y="420" type="line" smooth="yes"/>
      <point x="891" y="325"/>
      <point x="880" y="250"/>
      <point x="874" y="190" type="curve"/>
      <point x="868" y="190" type="line"/>
      <point x="848" y="328"/>
      <point x="831" y="441"/>
      <point x="814" y="517" type="curve" smooth="yes"/>
      <point x="696" y="1098" type="line"/>
      <point x="525" y="1098" type="line"/>
      <point x="406" y="520" type="line" smooth="yes"/>
      <point x="380" y="397"/>
      <point x="363" y="283"/>
      <point x="351" y="190" type="curve"/>
      <point x="345" y="190" type="line"/>
      <point x="329" y="301"/>
      <point x="309" y="417"/>
      <point x="289" y="526" type="curve" smooth="yes"/>
      <point x="172" y="1098" type="line"/>
      <point x="18" y="1098" type="line"/>
      <point x="255" y="0" type="line"/>
      <point x="431" y="0" type="line"/>
      <point x="571" y="681" type="line" smooth="yes"/>
      <point x="585" y="752"/>
      <point x="597" y="838"/>
      <point x="608" y="916" type="curve"/>
      <point x="613" y="916" type="line"/>
      <point x="623" y="842"/>
      <point x="635" y="756"/>
      <point x="649" y="681" type="curve" smooth="yes"/>
    </contour>
  </outline>
</glyph>
<glyph name="x" format="2">
  <advance width="750.765625"/>
  <unicode hex="0078"/>
  <anchor x="376.328125" y="0.0" name="bottom"/>
  <anchor x="381.671875" y="1097.703125" name="top"/>
  <anchor x="709.765625" y="1097.703125" name="topright"/>
  <outline>
    <contour>
      <point x="289.4375" y="565.90625" type="line"/>
      <point x="29.65625" y="0.0" type="line"/>
      <point x="191.078125" y="0.0" type="line"/>
      <point x="374.984375" y="432.96875" type="line"/>
      <point x="559.6875" y="0.0" type="line"/>
      <point x="722.890625" y="0.0" type="line"/>
      <point x="467.546875" y="558.34375" type="line"/>
      <point x="713.109375" y="1097.703125" type="line"/>
      <point x="549.90625" y="1097.703125" type="line"/>
      <point x="378.546875" y="691.0625" type="line"/>
      <point x="211.1875" y="1097.703125" type="line"/>
      <point x="46.09375" y="1097.703125" type="line"/>
    </contour>
  </outline>
</glyph>
<glyph name="y" format="2">
  <advance width="745.859375"/>
  <unicode hex="0079"/>
  <anchor x="145.21875" y="-492.4375" name="bottom"/>
  <anchor x="372.984375" y="1097.703125" name="top"/>
  <anchor x="704.859375" y="1097.703125" name="topright"/>
  <outline>
    <contour>
      <point x="12.265625000000007" y="1097.703125" type="line"/>
      <point x="299.875" y="8.296875000000004" type="line"/>
      <point x="261.15625" y="-145.796875" type="line" smooth="yes"/>
      <point x="220.375" y="-301.796875"/>
      <point x="183.078125" y="-352.9375"/>
      <point x="107.140625" y="-352.9375" type="curve" smooth="yes"/>
      <point x="82.46875" y="-352.9375"/>
      <point x="53.46875" y="-346.71875"/>
      <point x="28.015625000000004" y="-338.28125" type="curve"/>
      <point x="28.015625000000004" y="-475.4375" type="line"/>
      <point x="63.703125" y="-485.4375"/>
      <point x="94.5" y="-492.4375"/>
      <point x="126.734375" y="-492.4375" type="curve" smooth="yes"/>
      <point x="269.734375" y="-492.4375"/>
      <point x="351.984375" y="-395.921875"/>
      <point x="411.234375" y="-175.84375" type="curve" smooth="yes"/>
      <point x="736.546875" y="1097.703125" type="line"/>
      <point x="579.234375" y="1097.703125" type="line"/>
      <point x="427.546875" y="456.65625" type="line" smooth="yes"/>
      <point x="406.53125" y="369.796875"/>
      <point x="390.296875" y="292.0625"/>
      <point x="379.640625" y="215.40625" type="curve"/>
      <point x="372.078125" y="215.40625" type="line"/>
      <point x="360.734375" y="295.171875"/>
      <point x="344.25" y="372.421875"/>
      <point x="326.390625" y="456.21875" type="curve" smooth="yes"/>
      <point x="171.25" y="1097.703125" type="line"/>
    </contour>
  </outline>
</glyph>
<glyph name="z" format="2">
  <advance width="610.828125"/>
  <unicode hex="007A"/>
  <anchor x="319.21875" y="0.0" name="bottom"/>
  <anchor x="317.4375" y="1097.703125" name="top"/>
  <anchor x="569.828125" y="1097.703125" name="topright"/>
  <outline>
    <contour>
      <point x="567.390625" y="0.0" type="line"/>
      <point x="567.390625" y="131.15625" type="line"/>
      <point x="222.765625" y="131.15625" type="line"/>
      <point x="553.375" y="984.796875" type="line"/>
      <point x="553.375" y="1097.703125" type="line"/>
      <point x="73.75" y="1097.703125" type="line"/>
      <point x="73.75" y="965.65625" type="line"/>
      <point x="385.265625" y="965.65625" type="line"/>
      <point x="51.875" y="105.99999999999999" type="line"/>
      <point x="51.875" y="0.0" type="line"/>
    </contour>
  </outline>
</glyph>
<glyph name="braceleft" format="2">
  <advance width="737.5"/>
  <unicode hex="007B"/>
  <outline>
    <contour>
      <point x="649.421875" y="-329.34375" type="curve"/>
      <point x="649.421875" y="-203.421875" type="line"/>
      <point x="502.59375" y="-201.640625"/>
      <point x="443.375" y="-141.96875"/>
      <point x="443.375" y="-0.7343750000000036" type="curve" smooth="yes"/>
      <point x="443.375" y="311.078125" type="line" smooth="yes"/>
      <point x="443.375" y="456.28125"/>
      <point x="397.03125" y="539.875"/>
      <point x="258.171875" y="565.21875" type="curve"/>
      <point x="258.171875" y="572.5625" type="line"/>
      <point x="392.359375" y="597.34375"/>
      <point x="443.375" y="675.484375"/>
      <point x="443.375" y="826.375" type="curve" smooth="yes"/>
      <point x="443.375" y="1139.84375" type="line" smooth="yes"/>
      <point x="443.375" y="1286.3125"/>
      <point x="509.71875" y="1337.96875"/>
      <point x="649.421875" y="1341.53125" type="curve"/>
      <point x="649.421875" y="1467.34375" type="line"/>
      <point x="399.21875" y="1463.34375"/>
      <point x="292.96875" y="1360.265625"/>
      <point x="292.96875" y="1147.265625" type="curve" smooth="yes"/>
      <point x="292.96875" y="833.453125" type="line" smooth="yes"/>
      <point x="292.96875" y="674.859375"/>
      <point x="227.734375" y="628.953125"/>
      <point x="86.40625" y="628.734375" type="curve"/>
      <point x="86.40625" y="510.265625" type="line"/>
      <point x="242.875" y="510.046875"/>
      <point x="292.96875" y="447.21875"/>
      <point x="292.96875" y="304.78125" type="curve" smooth="yes"/>
      <point x="292.96875" y="-6.046875000000005" type="line" smooth="yes"/>
      <point x="292.96875" y="-226.609375"/>
      <point x="407.234375" y="-325.234375"/>
    </contour>
  </outline>
</glyph>
<glyph name="bar" format="2">
  <advance width="823"/>
  <unicode hex="007C"/>
  <outline>
    <contour>
      <point x="340" y="1563" type="line"/>
      <point x="340" y="-486" type="line"/>
      <point x="483" y="-486" type="line"/>
      <point x="483" y="1563" type="line"/>
    </contour>
  </outline>
</glyph>
<glyph name="braceright" format="2">
  <advance width="738"/>
  <unicode hex="007D"/>
  <outline>
    <contour>
      <point x="86" y="-329" type="line"/>
      <point x="338" y="-325"/>
      <point x="443" y="-221"/>
      <point x="443" y="-6" type="curve" smooth="yes"/>
      <point x="443" y="305" type="line" smooth="yes"/>
      <point x="443" y="455"/>
      <point x="499" y="510"/>
      <point x="649" y="510" type="curve"/>
      <point x="649" y="629" type="line"/>
      <point x="488" y="629"/>
      <point x="443" y="694"/>
      <point x="443" y="833" type="curve" smooth="yes"/>
      <point x="443" y="1147" type="line" smooth="yes"/>
      <point x="443" y="1366"/>
      <point x="327" y="1463"/>
      <point x="86" y="1467" type="curve"/>
      <point x="86" y="1342" type="line"/>
      <point x="222" y="1338"/>
      <point x="293" y="1286"/>
      <point x="293" y="1140" type="curve" smooth="yes"/>
      <point x="293" y="826" type="line" smooth="yes"/>
      <point x="293" y="675"/>
      <point x="345" y="597"/>
      <point x="477" y="573" type="curve"/>
      <point x="477" y="565" type="line"/>
      <point x="345" y="540"/>
      <point x="293" y="462"/>
      <point x="293" y="311" type="curve" smooth="yes"/>
      <point x="293" y="-1" type="line" smooth="yes"/>
      <point x="293" y="-144"/>
      <point x="233" y="-202"/>
      <point x="86" y="-203" type="curve"/>
    </contour>
  </outline>
</glyph>
<glyph name="asciitilde" format="2">
  <advance width="874.0"/>
  <unicode hex="007E"/>
  <outline>
    <contour>
      <point x="419.34375" y="659.484375" type="curve" smooth="yes"/>
      <point x="491.953125" y="621.6875"/>
      <point x="538.953125" y="600.921875"/>
      <point x="619.09375" y="600.921875" type="curve" smooth="yes"/>
      <point x="696.203125" y="600.921875"/>
      <point x="763.984375" y="637.921875"/>
      <point x="815.671875" y="699.171875" type="curve"/>
      <point x="815.671875" y="847.328125" type="line"/>
      <point x="761.328125" y="777.546875"/>
      <point x="689.328125" y="730.296875"/>
      <point x="626.0" y="730.296875" type="curve" smooth="yes"/>
      <point x="574.5625" y="730.296875"/>
      <point x="524.421875" y="749.734375"/>
      <point x="457.171875" y="786.296875" type="curve" smooth="yes"/>
      <point x="387.03125" y="822.078125"/>
      <point x="332.6875" y="847.296875"/>
      <point x="257.5625" y="847.296875" type="curve" smooth="yes"/>
      <point x="177.125" y="847.296875"/>
      <point x="112.5625" y="809.859375"/>
      <point x="59.21875" y="744.609375" type="curve"/>
      <point x="59.21875" y="596.453125" type="line"/>
      <point x="121.0" y="672.453125"/>
      <point x="189.125" y="716.140625"/>
      <point x="250.21875" y="716.140625" type="curve" smooth="yes"/>
      <point x="300.75" y="716.140625"/>
      <point x="358.4375" y="694.265625"/>
    </contour>
  </outline>
</glyph>
<glyph name="exclamdown" format="2">
  <advance width="471.8125"/>
  <unicode hex="00A1"/>
  <outline>
    <contour>
      <point x="177.34375" y="680.484375" type="line"/>
      <point x="141.953125" y="-386.3125" type="line"/>
      <point x="327.859375" y="-386.3125" type="line"/>
      <point x="293.8125" y="680.484375" type="line"/>
    </contour>
    <contour>
      <point x="342.84375" y="978.828125" type="curve" smooth="yes"/>
      <point x="342.84375" y="1063.90625"/>
      <point x="299.890625" y="1104.828125"/>
      <point x="239.296875" y="1104.828125" type="curve" smooth="yes"/>
      <point x="168.25" y="1104.828125"/>
      <point x="134.53125" y="1059.46875"/>
      <point x="134.53125" y="978.828125" type="curve" smooth="yes"/>
      <point x="134.53125" y="896.328125"/>
      <point x="168.90625" y="853.625"/>
      <point x="239.078125" y="853.625" type="curve" smooth="yes"/>
      <point x="301.453125" y="853.625"/>
      <point x="342.84375" y="891.53125"/>
    </contour>
  </outline>
</glyph>
<glyph name="cent" format="2">
  <advance width="874.953125"/>
  <unicode hex="00A2"/>
  <outline>
    <contour>
      <point x="555.0" y="1483.0" type="line"/>
      <point x="452.34375" y="1483.0" type="line"/>
      <point x="452.34375" y="1312.125" type="line"/>
      <point x="252.046875" y="1278.4375"/>
      <point x="153.75" y="1074.3125"/>
      <point x="153.75" y="741.90625" type="curve" smooth="yes"/>
      <point x="153.75" y="411.921875"/>
      <point x="249.828125" y="212.34375"/>
      <point x="453.65625" y="184.21875" type="curve"/>
      <point x="453.65625" y="-20.0" type="line"/>
      <point x="556.3125" y="-20.0" type="line"/>
      <point x="556.3125" y="182.65625" type="line"/>
      <point x="620.671875" y="190.546875"/>
      <point x="674.46875" y="208.78125"/>
      <point x="715.609375" y="233.921875" type="curve"/>
      <point x="715.609375" y="367.296875" type="line"/>
      <point x="653.6875" y="336.15625"/>
      <point x="590.875" y="316.8125"/>
      <point x="532.984375" y="316.8125" type="curve" smooth="yes"/>
      <point x="382.546875" y="316.8125"/>
      <point x="310.953125" y="453.859375"/>
      <point x="310.953125" y="743.6875" type="curve" smooth="yes"/>
      <point x="310.953125" y="1029.75"/>
      <point x="378.90625" y="1178.1875"/>
      <point x="535.21875" y="1178.1875" type="curve" smooth="yes"/>
      <point x="575.328125" y="1178.1875"/>
      <point x="628.5625" y="1166.40625"/>
      <point x="678.25" y="1138.390625" type="curve"/>
      <point x="725.859375" y="1268.21875" type="line"/>
      <point x="678.390625" y="1295.125"/>
      <point x="620.921875" y="1311.90625"/>
      <point x="555.0" y="1317.46875" type="curve"/>
    </contour>
  </outline>
</glyph>
<glyph name="sterling" format="2">
  <advance width="869.375"/>
  <unicode hex="00A3"/>
  <outline>
    <contour>
      <point x="531.828125" y="1483.0" type="curve" smooth="yes"/>
      <point x="328.828125" y="1483.0"/>
      <point x="232.640625" y="1352.609375"/>
      <point x="232.640625" y="1100.625" type="curve" smooth="yes"/>
      <point x="232.640625" y="795.421875" type="line"/>
      <point x="81.78125" y="795.421875" type="line"/>
      <point x="81.78125" y="671.28125" type="line"/>
      <point x="232.640625" y="671.28125" type="line"/>
      <point x="232.640625" y="425.546875" type="line" smooth="yes"/>
      <point x="232.640625" y="269.953125"/>
      <point x="182.875" y="176.84375"/>
      <point x="89.125" y="132.5" type="curve"/>
      <point x="89.125" y="0.0" type="line"/>
      <point x="789.375" y="0.0" type="line"/>
      <point x="789.375" y="144.515625" type="line"/>
      <point x="263.75" y="144.515625" type="line"/>
      <point x="347.53125" y="197.984375"/>
      <point x="389.84375" y="291.625"/>
      <point x="389.84375" y="426.125" type="curve" smooth="yes"/>
      <point x="389.84375" y="671.28125" type="line"/>
      <point x="641.40625" y="671.28125" type="line"/>
      <point x="641.40625" y="795.421875" type="line"/>
      <point x="389.84375" y="795.421875" type="line"/>
      <point x="389.84375" y="1099.09375" type="line" smooth="yes"/>
      <point x="389.84375" y="1267.984375"/>
      <point x="433.25" y="1340.265625"/>
      <point x="538.953125" y="1340.265625" type="curve" smooth="yes"/>
      <point x="598.203125" y="1340.265625"/>
      <point x="652.328125" y="1321.25"/>
      <point x="721.125" y="1273.8125" type="curve"/>
      <point x="781.734375" y="1398.3125" type="line"/>
      <point x="706.6875" y="1454.4375"/>
      <point x="625.859375" y="1483.0"/>
    </contour>
  </outline>
</glyph>
<glyph name="currency" format="2">
  <advance width="1130.734375"/>
  <unicode hex="00A4"/>
  <outline>
    <contour>
      <point x="169.75" y="723.0" type="curve" smooth="yes"/>
      <point x="169.75" y="636.34375"/>
      <point x="195.1875" y="556.8125"/>
      <point x="247.828125" y="485.71875" type="curve"/>
      <point x="114.53125" y="352.421875" type="line"/>
      <point x="192.734375" y="272.21875" type="line"/>
      <point x="326.140625" y="408.1875" type="line"/>
      <point x="392.34375" y="354.4375"/>
      <point x="472.3125" y="328.21875"/>
      <point x="564.3125" y="328.21875" type="curve" smooth="yes"/>
      <point x="649.078125" y="328.21875"/>
      <point x="731.265625" y="354.21875"/>
      <point x="800.140625" y="405.078125" type="curve"/>
      <point x="937.109375" y="270.21875" type="line"/>
      <point x="1015.53125" y="348.421875" type="line"/>
      <point x="882.015625" y="483.5" type="line"/>
      <point x="933.75" y="554.59375"/>
      <point x="959.640625" y="635.65625"/>
      <point x="959.640625" y="723.21875" type="curve" smooth="yes"/>
      <point x="959.640625" y="810.53125"/>
      <point x="932.875" y="891.625"/>
      <point x="881.796875" y="959.609375" type="curve"/>
      <point x="1017.09375" y="1097.359375" type="line"/>
      <point x="935.109375" y="1173.671875" type="line"/>
      <point x="799.703125" y="1038.25" type="line"/>
      <point x="730.390625" y="1093.78125"/>
      <point x="650.640625" y="1118.21875"/>
      <point x="564.09375" y="1118.21875" type="curve" smooth="yes"/>
      <point x="475.0" y="1118.21875"/>
      <point x="396.125" y="1091.453125"/>
      <point x="325.921875" y="1036.03125" type="curve"/>
      <point x="192.515625" y="1174.0" type="line"/>
      <point x="112.53125" y="1095.796875" type="line"/>
      <point x="247.828125" y="957.609375" type="line"/>
      <point x="195.625" y="888.828125"/>
      <point x="169.75" y="808.75"/>
    </contour>
    <contour>
      <point x="279.09375" y="723.0" type="curve" smooth="yes"/>
      <point x="279.09375" y="881.875"/>
      <point x="410.140625" y="1011.984375"/>
      <point x="564.3125" y="1011.984375" type="curve" smooth="yes"/>
      <point x="720.359375" y="1011.984375"/>
      <point x="852.96875" y="878.78125"/>
      <point x="852.96875" y="722.5625" type="curve" smooth="yes"/>
      <point x="852.96875" y="566.328125"/>
      <point x="730.359375" y="436.234375"/>
      <point x="564.859375" y="436.234375" type="curve" smooth="yes"/>
      <point x="403.921875" y="436.234375"/>
      <point x="279.09375" y="562.109375"/>
    </contour>
  </outline>
</glyph>
<glyph name="yen" format="2">
  <advance width="871.125"/>
  <unicode hex="00A5"/>
  <outline>
    <contour>
      <point x="433.953125" y="765.46875" type="line"/>
      <point x="238.15625" y="1462.0" type="line"/>
      <point x="77.28125" y="1462.0" type="line"/>
      <point x="321.125" y="679.734375" type="line"/>
      <point x="124.3125" y="679.734375" type="line"/>
      <point x="124.3125" y="566.609375" type="line"/>
      <point x="352.734375" y="566.609375" type="line"/>
      <point x="352.734375" y="384.8125" type="line"/>
      <point x="124.3125" y="384.8125" type="line"/>
      <point x="124.3125" y="271.578125" type="line"/>
      <point x="352.734375" y="271.578125" type="line"/>
      <point x="352.734375" y="0.0" type="line"/>
      <point x="511.71875" y="0.0" type="line"/>
      <point x="511.71875" y="271.578125" type="line"/>
      <point x="744.8125" y="271.578125" type="line"/>
      <point x="744.8125" y="384.8125" type="line"/>
      <point x="511.71875" y="384.8125" type="line"/>
      <point x="511.71875" y="566.609375" type="line"/>
      <point x="744.8125" y="566.609375" type="line"/>
      <point x="744.8125" y="679.734375" type="line"/>
      <point x="541.546875" y="679.734375" type="line"/>
      <point x="787.953125" y="1462.0" type="line"/>
      <point x="625.625" y="1462.0" type="line"/>
    </contour>
  </outline>
</glyph>
<glyph name="brokenbar" format="2">
  <advance width="822.984375"/>
  <unicode hex="00A6"/>
  <outline>
    <contour>
      <point x="340.40625" y="1554.546875" type="line"/>
      <point x="340.40625" y="755.75" type="line"/>
      <point x="483.46875" y="755.75" type="line"/>
      <point x="483.46875" y="1554.546875" type="line"/>
    </contour>
    <contour>
      <point x="340.40625" y="314.15625" type="line"/>
      <point x="340.40625" y="-486.640625" type="line"/>
      <point x="483.46875" y="-486.640625" type="line"/>
      <point x="483.46875" y="314.15625" type="line"/>
    </contour>
  </outline>
</glyph>
<glyph name="section" format="2">
  <advance width="749.03125"/>
  <unicode hex="00A7"/>
  <outline>
    <contour>
      <point x="82.1875" y="837.53125" type="curve" smooth="yes"/>
      <point x="82.1875" y="715.1875"/>
      <point x="144.609375" y="646.828125"/>
      <point x="298.953125" y="559.3125" type="curve" smooth="yes"/>
      <point x="450.4375" y="473.0625"/>
      <point x="507.96875" y="440.53125"/>
      <point x="507.96875" y="337.96875" type="curve" smooth="yes"/>
      <point x="507.96875" y="245.921875"/>
      <point x="438.4375" y="177.953125"/>
      <point x="326.609375" y="177.953125" type="curve" smooth="yes"/>
      <point x="242.828125" y="177.953125"/>
      <point x="143.46875" y="212.296875"/>
      <point x="82.0" y="261.328125" type="curve"/>
      <point x="82.0" y="125.953125" type="line"/>
      <point x="147.703125" y="84.484375"/>
      <point x="231.25" y="61.484375"/>
      <point x="330.171875" y="61.484375" type="curve" smooth="yes"/>
      <point x="522.421875" y="61.484375"/>
      <point x="648.359375" y="172.046875"/>
      <point x="648.359375" y="345.09375" type="curve" smooth="yes"/>
      <point x="648.359375" y="434.515625"/>
      <point x="613.046875" y="503.53125"/>
      <point x="531.375" y="569.984375" type="curve"/>
      <point x="603.5" y="617.203125"/>
      <point x="652.265625" y="705.359375"/>
      <point x="652.265625" y="808.78125" type="curve" smooth="yes"/>
      <point x="652.265625" y="953.34375"/>
      <point x="565.59375" y="1025.59375"/>
      <point x="411.4375" y="1107.8125" type="curve" smooth="yes"/>
      <point x="301.671875" y="1168.5625"/>
      <point x="240.15625" y="1212.078125"/>
      <point x="240.15625" y="1304.703125" type="curve" smooth="yes"/>
      <point x="240.15625" y="1388.3125"/>
      <point x="299.671875" y="1442.421875"/>
      <point x="397.421875" y="1442.421875" type="curve" smooth="yes"/>
      <point x="459.390625" y="1442.421875"/>
      <point x="515.375" y="1424.21875"/>
      <point x="583.0" y="1383.625" type="curve"/>
      <point x="633.15625" y="1494.09375" type="line"/>
      <point x="554.765625" y="1537.5625"/>
      <point x="488.78125" y="1556.0"/>
      <point x="395.640625" y="1556.0" type="curve" smooth="yes"/>
      <point x="226.296875" y="1556.0"/>
      <point x="100.984375" y="1460.21875"/>
      <point x="100.984375" y="1297.578125" type="curve" smooth="yes"/>
      <point x="100.984375" y="1206.078125"/>
      <point x="146.359375" y="1130.734375"/>
      <point x="233.5625" y="1068.75" type="curve"/>
      <point x="141.34375" y="1024.953125"/>
      <point x="82.1875" y="943.828125"/>
    </contour>
    <contour>
      <point x="215.015625" y="855.5625" type="curve" smooth="yes"/>
      <point x="215.015625" y="929.359375"/>
      <point x="256.25" y="985.921875"/>
      <point x="326.0" y="1011.359375" type="curve"/>
      <point x="486.59375" y="919.34375"/>
      <point x="520.4375" y="881.625"/>
      <point x="520.4375" y="787.421875" type="curve" smooth="yes"/>
      <point x="520.4375" y="715.828125"/>
      <point x="492.390625" y="663.734375"/>
      <point x="440.71875" y="631.390625" type="curve"/>
      <point x="363.125" y="672.90625" type="line" smooth="yes"/>
      <point x="276.03125" y="723.90625"/>
      <point x="215.015625" y="772.46875"/>
    </contour>
  </outline>
</glyph>
<glyph name="dieresis" format="2">
  <advance width="1073.875"/>
  <unicode hex="00A8"/>
  <outline>
    <contour>
      <point x="287.890625" y="1366.90625" type="curve" smooth="yes"/>
      <point x="287.890625" y="1298.953125"/>
      <point x="323.703125" y="1265.28125"/>
      <point x="371.84375" y="1265.28125" type="curve" smooth="yes"/>
      <point x="418.65625" y="1265.28125"/>
      <point x="453.796875" y="1298.515625"/>
      <point x="453.796875" y="1366.90625" type="curve" smooth="yes"/>
      <point x="453.796875" y="1431.734375"/>
      <point x="418.65625" y="1465.078125"/>
      <point x="371.84375" y="1465.078125" type="curve" smooth="yes"/>
      <point x="323.703125" y="1465.078125"/>
      <point x="287.890625" y="1433.078125"/>
    </contour>
    <contour>
      <point x="616.078125" y="1367.125" type="curve" smooth="yes"/>
      <point x="616.078125" y="1298.953125"/>
      <point x="651.21875" y="1265.28125"/>
      <point x="700.03125" y="1265.28125" type="curve" smooth="yes"/>
      <point x="747.953125" y="1265.28125"/>
      <point x="784.875" y="1298.734375"/>
      <point x="784.875" y="1367.125" type="curve" smooth="yes"/>
      <point x="784.875" y="1431.953125"/>
      <point x="747.734375" y="1465.078125"/>
      <point x="700.03125" y="1465.078125" type="curve" smooth="yes"/>
      <point x="653.0" y="1465.078125"/>
      <point x="616.078125" y="1433.296875"/>
    </contour>
  </outline>
</glyph>
<glyph name="copyright" format="2">
  <advance width="1700.0"/>
  <unicode hex="00A9"/>
  <outline>
    <contour>
      <point x="849.34375" y="-19.5625" type="curve" smooth="yes"/>
      <point x="1283.53125" y="-19.5625"/>
      <point x="1601.671875" y="295.4375"/>
      <point x="1601.671875" y="730.5625" type="curve" smooth="yes"/>
      <point x="1601.671875" y="1152.78125"/>
      <point x="1295.203125" y="1482.5625"/>
      <point x="850.21875" y="1482.5625" type="curve" smooth="yes"/>
      <point x="430.90625" y="1482.5625"/>
      <point x="98.21875" y="1178.4375"/>
      <point x="98.21875" y="731.0" type="curve" smooth="yes"/>
      <point x="98.21875" y="321.484375"/>
      <point x="387.4375" y="-19.5625"/>
    </contour>
    <contour>
      <point x="880.96875" y="276.078125" type="curve" smooth="yes"/>
      <point x="960.296875" y="276.078125"/>
      <point x="1036.515625" y="292.75"/>
      <point x="1108.1875" y="325.3125" type="curve"/>
      <point x="1108.1875" y="441.78125" type="line"/>
      <point x="1031.53125" y="409.0"/>
      <point x="958.078125" y="392.765625"/>
      <point x="890.96875" y="392.765625" type="curve" smooth="yes"/>
      <point x="707.640625" y="392.765625"/>
      <point x="612.171875" y="500.390625"/>
      <point x="612.171875" y="732.78125" type="curve" smooth="yes"/>
      <point x="612.171875" y="945.609375"/>
      <point x="716.46875" y="1067.453125"/>
      <point x="891.90625" y="1067.453125" type="curve" smooth="yes"/>
      <point x="957.203125" y="1067.453125"/>
      <point x="1024.953125" y="1053.015625"/>
      <point x="1094.1875" y="1020.453125" type="curve"/>
      <point x="1143.90625" y="1126.90625" type="line"/>
      <point x="1063.21875" y="1165.25"/>
      <point x="977.21875" y="1184.359375"/>
      <point x="888.5625" y="1184.359375" type="curve" smooth="yes"/>
      <point x="629.359375" y="1184.359375"/>
      <point x="472.5625" y="1007.5625"/>
      <point x="472.5625" y="727.4375" type="curve" smooth="yes"/>
      <point x="472.5625" y="436.65625"/>
      <point x="622.53125" y="276.078125"/>
    </contour>
    <contour>
      <point x="849.34375" y="82.203125" type="curve" smooth="yes"/>
      <point x="484.34375" y="82.203125"/>
      <point x="206.546875" y="344.90625"/>
      <point x="206.546875" y="731.0" type="curve" smooth="yes"/>
      <point x="206.546875" y="1096.921875"/>
      <point x="467.390625" y="1379.796875"/>
      <point x="849.78125" y="1379.796875" type="curve" smooth="yes"/>
      <point x="1220.125" y="1379.796875"/>
      <point x="1491.671875" y="1105.75"/>
      <point x="1491.671875" y="731.0" type="curve" smooth="yes"/>
      <point x="1491.671875" y="367.609375"/>
      <point x="1233.265625" y="82.203125"/>
    </contour>
  </outline>
</glyph>
<glyph name="ordfeminine" format="2">
  <advance width="609.359375"/>
  <unicode hex="00AA"/>
  <anchor x="267.8125" y="785.828125" name="bottom"/>
  <anchor x="288.703125" y="1485.0" name="top"/>
  <outline>
    <contour>
      <point x="308.515625" y="1479.0" type="curve" smooth="yes"/>
      <point x="235.046875" y="1479.0"/>
      <point x="170.6875" y="1459.78125"/>
      <point x="105.640625" y="1424.203125" type="curve"/>
      <point x="142.125" y="1335.78125" type="line"/>
      <point x="194.046875" y="1364.015625"/>
      <point x="241.046875" y="1380.5625"/>
      <point x="290.265625" y="1380.5625" type="curve" smooth="yes"/>
      <point x="360.25" y="1380.5625"/>
      <point x="387.90625" y="1343.34375"/>
      <point x="387.90625" y="1255.734375" type="curve" smooth="yes"/>
      <point x="387.90625" y="1199.34375" type="line"/>
      <point x="303.25" y="1193.125" type="line" smooth="yes"/>
      <point x="141.0" y="1180.796875"/>
      <point x="53.4375" y="1120.65625"/>
      <point x="53.4375" y="984.09375" type="curve" smooth="yes"/>
      <point x="53.4375" y="869.203125"/>
      <point x="119.21875" y="785.828125"/>
      <point x="219.21875" y="785.828125" type="curve" smooth="yes"/>
      <point x="299.90625" y="785.828125"/>
      <point x="357.78125" y="823.265625"/>
      <point x="403.703125" y="899.921875" type="curve"/>
      <point x="423.953125" y="798.28125" type="line"/>
      <point x="506.15625" y="798.28125" type="line"/>
      <point x="506.15625" y="1252.140625" type="line" smooth="yes"/>
      <point x="506.15625" y="1403.4375"/>
      <point x="446.0" y="1479.0"/>
    </contour>
    <contour>
      <point x="387.90625" y="1118.046875" type="line"/>
      <point x="387.90625" y="1064.75" type="line" smooth="yes"/>
      <point x="387.90625" y="951.5625"/>
      <point x="339.8125" y="882.265625"/>
      <point x="259.296875" y="882.265625" type="curve" smooth="yes"/>
      <point x="202.21875" y="882.265625"/>
      <point x="171.46875" y="916.578125"/>
      <point x="171.46875" y="985.875" type="curve" smooth="yes"/>
      <point x="171.46875" y="1069.265625"/>
      <point x="217.421875" y="1103.609375"/>
      <point x="325.921875" y="1112.046875" type="curve" smooth="yes"/>
    </contour>
  </outline>
</glyph>
<glyph name="guillemotleft" format="2">
  <advance width="930.40625"/>
  <unicode hex="00AB"/>
  <outline>
    <contour>
      <point x="73.09375" y="557.953125" type="line"/>
      <point x="73.09375" y="529.171875" type="line"/>
      <point x="367.4375" y="136.875" type="line"/>
      <point x="474.796875" y="196.0625" type="line"/>
      <point x="253.75" y="544.0625" type="line"/>
      <point x="474.578125" y="895.953125" type="line"/>
      <point x="367.4375" y="950.6875" type="line"/>
    </contour>
    <contour>
      <point x="455.828125" y="557.953125" type="line"/>
      <point x="455.828125" y="529.171875" type="line"/>
      <point x="751.953125" y="136.875" type="line"/>
      <point x="857.53125" y="196.0625" type="line"/>
      <point x="638.265625" y="544.0625" type="line"/>
      <point x="857.3125" y="895.953125" type="line"/>
      <point x="751.953125" y="950.6875" type="line"/>
    </contour>
  </outline>
</glyph>
<glyph name="logicalnot" format="2">
  <advance width="874.0"/>
  <unicode hex="00AC"/>
  <outline>
    <contour>
      <point x="793.5625" y="787.53125" type="line"/>
      <point x="61.984375" y="787.53125" type="line"/>
      <point x="61.984375" y="657.265625" type="line"/>
      <point x="661.296875" y="657.265625" type="line"/>
      <point x="661.296875" y="246.0" type="line"/>
      <point x="793.5625" y="246.0" type="line"/>
    </contour>
  </outline>
</glyph>
<glyph name="registered" format="2">
  <advance width="1700"/>
  <unicode hex="00AE"/>
  <outline>
    <contour>
      <point x="583" y="297" type="line"/>
      <point x="718" y="297" type="line"/>
      <point x="718" y="647" type="line"/>
      <point x="865" y="647" type="line"/>
      <point x="1036" y="297" type="line"/>
      <point x="1185" y="297" type="line"/>
      <point x="988" y="678" type="line"/>
      <point x="1088" y="721"/>
      <point x="1139" y="798"/>
      <point x="1139" y="918" type="curve" smooth="yes"/>
      <point x="1139" y="1092"/>
      <point x="1023" y="1175"/>
      <point x="822" y="1175" type="curve" smooth="yes"/>
      <point x="583" y="1175" type="line"/>
    </contour>
    <contour>
      <point x="716" y="751" type="line"/>
      <point x="716" y="1063" type="line"/>
      <point x="815" y="1063" type="line" smooth="yes"/>
      <point x="938" y="1063"/>
      <point x="998" y="1017"/>
      <point x="998" y="912" type="curve" smooth="yes"/>
      <point x="998" y="801"/>
      <point x="926" y="751"/>
      <point x="814" y="751" type="curve" smooth="yes"/>
    </contour>
    <contour>
      <point x="849" y="-20" type="curve" smooth="yes"/>
      <point x="1284" y="-20"/>
      <point x="1602" y="295"/>
      <point x="1602" y="731" type="curve" smooth="yes"/>
      <point x="1602" y="1153"/>
      <point x="1295" y="1483"/>
      <point x="850" y="1483" type="curve" smooth="yes"/>
      <point x="431" y="1483"/>
      <point x="98" y="1178"/>
      <point x="98" y="731" type="curve" smooth="yes"/>
      <point x="98" y="321"/>
      <point x="387" y="-20"/>
    </contour>
    <contour>
      <point x="849" y="82" type="curve" smooth="yes"/>
      <point x="484" y="82"/>
      <point x="207" y="345"/>
      <point x="207" y="731" type="curve" smooth="yes"/>
      <point x="207" y="1097"/>
      <point x="467" y="1380"/>
      <point x="850" y="1380" type="curve" smooth="yes"/>
      <point x="1220" y="1380"/>
      <point x="1492" y="1106"/>
      <point x="1492" y="731" type="curve" smooth="yes"/>
      <point x="1492" y="368"/>
      <point x="1233" y="82"/>
    </contour>
  </outline>
</glyph>
<glyph name="overscore" format="2">
  <advance width="882.28125"/>
  <unicode hex="00AF"/>
  <outline>
    <contour>
      <point x="888.5" y="1556.0" type="line"/>
      <point x="888.5" y="1679.46875" type="line"/>
      <point x="-8.0" y="1679.46875" type="line"/>
      <point x="-8.0" y="1556.0" type="line"/>
    </contour>
  </outline>
</glyph>
<glyph name="degree" format="2">
  <advance width="746"/>
  <unicode hex="00B0"/>
  <outline>
    <contour>
      <point x="372" y="937" type="curve" smooth="yes"/>
      <point x="529" y="937"/>
      <point x="651" y="1041"/>
      <point x="651" y="1209" type="curve" smooth="yes"/>
      <point x="651" y="1376"/>
      <point x="531" y="1481"/>
      <point x="372" y="1481" type="curve" smooth="yes"/>
      <point x="215" y="1481"/>
      <point x="95" y="1377"/>
      <point x="95" y="1209" type="curve" smooth="yes"/>
      <point x="95" y="1042"/>
      <point x="211" y="937"/>
    </contour>
    <contour>
      <point x="374" y="1037" type="curve" smooth="yes"/>
      <point x="276" y="1037"/>
      <point x="206" y="1102"/>
      <point x="206" y="1209" type="curve" smooth="yes"/>
      <point x="206" y="1305"/>
      <point x="265" y="1381"/>
      <point x="374" y="1381" type="curve" smooth="yes"/>
      <point x="476" y="1381"/>
      <point x="540" y="1312"/>
      <point x="540" y="1209" type="curve" smooth="yes"/>
      <point x="540" y="1105"/>
      <point x="474" y="1037"/>
    </contour>
  </outline>
</glyph>
<glyph name="twosuperior" format="2">
  <advance width="636.765625"/>
  <unicode hex="00B2"/>
  <outline>
    <contour>
      <point x="551.171875" y="849.78125" type="line"/>
      <point x="551.171875" y="959.125" type="line"/>
      <point x="193.15625" y="959.125" type="line"/>
      <point x="302.15625" y="1093.96875" type="line" smooth="yes"/>
      <point x="459.859375" y="1277.75"/>
      <point x="534.296875" y="1368.953125"/>
      <point x="534.296875" y="1513.984375" type="curve" smooth="yes"/>
      <point x="534.296875" y="1654.5625"/>
      <point x="445.390625" y="1747.0"/>
      <point x="288.703125" y="1747.0" type="curve" smooth="yes"/>
      <point x="192.015625" y="1747.0"/>
      <point x="111.65625" y="1704.65625"/>
      <point x="51.875" y="1634.515625" type="curve"/>
      <point x="117.609375" y="1550.53125" type="line"/>
      <point x="168.828125" y="1606.65625"/>
      <point x="220.59375" y="1634.09375"/>
      <point x="278.015625" y="1634.09375" type="curve" smooth="yes"/>
      <point x="359.390625" y="1634.09375"/>
      <point x="403.921875" y="1581.703125"/>
      <point x="403.921875" y="1506.640625" type="curve" smooth="yes"/>
      <point x="403.921875" y="1396.34375"/>
      <point x="346.0" y="1317.859375"/>
      <point x="233.328125" y="1180.203125" type="curve" smooth="yes"/>
      <point x="53.0" y="957.125" type="line"/>
      <point x="53.0" y="849.78125" type="line"/>
    </contour>
  </outline>
</glyph>
<glyph name="threesuperior" format="2">
  <advance width="636.765625"/>
  <unicode hex="00B3"/>
  <outline>
    <contour>
      <point x="285.796875" y="1746.34375" type="curve" smooth="yes"/>
      <point x="198.015625" y="1746.34375"/>
      <point x="121.4375" y="1713.34375"/>
      <point x="51.296875" y="1650.3125" type="curve"/>
      <point x="113.140625" y="1561.4375" type="line"/>
      <point x="165.703125" y="1610.671875"/>
      <point x="215.46875" y="1633.4375"/>
      <point x="274.21875" y="1633.4375" type="curve" smooth="yes"/>
      <point x="358.953125" y="1633.4375"/>
      <point x="407.046875" y="1587.015625"/>
      <point x="407.046875" y="1507.953125" type="curve" smooth="yes"/>
      <point x="407.046875" y="1414.78125"/>
      <point x="348.078125" y="1355.046875"/>
      <point x="242.4375" y="1355.046875" type="curve" smooth="yes"/>
      <point x="176.21875" y="1355.046875" type="line"/>
      <point x="176.21875" y="1249.265625" type="line"/>
      <point x="246.0" y="1249.265625" type="line" smooth="yes"/>
      <point x="367.625" y="1249.265625"/>
      <point x="428.265625" y="1194.875"/>
      <point x="428.265625" y="1091.234375" type="curve" smooth="yes"/>
      <point x="428.265625" y="1005.296875"/>
      <point x="378.09375" y="948.453125"/>
      <point x="264.9375" y="948.453125" type="curve" smooth="yes"/>
      <point x="188.6875" y="948.453125"/>
      <point x="121.21875" y="966.90625"/>
      <point x="58.203125" y="1006.59375" type="curve"/>
      <point x="58.203125" y="882.015625" type="line"/>
      <point x="122.125" y="850.21875"/>
      <point x="191.140625" y="834.65625"/>
      <point x="264.9375" y="834.65625" type="curve" smooth="yes"/>
      <point x="436.71875" y="834.65625"/>
      <point x="554.078125" y="929.5625"/>
      <point x="554.078125" y="1083.21875" type="curve" smooth="yes"/>
      <point x="554.078125" y="1202.65625"/>
      <point x="498.203125" y="1274.875"/>
      <point x="389.203125" y="1307.65625" type="curve"/>
      <point x="389.203125" y="1315.0" type="line"/>
      <point x="476.546875" y="1349.234375"/>
      <point x="527.625" y="1422.125"/>
      <point x="527.625" y="1523.09375" type="curve" smooth="yes"/>
      <point x="527.625" y="1663.4375"/>
      <point x="434.5" y="1746.34375"/>
    </contour>
  </outline>
</glyph>
<glyph name="acute" format="2">
  <advance width="534.9375"/>
  <unicode hex="00B4"/>
  <outline>
    <contour>
      <point x="452.9375" y="1568.34375" type="line"/>
      <point x="268.921875" y="1568.34375" type="line"/>
      <point x="223.078125" y="1474.703125"/>
      <point x="161.53125" y="1374.0"/>
      <point x="82.0" y="1264.21875" type="curve"/>
      <point x="82.0" y="1241.0" type="line"/>
      <point x="179.578125" y="1241.0" type="line"/>
      <point x="263.03125" y="1315.21875"/>
      <point x="400.078125" y="1462.25"/>
      <point x="452.9375" y="1549.78125" type="curve"/>
    </contour>
  </outline>
</glyph>
<glyph name="micro" format="2">
  <advance width="927.28125"/>
  <unicode hex="00B5"/>
  <outline>
    <contour>
      <point x="792.859375" y="1097.703125" type="line"/>
      <point x="639.21875" y="1097.703125" type="line"/>
      <point x="639.21875" y="519.546875" type="line" smooth="yes"/>
      <point x="639.21875" y="253.5"/>
      <point x="580.859375" y="118.28124999999999"/>
      <point x="428.421875" y="118.28124999999999" type="curve" smooth="yes"/>
      <point x="333.46875" y="118.28124999999999"/>
      <point x="288.0625" y="210.28125"/>
      <point x="288.0625" y="390.984375" type="curve" smooth="yes"/>
      <point x="288.0625" y="1097.703125" type="line"/>
      <point x="134.3125" y="1097.703125" type="line"/>
      <point x="134.3125" y="-490.140625" type="line"/>
      <point x="287.84375" y="-490.140625" type="line"/>
      <point x="287.84375" y="-118.12500000000001" type="line" smooth="yes"/>
      <point x="287.84375" y="-61.906250000000014"/>
      <point x="284.28125" y="6.21875"/>
      <point x="279.734375" y="81.3125" type="curve"/>
      <point x="285.625" y="81.3125" type="line"/>
      <point x="317.171875" y="12.0"/>
      <point x="365.59375" y="-20.0"/>
      <point x="435.109375" y="-20.0" type="curve" smooth="yes"/>
      <point x="527.171875" y="-20.0"/>
      <point x="603.53125" y="49.53125000000001"/>
      <point x="643.21875" y="158.640625" type="curve"/>
      <point x="652.5625" y="158.640625" type="line"/>
      <point x="670.140625" y="0.0" type="line"/>
      <point x="792.859375" y="0.0" type="line"/>
    </contour>
  </outline>
</glyph>
<glyph name="paragraph" format="2">
  <advance width="977"/>
  <unicode hex="00B6"/>
  <outline>
    <contour>
      <point x="804" y="-260" type="line"/>
      <point x="804" y="1556" type="line"/>
      <point x="408" y="1556" type="line" smooth="yes"/>
      <point x="211" y="1556"/>
      <point x="127" y="1384"/>
      <point x="127" y="1052" type="curve" smooth="yes"/>
      <point x="127" y="726"/>
      <point x="203" y="559"/>
      <point x="364" y="559" type="curve" smooth="yes"/>
      <point x="394" y="559"/>
      <point x="418" y="565"/>
      <point x="441" y="577" type="curve"/>
      <point x="441" y="-260" type="line"/>
      <point x="551" y="-260" type="line"/>
      <point x="551" y="1447" type="line"/>
      <point x="692" y="1447" type="line"/>
      <point x="692" y="-260" type="line"/>
    </contour>
  </outline>
</glyph>
<glyph name="cedilla" format="2">
  <advance width="419.140625"/>
  <unicode hex="00B8"/>
  <outline>
    <contour>
      <point x="377.0" y="-282.75" type="curve" smooth="yes"/>
      <point x="377.0" y="-189.859375"/>
      <point x="317.0" y="-126.75"/>
      <point x="206.78125" y="-104.734375" type="curve"/>
      <point x="252.65625" y="0.0" type="line"/>
      <point x="157.796875" y="0.0" type="line"/>
      <point x="87.796875" y="-162.4375" type="line"/>
      <point x="187.21875" y="-175.34375"/>
      <point x="247.625" y="-208.125"/>
      <point x="247.625" y="-282.75" type="curve" smooth="yes"/>
      <point x="247.625" y="-345.796875"/>
      <point x="202.578125" y="-387.890625"/>
      <point x="113.703125" y="-387.890625" type="curve" smooth="yes"/>
      <point x="83.140625" y="-387.890625"/>
      <point x="51.26562500000001" y="-383.671875"/>
      <point x="24.046875000000007" y="-375.671875" type="curve"/>
      <point x="24.046875000000007" y="-479.0" type="line"/>
      <point x="51.48437500000001" y="-487.0"/>
      <point x="90.484375" y="-492.0"/>
      <point x="136.859375" y="-492.0" type="curve" smooth="yes"/>
      <point x="287.4375" y="-492.0"/>
      <point x="377.0" y="-417.78125"/>
    </contour>
  </outline>
</glyph>
<glyph name="onesuperior" format="2">
  <advance width="636.765625"/>
  <unicode hex="00B9"/>
  <outline>
    <contour>
      <point x="434.375" y="1725.78125" type="line"/>
      <point x="330.578125" y="1725.78125" type="line"/>
      <point x="78.4375" y="1532.046875" type="line"/>
      <point x="142.515625" y="1446.0625" type="line"/>
      <point x="264.46875" y="1536.5" type="line" smooth="yes"/>
      <point x="277.578125" y="1546.5"/>
      <point x="295.90625" y="1562.171875"/>
      <point x="318.125" y="1583.0625" type="curve"/>
      <point x="312.34375" y="1520.703125"/>
      <point x="310.34375" y="1457.40625"/>
      <point x="310.34375" y="1395.734375" type="curve" smooth="yes"/>
      <point x="310.34375" y="849.78125" type="line"/>
      <point x="434.375" y="849.78125" type="line"/>
    </contour>
  </outline>
</glyph>
<glyph name="ordmasculine" format="2">
  <advance width="637.859375"/>
  <unicode hex="00BA"/>
  <anchor x="319.046875" y="786.046875" name="bottom"/>
  <anchor x="325.703125" y="1485.0" name="top"/>
  <outline>
    <contour>
      <point x="574.09375" y="1134.75" type="curve" smooth="yes"/>
      <point x="574.09375" y="1359.921875"/>
      <point x="480.375" y="1479.4375"/>
      <point x="321.921875" y="1479.4375" type="curve" smooth="yes"/>
      <point x="159.34375" y="1479.4375"/>
      <point x="61.984375" y="1352.0"/>
      <point x="61.984375" y="1134.53125" type="curve" smooth="yes"/>
      <point x="61.984375" y="914.609375"/>
      <point x="153.015625" y="785.171875"/>
      <point x="321.046875" y="785.171875" type="curve" smooth="yes"/>
      <point x="485.28125" y="785.171875"/>
      <point x="574.09375" y="913.921875"/>
    </contour>
    <contour>
      <point x="186.6875" y="1134.09375" type="curve" smooth="yes"/>
      <point x="186.6875" y="1300.484375"/>
      <point x="236.3125" y="1377.4375"/>
      <point x="319.921875" y="1377.4375" type="curve" smooth="yes"/>
      <point x="413.53125" y="1377.4375"/>
      <point x="453.84375" y="1298.515625"/>
      <point x="453.84375" y="1134.09375" type="curve" smooth="yes"/>
      <point x="453.84375" y="965.65625"/>
      <point x="414.875" y="886.953125"/>
      <point x="319.265625" y="886.953125" type="curve" smooth="yes"/>
      <point x="229.21875" y="886.953125"/>
      <point x="186.6875" y="964.78125"/>
    </contour>
  </outline>
</glyph>
<glyph name="guillemotright" format="2">
  <advance width="928"/>
  <unicode hex="00BB"/>
  <outline>
    <contour>
      <point x="857" y="529" type="line"/>
      <point x="857" y="558" type="line"/>
      <point x="561" y="951" type="line"/>
      <point x="455" y="896" type="line"/>
      <point x="674" y="544" type="line"/>
      <point x="455" y="196" type="line"/>
      <point x="561" y="137" type="line"/>
    </contour>
    <contour>
      <point x="477" y="529" type="line"/>
      <point x="477" y="558" type="line"/>
      <point x="179" y="951" type="line"/>
      <point x="75" y="896" type="line"/>
      <point x="292" y="544" type="line"/>
      <point x="75" y="196" type="line"/>
      <point x="179" y="137" type="line"/>
    </contour>
  </outline>
</glyph>
<glyph name="onequarter" format="2">
  <advance width="1442.96875"/>
  <unicode hex="00BC"/>
  <outline>
    <contour>
      <point x="309.640625" y="0.0" type="line"/>
      <point x="442.453125" y="0.0" type="line"/>
      <point x="1189.84375" y="1462.0" type="line"/>
      <point x="1056.25" y="1462.0" type="line"/>
    </contour>
    <contour>
      <point x="287.359375" y="586.0" type="line"/>
      <point x="411.5" y="586.0" type="line"/>
      <point x="411.5" y="1462.0" type="line"/>
      <point x="306.8125" y="1462.0" type="line"/>
      <point x="54.5625" y="1268.265625" type="line"/>
      <point x="119.640625" y="1184.0625" type="line"/>
      <point x="241.484375" y="1272.71875" type="line" smooth="yes"/>
      <point x="253.8125" y="1284.5"/>
      <point x="272.03125" y="1300.0625"/>
      <point x="295.25" y="1321.0625" type="curve"/>
      <point x="289.359375" y="1258.703125"/>
      <point x="287.359375" y="1195.40625"/>
      <point x="287.359375" y="1133.625" type="curve" smooth="yes"/>
    </contour>
    <contour>
      <point x="1182.625" y="0.0" type="line"/>
      <point x="1302.875" y="0.0" type="line"/>
      <point x="1302.875" y="193.90625" type="line"/>
      <point x="1408.953125" y="193.90625" type="line"/>
      <point x="1408.953125" y="299.6875" type="line"/>
      <point x="1302.875" y="299.6875" type="line"/>
      <point x="1302.875" y="881.21875" type="line"/>
      <point x="1180.15625" y="881.21875" type="line"/>
      <point x="850.40625" y="286.125" type="line"/>
      <point x="850.40625" y="193.90625" type="line"/>
      <point x="1182.625" y="193.90625" type="line"/>
    </contour>
    <contour>
      <point x="969.75" y="299.6875" type="line"/>
      <point x="1141.84375" y="620.828125" type="line" smooth="yes"/>
      <point x="1164.296875" y="662.625"/>
      <point x="1177.859375" y="694.3125"/>
      <point x="1186.1875" y="719.203125" type="curve"/>
      <point x="1182.625" y="684.96875"/>
      <point x="1182.625" y="634.125"/>
      <point x="1182.625" y="565.546875" type="curve" smooth="yes"/>
      <point x="1182.625" y="299.6875" type="line"/>
    </contour>
  </outline>
</glyph>
<glyph name="onehalf" format="2">
  <advance width="1514.125"/>
  <unicode hex="00BD"/>
  <outline>
    <contour>
      <point x="285.171875" y="0.0" type="line"/>
      <point x="416.984375" y="0.0" type="line"/>
      <point x="1165.375" y="1462.0" type="line"/>
      <point x="1030.890625" y="1462.0" type="line"/>
    </contour>
    <contour>
      <point x="287.359375" y="586.0" type="line"/>
      <point x="411.5" y="586.0" type="line"/>
      <point x="411.5" y="1462.0" type="line"/>
      <point x="306.8125" y="1462.0" type="line"/>
      <point x="54.5625" y="1268.265625" type="line"/>
      <point x="119.640625" y="1184.0625" type="line"/>
      <point x="241.484375" y="1272.71875" type="line" smooth="yes"/>
      <point x="253.8125" y="1284.5"/>
      <point x="272.03125" y="1300.0625"/>
      <point x="295.25" y="1321.0625" type="curve"/>
      <point x="289.359375" y="1258.703125"/>
      <point x="287.359375" y="1195.40625"/>
      <point x="287.359375" y="1133.625" type="curve" smooth="yes"/>
    </contour>
    <contour>
      <point x="930.46875" y="0.0" type="line"/>
      <point x="1428.53125" y="0.0" type="line"/>
      <point x="1428.53125" y="111.12499999999999" type="line"/>
      <point x="1069.625" y="111.12499999999999" type="line"/>
      <point x="1214.25" y="282.484375" type="line" smooth="yes"/>
      <point x="1334.546875" y="429.75"/>
      <point x="1410.765625" y="519.171875"/>
      <point x="1410.765625" y="665.09375" type="curve" smooth="yes"/>
      <point x="1410.765625" y="804.78125"/>
      <point x="1321.859375" y="897.21875"/>
      <point x="1165.28125" y="897.21875" type="curve" smooth="yes"/>
      <point x="1068.59375" y="897.21875"/>
      <point x="988.125" y="854.875"/>
      <point x="929.34375" y="784.734375" type="curve"/>
      <point x="994.078125" y="700.75" type="line"/>
      <point x="1046.296875" y="757.765625"/>
      <point x="1097.953125" y="784.3125"/>
      <point x="1154.59375" y="784.3125" type="curve" smooth="yes"/>
      <point x="1236.75" y="784.3125"/>
      <point x="1283.171875" y="731.921875"/>
      <point x="1283.171875" y="655.078125" type="curve" smooth="yes"/>
      <point x="1283.171875" y="544.78125"/>
      <point x="1225.140625" y="466.296875"/>
      <point x="1110.6875" y="328.640625" type="curve" smooth="yes"/>
      <point x="930.46875" y="109.125" type="line"/>
    </contour>
  </outline>
</glyph>
<glyph name="threequarters" format="2">
  <advance width="1470.65625"/>
  <unicode hex="00BE"/>
  <outline>
    <contour>
      <point x="338.609375" y="0.0" type="line"/>
      <point x="470.53125" y="0.0" type="line"/>
      <point x="1218.8125" y="1462.0" type="line"/>
      <point x="1085.21875" y="1462.0" type="line"/>
    </contour>
    <contour>
      <point x="262.640625" y="570.203125" type="curve" smooth="yes"/>
      <point x="434.421875" y="570.203125"/>
      <point x="551.890625" y="666.0"/>
      <point x="551.890625" y="821.4375" type="curve" smooth="yes"/>
      <point x="551.890625" y="939.09375"/>
      <point x="495.90625" y="1013.09375"/>
      <point x="387.015625" y="1043.203125" type="curve"/>
      <point x="387.015625" y="1051.4375" type="line"/>
      <point x="474.25" y="1086.5625"/>
      <point x="525.328125" y="1158.5625"/>
      <point x="525.328125" y="1258.640625" type="curve" smooth="yes"/>
      <point x="525.328125" y="1399.875"/>
      <point x="432.203125" y="1482.78125"/>
      <point x="283.609375" y="1482.78125" type="curve" smooth="yes"/>
      <point x="195.828125" y="1482.78125"/>
      <point x="119.140625" y="1449.78125"/>
      <point x="49.0" y="1385.859375" type="curve"/>
      <point x="110.953125" y="1297.875" type="line"/>
      <point x="163.515625" y="1346.21875"/>
      <point x="213.171875" y="1371.65625"/>
      <point x="272.03125" y="1371.65625" type="curve" smooth="yes"/>
      <point x="356.65625" y="1371.65625"/>
      <point x="404.859375" y="1325.234375"/>
      <point x="404.859375" y="1246.171875" type="curve" smooth="yes"/>
      <point x="404.859375" y="1153.0"/>
      <point x="345.78125" y="1093.265625"/>
      <point x="240.140625" y="1093.265625" type="curve" smooth="yes"/>
      <point x="174.03125" y="1093.265625" type="line"/>
      <point x="174.03125" y="987.484375" type="line"/>
      <point x="243.703125" y="987.484375" type="line" smooth="yes"/>
      <point x="365.4375" y="987.484375"/>
      <point x="425.96875" y="931.3125"/>
      <point x="425.96875" y="826.78125" type="curve" smooth="yes"/>
      <point x="425.96875" y="740.84375"/>
      <point x="375.90625" y="684.890625"/>
      <point x="262.640625" y="684.890625" type="curve" smooth="yes"/>
      <point x="186.5" y="684.890625"/>
      <point x="118.921875" y="705.125"/>
      <point x="55.90625" y="743.03125" type="curve"/>
      <point x="55.90625" y="620.234375" type="line"/>
      <point x="119.828125" y="586.65625"/>
      <point x="188.953125" y="570.203125"/>
    </contour>
    <contour>
      <point x="1210.203125" y="0.0" type="line"/>
      <point x="1330.453125" y="0.0" type="line"/>
      <point x="1330.453125" y="193.90625" type="line"/>
      <point x="1436.53125" y="193.90625" type="line"/>
      <point x="1436.53125" y="299.6875" type="line"/>
      <point x="1330.453125" y="299.6875" type="line"/>
      <point x="1330.453125" y="881.21875" type="line"/>
      <point x="1207.734375" y="881.21875" type="line"/>
      <point x="877.984375" y="286.125" type="line"/>
      <point x="877.984375" y="193.90625" type="line"/>
      <point x="1210.203125" y="193.90625" type="line"/>
    </contour>
    <contour>
      <point x="997.328125" y="299.6875" type="line"/>
      <point x="1169.421875" y="620.828125" type="line" smooth="yes"/>
      <point x="1190.984375" y="662.625"/>
      <point x="1205.546875" y="694.3125"/>
      <point x="1213.765625" y="719.203125" type="curve"/>
      <point x="1210.203125" y="684.96875"/>
      <point x="1210.203125" y="634.125"/>
      <point x="1210.203125" y="565.546875" type="curve" smooth="yes"/>
      <point x="1210.203125" y="299.6875" type="line"/>
    </contour>
  </outline>
</glyph>
<glyph name="AE" format="2">
  <advance width="1252"/>
  <unicode hex="00C6"/>
  <anchor x="626" y="0" name="bottom"/>
  <anchor x="644" y="1462" name="top"/>
  <outline>
    <contour>
      <point x="1156" y="0" type="line"/>
      <point x="1156" y="145" type="line"/>
      <point x="732" y="145" type="line"/>
      <point x="732" y="692" type="line"/>
      <point x="1130" y="692" type="line"/>
      <point x="1130" y="835" type="line"/>
      <point x="732" y="835" type="line"/>
      <point x="732" y="1318" type="line"/>
      <point x="1156" y="1318" type="line"/>
      <point x="1156" y="1462" type="line"/>
      <point x="434" y="1462" type="line"/>
      <point x="-4" y="0" type="line"/>
      <point x="169" y="0" type="line"/>
      <point x="303" y="470" type="line"/>
      <point x="573" y="470" type="line"/>
      <point x="573" y="0" type="line"/>
    </contour>
    <contour>
      <point x="342" y="617" type="line"/>
      <point x="542" y="1316" type="line"/>
      <point x="575" y="1316" type="line"/>
      <point x="575" y="617" type="line"/>
    </contour>
  </outline>
</glyph>
<glyph name="Eth" format="2">
  <advance width="1048.6875"/>
  <unicode hex="00D0"/>
  <anchor x="524.0625" y="0.0" name="bottom"/>
  <anchor x="524.0625" y="1462.0" name="top"/>
  <outline>
    <contour>
      <point x="449.3125" y="1462.0" type="curve" smooth="yes"/>
      <point x="149.953125" y="1462.0" type="line"/>
      <point x="149.953125" y="816.375" type="line"/>
      <point x="44.96875000000001" y="816.375" type="line"/>
      <point x="44.96875000000001" y="686.890625" type="line"/>
      <point x="149.953125" y="686.890625" type="line"/>
      <point x="149.953125" y="0.0" type="line"/>
      <point x="437.515625" y="0.0" type="line" smooth="yes"/>
      <point x="772.640625" y="0.0"/>
      <point x="944.8125" y="255.78125"/>
      <point x="944.8125" y="749.453125" type="curve" smooth="yes"/>
      <point x="944.8125" y="1214.765625"/>
      <point x="774.421875" y="1462.0"/>
    </contour>
    <contour>
      <point x="445.3125" y="1320.15625" type="line" smooth="yes"/>
      <point x="670.703125" y="1320.15625"/>
      <point x="780.265625" y="1123.359375"/>
      <point x="780.265625" y="741.0" type="curve" smooth="yes"/>
      <point x="780.265625" y="345.109375"/>
      <point x="674.1875" y="142.734375"/>
      <point x="433.515625" y="142.734375" type="curve" smooth="yes"/>
      <point x="311.609375" y="142.734375" type="line"/>
      <point x="311.609375" y="686.890625" type="line"/>
      <point x="518.90625" y="686.890625" type="line"/>
      <point x="518.90625" y="816.375" type="line"/>
      <point x="311.609375" y="816.375" type="line"/>
      <point x="311.609375" y="1320.15625" type="line"/>
    </contour>
  </outline>
</glyph>
<glyph name="multiply" format="2">
  <advance width="874.0"/>
  <unicode hex="00D7"/>
  <outline>
    <contour>
      <point x="717.140625" y="1094.859375" type="line"/>
      <point x="434.9375" y="812.328125" type="line"/>
      <point x="155.515625" y="1091.296875" type="line"/>
      <point x="68.1875" y="1001.296875" type="line"/>
      <point x="345.828125" y="723.21875" type="line"/>
      <point x="67.75" y="442.25" type="line"/>
      <point x="154.859375" y="353.140625" type="line"/>
      <point x="434.71875" y="634.109375" type="line"/>
      <point x="714.921875" y="355.140625" type="line"/>
      <point x="802.25" y="442.46875" type="line"/>
      <point x="526.390625" y="723.21875" type="line"/>
      <point x="808.03125" y="1007.75" type="line"/>
    </contour>
  </outline>
</glyph>
<glyph name="Oslash" format="2">
  <advance width="1123.375"/>
  <unicode hex="00D8"/>
  <anchor x="561.6875" y="0.0" name="bottom"/>
  <anchor x="567.03125" y="1462.0" name="top"/>
  <outline>
    <contour>
      <point x="1021.296875" y="733.0" type="curve" smooth="yes"/>
      <point x="1021.296875" y="967.140625"/>
      <point x="985.171875" y="1150.125"/>
      <point x="908.59375" y="1277.78125" type="curve"/>
      <point x="1019.78125" y="1495.734375" type="line"/>
      <point x="921.125" y="1543.5625" type="line"/>
      <point x="832.171875" y="1370.859375" type="line"/>
      <point x="761.828125" y="1445.484375"/>
      <point x="673.28125" y="1483.0"/>
      <point x="565.875" y="1483.0" type="curve" smooth="yes"/>
      <point x="264.921875" y="1483.0"/>
      <point x="108.125" y="1234.78125"/>
      <point x="108.125" y="734.78125" type="curve" smooth="yes"/>
      <point x="108.125" y="496.375"/>
      <point x="143.703125" y="309.953125"/>
      <point x="229.953125" y="170.40625" type="curve"/>
      <point x="116.703125" y="-56.578125" type="line"/>
      <point x="216.03125" y="-101.171875" type="line"/>
      <point x="306.375" y="80.890625" type="line"/>
      <point x="373.828125" y="15.171875000000004"/>
      <point x="460.703125" y="-20.0"/>
      <point x="565.875" y="-20.0" type="curve" smooth="yes"/>
      <point x="869.609375" y="-20.0"/>
      <point x="1021.296875" y="256.0625"/>
    </contour>
    <contour>
      <point x="856.96875" y="733.0" type="curve" smooth="yes"/>
      <point x="856.96875" y="327.65625"/>
      <point x="758.671875" y="121.84374999999999"/>
      <point x="564.09375" y="121.84374999999999" type="curve" smooth="yes"/>
      <point x="486.15625" y="121.84374999999999"/>
      <point x="422.421875" y="155.6875"/>
      <point x="375.5625" y="223.71875" type="curve"/>
      <point x="816.140625" y="1094.09375" type="line"/>
      <point x="843.546875" y="1001.140625"/>
      <point x="856.96875" y="877.21875"/>
    </contour>
    <contour>
      <point x="271.5625" y="733.0" type="curve" smooth="yes"/>
      <point x="271.5625" y="1129.6875"/>
      <point x="369.859375" y="1340.265625"/>
      <point x="565.875" y="1340.265625" type="curve" smooth="yes"/>
      <point x="651.265625" y="1340.265625"/>
      <point x="715.671875" y="1302.96875"/>
      <point x="763.984375" y="1225.015625" type="curve"/>
      <point x="321.734375" y="348.40625" type="line"/>
      <point x="288.765625" y="442.25"/>
      <point x="271.5625" y="570.296875"/>
    </contour>
  </outline>
</glyph>
<glyph name="Thorn" format="2">
  <advance width="884"/>
  <unicode hex="00DE"/>
  <anchor x="442" y="0" name="bottom"/>
  <anchor x="442" y="1462" name="top"/>
  <outline>
    <contour>
      <point x="828" y="784" type="curve" smooth="yes"/>
      <point x="828" y="1070"/>
      <point x="697" y="1206"/>
      <point x="414" y="1206" type="curve" smooth="yes"/>
      <point x="310" y="1206" type="line"/>
      <point x="310" y="1462" type="line"/>
      <point x="151" y="1462" type="line"/>
      <point x="151" y="0" type="line"/>
      <point x="310" y="0" type="line"/>
      <point x="310" y="319" type="line"/>
      <point x="412" y="319" type="line" smooth="yes"/>
      <point x="697" y="319"/>
      <point x="828" y="490"/>
    </contour>
    <contour>
      <point x="310" y="461" type="line"/>
      <point x="310" y="1064" type="line"/>
      <point x="411" y="1064" type="line" smooth="yes"/>
      <point x="590" y="1064"/>
      <point x="667" y="978"/>
      <point x="667" y="776" type="curve" smooth="yes"/>
      <point x="667" y="561"/>
      <point x="594" y="461"/>
      <point x="396" y="461" type="curve" smooth="yes"/>
    </contour>
  </outline>
</glyph>
<glyph name="germandbls" format="2">
  <advance width="917.625"/>
  <unicode hex="00DF"/>
  <anchor x="459.8125" y="0.0" name="bottom"/>
  <anchor x="459.8125" y="1567.0" name="top"/>
  <outline>
    <contour>
      <point x="757.40625" y="1269.328125" type="curve" smooth="yes"/>
      <point x="757.40625" y="1458.21875"/>
      <point x="648.109375" y="1567.0"/>
      <point x="462.46875" y="1567.0" type="curve" smooth="yes"/>
      <point x="256.171875" y="1567.0"/>
      <point x="134.3125" y="1420.203125"/>
      <point x="134.3125" y="1175.75" type="curve" smooth="yes"/>
      <point x="134.3125" y="0.0" type="line"/>
      <point x="288.0625" y="0.0" type="line"/>
      <point x="288.0625" y="1170.640625" type="line" smooth="yes"/>
      <point x="288.0625" y="1338.578125"/>
      <point x="346.625" y="1431.390625"/>
      <point x="458.90625" y="1431.390625" type="curve" smooth="yes"/>
      <point x="556.109375" y="1431.390625"/>
      <point x="603.546875" y="1369.875"/>
      <point x="603.546875" y="1264.875" type="curve" smooth="yes"/>
      <point x="603.546875" y="1074.359375"/>
      <point x="417.765625" y="1030.921875"/>
      <point x="417.765625" y="841.9375" type="curve" smooth="yes"/>
      <point x="417.765625" y="748.65625"/>
      <point x="454.265625" y="658.421875"/>
      <point x="565.890625" y="542.71875" type="curve" smooth="yes"/>
      <point x="658.8125" y="447.828125"/>
      <point x="698.21875" y="386.96875"/>
      <point x="698.21875" y="296.484375" type="curve" smooth="yes"/>
      <point x="698.21875" y="186.875"/>
      <point x="646.03125" y="118.28124999999999"/>
      <point x="549.765625" y="118.28124999999999" type="curve" smooth="yes"/>
      <point x="478.0625" y="118.28124999999999"/>
      <point x="419.5" y="147.640625"/>
      <point x="366.5" y="184.421875" type="curve"/>
      <point x="366.5" y="34.125" type="line"/>
      <point x="420.1875" y="-4.21875"/>
      <point x="494.546875" y="-20.0"/>
      <point x="563.125" y="-20.0" type="curve" smooth="yes"/>
      <point x="750.140625" y="-20.0"/>
      <point x="852.96875" y="105.640625"/>
      <point x="852.96875" y="307.171875" type="curve" smooth="yes"/>
      <point x="852.96875" y="438.0625"/>
      <point x="808.65625" y="507.484375"/>
      <point x="682.578125" y="641.859375" type="curve" smooth="yes"/>
      <point x="609.6875" y="721.609375"/>
      <point x="569.84375" y="773.8125"/>
      <point x="569.84375" y="849.0625" type="curve" smooth="yes"/>
      <point x="569.84375" y="988.875"/>
      <point x="757.40625" y="1061.046875"/>
    </contour>
  </outline>
</glyph>
<glyph name="ae" format="2">
  <advance width="1318.03125"/>
  <unicode hex="00E6"/>
  <anchor x="659.515625" y="0.0" name="bottom"/>
  <anchor x="670.203125" y="1097.703125" name="top"/>
  <outline>
    <contour>
      <point x="904.515625" y="1116.03125" type="curve" smooth="yes"/>
      <point x="790.25" y="1116.03125"/>
      <point x="705.8125" y="1058.9375"/>
      <point x="650.765625" y="955.46875" type="curve"/>
      <point x="613.15625" y="1064.546875"/>
      <point x="537.828125" y="1117.8125"/>
      <point x="416.640625" y="1117.8125" type="curve" smooth="yes"/>
      <point x="311.03125" y="1117.8125"/>
      <point x="223.46875" y="1085.46875"/>
      <point x="150.4375" y="1039.5625" type="curve"/>
      <point x="200.046875" y="923.09375" type="line"/>
      <point x="277.828125" y="968.984375"/>
      <point x="346.03125" y="990.21875"/>
      <point x="406.171875" y="990.21875" type="curve" smooth="yes"/>
      <point x="509.484375" y="990.21875"/>
      <point x="557.0" y="907.234375"/>
      <point x="557.0" y="741.484375" type="curve" smooth="yes"/>
      <point x="557.0" y="660.09375" type="line"/>
      <point x="432.65625" y="652.984375" type="line" smooth="yes"/>
      <point x="202.75" y="642.546875"/>
      <point x="70.875" y="519.734375"/>
      <point x="70.875" y="302.515625" type="curve" smooth="yes"/>
      <point x="70.875" y="129.609375"/>
      <point x="147.984375" y="-20.0"/>
      <point x="325.234375" y="-20.0" type="curve" smooth="yes"/>
      <point x="459.1875" y="-20.0"/>
      <point x="555.1875" y="52.140625"/>
      <point x="619.828125" y="209.53125" type="curve"/>
      <point x="673.984375" y="64.21875"/>
      <point x="793.375" y="-20.0"/>
      <point x="939.078125" y="-20.0" type="curve" smooth="yes"/>
      <point x="1034.671875" y="-20.0"/>
      <point x="1117.109375" y="2.2187500000000004"/>
      <point x="1190.8125" y="48.34375" type="curve"/>
      <point x="1190.8125" y="182.828125" type="line"/>
      <point x="1112.234375" y="132.9375"/>
      <point x="1029.578125" y="109.37499999999999"/>
      <point x="951.546875" y="109.37499999999999" type="curve" smooth="yes"/>
      <point x="793.8125" y="109.37499999999999"/>
      <point x="712.640625" y="246.171875"/>
      <point x="708.859375" y="522.703125" type="curve"/>
      <point x="1230.9375" y="522.703125" type="line"/>
      <point x="1230.9375" y="631.6875" type="line" smooth="yes"/>
      <point x="1230.9375" y="901.390625"/>
      <point x="1130.0" y="1116.03125"/>
    </contour>
    <contour>
      <point x="558.78125" y="546.96875" type="line"/>
      <point x="558.78125" y="426.671875" type="line" smooth="yes"/>
      <point x="558.78125" y="227.859375"/>
      <point x="486.34375" y="105.81249999999999"/>
      <point x="367.09375" y="105.81249999999999" type="curve" smooth="yes"/>
      <point x="278.171875" y="105.81249999999999"/>
      <point x="228.296875" y="170.859375"/>
      <point x="228.296875" y="306.078125" type="curve" smooth="yes"/>
      <point x="228.296875" y="458.265625"/>
      <point x="301.15625" y="531.203125"/>
      <point x="458.484375" y="540.75" type="curve" smooth="yes"/>
    </contour>
    <contour>
      <point x="904.296875" y="988.4375" type="curve" smooth="yes"/>
      <point x="1031.5625" y="988.4375"/>
      <point x="1088.421875" y="838.625"/>
      <point x="1088.203125" y="644.953125" type="curve"/>
      <point x="710.640625" y="644.953125" type="line"/>
      <point x="720.421875" y="876.515625"/>
      <point x="790.6875" y="988.4375"/>
    </contour>
  </outline>
</glyph>
<glyph name="eth" format="2">
  <advance width="904.28125"/>
  <unicode hex="00F0"/>
  <anchor x="453.640625" y="0.0" name="bottom"/>
  <anchor x="453.640625" y="1560.015625" name="top"/>
  <outline>
    <contour>
      <point x="320.53125" y="1559.796875" type="curve"/>
      <point x="250.46875" y="1470.34375" type="line"/>
      <point x="287.90625" y="1442.671875"/>
      <point x="328.0" y="1411.015625"/>
      <point x="365.21875" y="1373.359375" type="curve"/>
      <point x="216.125" y="1277.359375" type="line"/>
      <point x="275.75" y="1190.9375" type="line"/>
      <point x="433.734375" y="1292.9375" type="line"/>
      <point x="535.4375" y="1171.78125"/>
      <point x="602.296875" y="1029.375"/>
      <point x="631.40625" y="871.8125" type="curve"/>
      <point x="625.40625" y="870.03125" type="line"/>
      <point x="582.375" y="933.03125"/>
      <point x="515.390625" y="968.484375"/>
      <point x="424.90625" y="968.484375" type="curve" smooth="yes"/>
      <point x="222.640625" y="968.484375"/>
      <point x="86.875" y="790.265625"/>
      <point x="86.875" y="475.25" type="curve" smooth="yes"/>
      <point x="86.875" y="206.53125"/>
      <point x="211.390625" y="-20.0"/>
      <point x="450.515625" y="-20.0" type="curve" smooth="yes"/>
      <point x="689.5" y="-20.0"/>
      <point x="817.40625" y="166.828125"/>
      <point x="817.40625" y="530.0" type="curve" smooth="yes"/>
      <point x="817.40625" y="891.828125"/>
      <point x="724.0625" y="1165.296875"/>
      <point x="542.859375" y="1374.046875" type="curve"/>
      <point x="702.390625" y="1472.484375" type="line"/>
      <point x="640.984375" y="1560.015625" type="line"/>
      <point x="469.890625" y="1449.125" type="line"/>
      <point x="420.203125" y="1493.6875"/>
      <point x="371.640625" y="1530.6875"/>
    </contour>
    <contour>
      <point x="456.734375" y="832.875" type="curve" smooth="yes"/>
      <point x="593.265625" y="832.875"/>
      <point x="662.65625" y="681.40625"/>
      <point x="662.65625" y="485.6875" type="curve" smooth="yes"/>
      <point x="662.65625" y="240.171875"/>
      <point x="601.8125" y="112.93749999999999"/>
      <point x="455.859375" y="112.93749999999999" type="curve" smooth="yes"/>
      <point x="307.015625" y="112.93749999999999"/>
      <point x="242.296875" y="269.328125"/>
      <point x="242.296875" y="469.90625" type="curve" smooth="yes"/>
      <point x="242.296875" y="706.96875"/>
      <point x="318.125" y="832.875"/>
    </contour>
  </outline>
</glyph>
<glyph name="divide" format="2">
  <advance width="874.0"/>
  <unicode hex="00F7"/>
  <outline>
    <contour>
      <point x="60.78125" y="657.703125" type="line"/>
      <point x="808.546875" y="657.703125" type="line"/>
      <point x="808.546875" y="788.078125" type="line"/>
      <point x="60.78125" y="788.078125" type="line"/>
    </contour>
    <contour>
      <point x="438.28125" y="235.34375" type="curve" smooth="yes"/>
      <point x="496.203125" y="235.34375"/>
      <point x="533.8125" y="275.359375"/>
      <point x="533.8125" y="356.4375" type="curve" smooth="yes"/>
      <point x="533.8125" y="435.515625"/>
      <point x="501.546875" y="477.421875"/>
      <point x="438.28125" y="477.421875" type="curve" smooth="yes"/>
      <point x="372.78125" y="477.421875"/>
      <point x="339.96875" y="435.734375"/>
      <point x="339.96875" y="356.0" type="curve" smooth="yes"/>
      <point x="339.96875" y="277.46875"/>
      <point x="373.90625" y="235.34375"/>
    </contour>
    <contour>
      <point x="438.28125" y="966.578125" type="curve" smooth="yes"/>
      <point x="496.203125" y="966.578125"/>
      <point x="533.8125" y="1005.484375"/>
      <point x="533.8125" y="1086.5625" type="curve" smooth="yes"/>
      <point x="533.8125" y="1165.859375"/>
      <point x="501.546875" y="1207.765625"/>
      <point x="438.28125" y="1207.765625" type="curve" smooth="yes"/>
      <point x="372.34375" y="1207.765625"/>
      <point x="339.96875" y="1165.859375"/>
      <point x="339.96875" y="1086.78125" type="curve" smooth="yes"/>
      <point x="339.96875" y="1008.375"/>
      <point x="374.125" y="966.578125"/>
    </contour>
  </outline>
</glyph>
<glyph name="oslash" format="2">
  <advance width="909.46875"/>
  <unicode hex="00F8"/>
  <anchor x="456.125" y="0.0" name="bottom"/>
  <anchor x="456.125" y="1097.703125" name="top"/>
  <outline>
    <contour>
      <point x="818.953125" y="549.90625" type="curve" smooth="yes"/>
      <point x="818.953125" y="722.5625"/>
      <point x="789.828125" y="861.78125"/>
      <point x="727.03125" y="962.453125" type="curve"/>
      <point x="821.65625" y="1153.734375" type="line"/>
      <point x="727.890625" y="1199.78125" type="line"/>
      <point x="648.828125" y="1044.078125" type="line"/>
      <point x="596.265625" y="1094.609375"/>
      <point x="533.390625" y="1117.8125"/>
      <point x="456.53125" y="1117.8125" type="curve" smooth="yes"/>
      <point x="217.265625" y="1117.8125"/>
      <point x="91.21875" y="924.140625"/>
      <point x="91.21875" y="550.34375" type="curve" smooth="yes"/>
      <point x="91.21875" y="369.0"/>
      <point x="123.015625" y="227.984375"/>
      <point x="191.390625" y="125.1875" type="curve"/>
      <point x="82.25" y="-91.796875" type="line"/>
      <point x="175.796875" y="-138.171875" type="line"/>
      <point x="265.8125" y="45.01562500000001" type="line"/>
      <point x="315.25" y="1.9687500000000018"/>
      <point x="378.78125" y="-20.0"/>
      <point x="453.40625" y="-20.0" type="curve" smooth="yes"/>
      <point x="689.125" y="-20.0"/>
      <point x="818.953125" y="182.9375"/>
    </contour>
    <contour>
      <point x="244.859375" y="550.34375" type="curve" smooth="yes"/>
      <point x="244.859375" y="841.28125"/>
      <point x="307.71875" y="986.65625"/>
      <point x="456.53125" y="986.65625" type="curve" smooth="yes"/>
      <point x="514.484375" y="986.65625"/>
      <point x="559.234375" y="964.125"/>
      <point x="593.328125" y="917.265625" type="curve"/>
      <point x="275.828125" y="284.71875" type="line"/>
      <point x="255.515625" y="348.453125"/>
      <point x="244.859375" y="437.515625"/>
    </contour>
    <contour>
      <point x="669.765625" y="550.125" type="curve" smooth="yes"/>
      <point x="669.765625" y="256.234375"/>
      <point x="602.015625" y="109.37499999999999"/>
      <point x="454.96875" y="109.37499999999999" type="curve" smooth="yes"/>
      <point x="403.703125" y="109.37499999999999"/>
      <point x="359.96875" y="129.671875"/>
      <point x="327.65625" y="171.046875" type="curve"/>
      <point x="641.703125" y="798.578125" type="line"/>
      <point x="658.21875" y="736.625"/>
      <point x="669.765625" y="653.703125"/>
    </contour>
  </outline>
</glyph>
<glyph name="thorn" format="2">
  <advance width="937.25"/>
  <unicode hex="00FE"/>
  <anchor x="468.734375" y="-490.140625" name="bottom"/>
  <anchor x="468.734375" y="1556.0" name="top"/>
  <outline>
    <contour>
      <point x="852.375" y="551.21875" type="curve" smooth="yes"/>
      <point x="852.375" y="922.0"/>
      <point x="741.03125" y="1117.8125"/>
      <point x="531.125" y="1117.8125" type="curve" smooth="yes"/>
      <point x="423.921875" y="1117.8125"/>
      <point x="343.453125" y="1057.84375"/>
      <point x="287.078125" y="936.546875" type="curve"/>
      <point x="281.296875" y="936.546875" type="line"/>
      <point x="285.84375" y="995.390625"/>
      <point x="288.0625" y="1052.4375"/>
      <point x="288.0625" y="1108.640625" type="curve" smooth="yes"/>
      <point x="288.0625" y="1556.0" type="line"/>
      <point x="134.3125" y="1556.0" type="line"/>
      <point x="134.3125" y="-490.140625" type="line"/>
      <point x="289.84375" y="-490.140625" type="line"/>
      <point x="289.84375" y="8.312500000000014" type="line" smooth="yes"/>
      <point x="289.84375" y="51.93750000000001"/>
      <point x="284.28125" y="101.484375"/>
      <point x="280.5" y="154.875" type="curve"/>
      <point x="288.28125" y="154.875" type="line"/>
      <point x="334.765625" y="48.4375"/>
      <point x="426.359375" y="-20.0"/>
      <point x="539.375" y="-20.0" type="curve" smooth="yes"/>
      <point x="738.953125" y="-20.0"/>
      <point x="852.375" y="184.28125"/>
    </contour>
    <contour>
      <point x="695.390625" y="549.4375" type="curve" smooth="yes"/>
      <point x="695.390625" y="301.828125"/>
      <point x="649.203125" y="114.71874999999999"/>
      <point x="499.515625" y="114.71874999999999" type="curve" smooth="yes"/>
      <point x="359.09375" y="114.71874999999999"/>
      <point x="288.0625" y="245.90625"/>
      <point x="288.0625" y="532.71875" type="curve" smooth="yes"/>
      <point x="288.0625" y="585.53125" type="line" smooth="yes"/>
      <point x="288.0625" y="856.515625"/>
      <point x="357.5625" y="983.09375"/>
      <point x="497.953125" y="983.09375" type="curve" smooth="yes"/>
      <point x="635.65625" y="983.09375"/>
      <point x="695.390625" y="846.625"/>
    </contour>
  </outline>
</glyph>
<glyph name="dcroat" format="2">
  <advance width="939.765625"/>
  <unicode hex="0111"/>
  <anchor x="469.828125" y="0.0" name="bottom"/>
  <anchor x="469.828125" y="1556.0" name="top"/>
  <outline>
    <contour>
      <point x="407.015625" y="-20.0" type="curve" smooth="yes"/>
      <point x="519.578125" y="-20.0"/>
      <point x="594.453125" y="40.984375"/>
      <point x="649.734375" y="149.3125" type="curve"/>
      <point x="660.859375" y="149.3125" type="line"/>
      <point x="682.0" y="0.0" type="line"/>
      <point x="805.15625" y="0.0" type="line"/>
      <point x="805.15625" y="1252.359375" type="line"/>
      <point x="926.34375" y="1252.359375" type="line"/>
      <point x="926.34375" y="1371.15625" type="line"/>
      <point x="805.15625" y="1371.15625" type="line"/>
      <point x="805.15625" y="1556.0" type="line"/>
      <point x="651.515625" y="1556.0" type="line"/>
      <point x="651.515625" y="1371.15625" type="line"/>
      <point x="417.78125" y="1371.15625" type="line"/>
      <point x="417.78125" y="1252.359375" type="line"/>
      <point x="651.515625" y="1252.359375" type="line"/>
      <point x="651.515625" y="1087.46875" type="line" smooth="yes"/>
      <point x="651.515625" y="1046.03125"/>
      <point x="653.515625" y="995.90625"/>
      <point x="657.296875" y="936.890625" type="curve"/>
      <point x="649.734375" y="936.890625" type="line"/>
      <point x="598.234375" y="1041.5625"/>
      <point x="508.453125" y="1105.34375"/>
      <point x="401.765625" y="1105.34375" type="curve" smooth="yes"/>
      <point x="200.09375" y="1105.34375"/>
      <point x="86.875" y="904.5625"/>
      <point x="86.875" y="540.921875" type="curve" smooth="yes"/>
      <point x="86.875" y="176.90625"/>
      <point x="197.0" y="-20.0"/>
    </contour>
    <contour>
      <point x="441.296875" y="111.15624999999999" type="curve" smooth="yes"/>
      <point x="304.9375" y="111.15624999999999"/>
      <point x="244.40625" y="258.421875"/>
      <point x="244.40625" y="539.140625" type="curve" smooth="yes"/>
      <point x="244.40625" y="819.015625"/>
      <point x="305.015625" y="966.171875"/>
      <point x="438.5" y="966.171875" type="curve" smooth="yes"/>
      <point x="584.578125" y="966.171875"/>
      <point x="651.515625" y="836.90625"/>
      <point x="651.515625" y="563.0625" type="curve" smooth="yes"/>
      <point x="651.515625" y="505.546875" type="line" smooth="yes"/>
      <point x="651.515625" y="239.078125"/>
      <point x="579.453125" y="111.15624999999999"/>
    </contour>
  </outline>
</glyph>
<glyph name="eogonek" format="2">
  <advance width="847.46875"/>
  <unicode hex="0119"/>
  <anchor x="464.328125" y="-455.578125" name="bottom"/>
  <anchor x="429.078125" y="1097.703125" name="top"/>
  <outline>
    <contour>
      <point x="553.328125" y="-244.921875" type="curve" smooth="yes"/>
      <point x="553.328125" y="-162.625"/>
      <point x="618.46875" y="-54.125"/>
      <point x="724.03125" y="48.5625" type="curve"/>
      <point x="580.65625" y="4.296875000000001" type="line"/>
      <point x="491.046875" y="-63.765625"/>
      <point x="425.515625" y="-163.96875"/>
      <point x="425.515625" y="-266.515625" type="curve" smooth="yes"/>
      <point x="425.515625" y="-389.4375"/>
      <point x="488.171875" y="-455.578125"/>
      <point x="615.125" y="-455.578125" type="curve" smooth="yes"/>
      <point x="650.578125" y="-455.578125"/>
      <point x="688.15625" y="-449.578125"/>
      <point x="715.84375" y="-439.125" type="curve"/>
      <point x="715.84375" y="-330.671875" type="line"/>
      <point x="700.171875" y="-336.453125"/>
      <point x="672.84375" y="-342.453125"/>
      <point x="645.625" y="-342.453125" type="curve" smooth="yes"/>
      <point x="586.765625" y="-342.453125"/>
      <point x="553.328125" y="-308.796875"/>
    </contour>
    <component base="e"/>
  </outline>
</glyph>
<glyph name="Hbar" format="2">
  <advance width="1082.375"/>
  <unicode hex="0126"/>
  <anchor x="542.078125" y="0.0" name="bottom"/>
  <anchor x="542.078125" y="1462.0" name="top"/>
  <outline>
    <contour>
      <point x="148.421875" y="0.0" type="line"/>
      <point x="307.40625" y="0.0" type="line"/>
      <point x="307.40625" y="690.453125" type="line"/>
      <point x="771.3125" y="690.453125" type="line"/>
      <point x="771.3125" y="0.0" type="line"/>
      <point x="930.40625" y="0.0" type="line"/>
      <point x="930.40625" y="1088.609375" type="line"/>
      <point x="1084.15625" y="1088.609375" type="line"/>
      <point x="1084.15625" y="1213.53125" type="line"/>
      <point x="930.40625" y="1213.53125" type="line"/>
      <point x="930.40625" y="1462.0" type="line"/>
      <point x="771.3125" y="1462.0" type="line"/>
      <point x="771.3125" y="1213.53125" type="line"/>
      <point x="307.40625" y="1213.53125" type="line"/>
      <point x="307.40625" y="1462.0" type="line"/>
      <point x="148.421875" y="1462.0" type="line"/>
      <point x="148.421875" y="1213.53125" type="line"/>
      <point x="-3.5624999999999996" y="1213.53125" type="line"/>
      <point x="-3.5624999999999996" y="1088.609375" type="line"/>
      <point x="148.421875" y="1088.609375" type="line"/>
    </contour>
    <contour>
      <point x="310.078125" y="838.640625" type="line"/>
      <point x="310.078125" y="1088.609375" type="line"/>
      <point x="773.09375" y="1088.609375" type="line"/>
      <point x="773.09375" y="838.640625" type="line"/>
    </contour>
  </outline>
</glyph>
<glyph name="hbar" format="2">
  <advance width="925.03125"/>
  <unicode hex="0127"/>
  <anchor x="462.515625" y="0.0" name="bottom"/>
  <anchor x="239.85937500000006" y="1556.0" name="top"/>
  <outline>
    <contour>
      <point x="289.8125" y="1556.0" type="line"/>
      <point x="136.171875" y="1556.0" type="line"/>
      <point x="136.171875" y="1367.59375" type="line"/>
      <point x="15.421875" y="1367.59375" type="line"/>
      <point x="15.421875" y="1247.015625" type="line"/>
      <point x="136.171875" y="1247.015625" type="line"/>
      <point x="136.171875" y="0.0" type="line"/>
      <point x="288.03125" y="0.0" type="line"/>
      <point x="288.03125" y="562.796875" type="line" smooth="yes"/>
      <point x="288.03125" y="849.984375"/>
      <point x="357.8125" y="966.171875"/>
      <point x="495.265625" y="966.171875" type="curve" smooth="yes"/>
      <point x="596.03125" y="966.171875"/>
      <point x="640.96875" y="890.40625"/>
      <point x="640.96875" y="702.265625" type="curve" smooth="yes"/>
      <point x="640.96875" y="0.0" type="line"/>
      <point x="794.71875" y="0.0" type="line"/>
      <point x="794.71875" y="733.078125" type="line" smooth="yes"/>
      <point x="794.71875" y="977.875"/>
      <point x="710.71875" y="1105.34375"/>
      <point x="528.4375" y="1105.34375" type="curve" smooth="yes"/>
      <point x="419.421875" y="1105.34375"/>
      <point x="329.9375" y="1036.234375"/>
      <point x="289.8125" y="930.34375" type="curve"/>
      <point x="278.6875" y="930.34375" type="line"/>
      <point x="286.25" y="978.90625"/>
      <point x="289.8125" y="1025.9375"/>
      <point x="289.8125" y="1074.796875" type="curve" smooth="yes"/>
      <point x="289.8125" y="1247.015625" type="line"/>
      <point x="528.4375" y="1247.015625" type="line"/>
      <point x="528.4375" y="1367.59375" type="line"/>
      <point x="289.8125" y="1367.59375" type="line"/>
    </contour>
  </outline>
</glyph>
<glyph name="idotless" format="2">
  <advance width="421.9375"/>
  <unicode hex="0131"/>
  <anchor x="213.640625" y="0.0" name="bottom"/>
  <anchor x="210.078125" y="1097.703125" name="top"/>
  <outline>
    <contour>
      <point x="287.84375" y="0.0" type="line"/>
      <point x="287.84375" y="1097.703125" type="line"/>
      <point x="134.3125" y="1097.703125" type="line"/>
      <point x="134.3125" y="0.0" type="line"/>
    </contour>
  </outline>
</glyph>
<glyph name="kgreenlandic" format="2">
  <advance width="800.265625"/>
  <unicode hex="0138"/>
  <anchor x="401.46875" y="0.0" name="bottom"/>
  <anchor x="401.46875" y="1097.703125" name="top"/>
  <outline>
    <contour>
      <point x="773.0625" y="1097.703125" type="line"/>
      <point x="607.078125" y="1097.703125" type="line"/>
      <point x="342.375" y="661.6875" type="line" smooth="yes"/>
      <point x="325.28125" y="629.59375"/>
      <point x="304.5" y="593.03125"/>
      <point x="286.0625" y="555.59375" type="curve"/>
      <point x="278.71875" y="555.59375" type="line"/>
      <point x="284.28125" y="623.5625"/>
      <point x="288.0625" y="696.421875"/>
      <point x="288.0625" y="777.546875" type="curve" smooth="yes"/>
      <point x="288.0625" y="1097.703125" type="line"/>
      <point x="134.3125" y="1097.703125" type="line"/>
      <point x="134.3125" y="0.0" type="line"/>
      <point x="288.0625" y="0.0" type="line"/>
      <point x="288.0625" y="407.78125" type="line"/>
      <point x="404.125" y="551.75" type="line"/>
      <point x="627.171875" y="0.0" type="line"/>
      <point x="791.5" y="0.0" type="line"/>
      <point x="507.703125" y="675.34375" type="line"/>
    </contour>
  </outline>
</glyph>
<glyph name="Lslash" format="2">
  <advance width="767.90625"/>
  <unicode hex="0141"/>
  <anchor x="436.421875" y="0.0" name="bottom"/>
  <anchor x="248.68750000000003" y="1462.0" name="top"/>
  <outline>
    <contour>
      <point x="162.0" y="0.0" type="line"/>
      <point x="726.6875" y="0.0" type="line"/>
      <point x="726.6875" y="144.515625" type="line"/>
      <point x="320.984375" y="144.515625" type="line"/>
      <point x="320.984375" y="611.515625" type="line"/>
      <point x="623.296875" y="808.296875" type="line"/>
      <point x="551.203125" y="913.421875" type="line"/>
      <point x="320.984375" y="767.265625" type="line"/>
      <point x="320.984375" y="1462.0" type="line"/>
      <point x="162.0" y="1462.0" type="line"/>
      <point x="162.0" y="660.34375" type="line"/>
      <point x="-12.031249999999996" y="543.640625" type="line"/>
      <point x="63.515625" y="440.296875" type="line"/>
      <point x="162.0" y="502.921875" type="line"/>
    </contour>
  </outline>
</glyph>
<glyph name="lslash" format="2">
  <advance width="454"/>
  <unicode hex="0142"/>
  <anchor x="228" y="0" name="bottom"/>
  <anchor x="228" y="1556" name="top"/>
  <outline>
    <contour>
      <point x="150" y="0" type="line"/>
      <point x="303" y="0" type="line"/>
      <point x="303" y="740" type="line"/>
      <point x="501" y="886" type="line"/>
      <point x="423" y="987" type="line"/>
      <point x="303" y="899" type="line"/>
      <point x="303" y="1556" type="line"/>
      <point x="150" y="1556" type="line"/>
      <point x="150" y="787" type="line"/>
      <point x="-40" y="645" type="line"/>
      <point x="33" y="543" type="line"/>
      <point x="150" y="628" type="line"/>
    </contour>
  </outline>
</glyph>
<glyph name="Eng" format="2">
  <advance width="1150.890625"/>
  <unicode hex="014A"/>
  <anchor x="576.78125" y="-390.953125" name="bottom"/>
  <anchor x="576.78125" y="1462.0" name="top"/>
  <outline>
    <contour>
      <point x="734.328125" y="-390.953125" type="curve" smooth="yes"/>
      <point x="915.203125" y="-390.953125"/>
      <point x="1002.796875" y="-261.125"/>
      <point x="1002.796875" y="5.593749999999998" type="curve" smooth="yes"/>
      <point x="1002.796875" y="1462.0" type="line"/>
      <point x="850.828125" y="1462.0" type="line"/>
      <point x="850.828125" y="623.5" type="line" smooth="yes"/>
      <point x="850.828125" y="545.46875"/>
      <point x="854.609375" y="449.65625"/>
      <point x="859.953125" y="338.265625" type="curve"/>
      <point x="854.171875" y="338.265625" type="line"/>
      <point x="342.796875" y="1462.0" type="line"/>
      <point x="151.09375" y="1462.0" type="line"/>
      <point x="151.09375" y="0.0" type="line"/>
      <point x="302.0625" y="0.0" type="line"/>
      <point x="302.0625" y="935.5" type="line" smooth="yes"/>
      <point x="302.0625" y="1022.78125"/>
      <point x="298.28125" y="1119.296875"/>
      <point x="290.9375" y="1223.0625" type="curve"/>
      <point x="296.71875" y="1223.0625" type="line"/>
      <point x="851.265625" y="3.9687500000000036" type="line"/>
      <point x="851.265625" y="-178.234375"/>
      <point x="809.390625" y="-247.328125"/>
      <point x="719.859375" y="-247.328125" type="curve" smooth="yes"/>
      <point x="677.515625" y="-247.328125"/>
      <point x="637.203125" y="-238.0"/>
      <point x="604.640625" y="-225.78125" type="curve"/>
      <point x="604.640625" y="-368.734375" type="line"/>
      <point x="642.328125" y="-384.515625"/>
      <point x="686.203125" y="-390.953125"/>
    </contour>
  </outline>
</glyph>
